<svg id="Layer_1" data-name="Layer 1" xmlns="http://www.w3.org/2000/svg" viewBox="0 0 1920 1079"><path d="M1797.33,559.66c-2.95-6.13-3.4-13.91-8.74-18.1-2.93-2.31-6.84-3-10.56-3-5.55.06-11.25,1.71-15.33,5.48-4.42,4.08-6.51,10.31-6.36,16.34s2.35,11.86,5.43,17a48.08,48.08,0,0,0,24.06,20.49,30.5,30.5,0,0,0,14.43,2c8.54-1.12,16-7.14,20.09-14.76,3.67-6.82,4.84-14.77,4.32-22.53l.39,0c7.2-30.76.52-63.24-10.62-92.8s-26.67-57.29-38.08-86.74c-31.66-81.66-28.95-178.32,16.35-253.22,31.29-51.73,79.91-90.14,127.72-127h.07V1079.5H1638.37c106.34-72.66,189.11-179.51,233.05-300.87,15.3-42.27,26.06-88,16.87-132.07l-.9-1.38a50.54,50.54,0,0,0-10.8-23.56,25.45,25.45,0,0,0-9.15-7.45c-7.13-3.09-15.32-.95-22.78,1.22L1816,623.74c-11,3.2-22.07,6.42-33.48,7.12s-23.09-1.27-32.46-7.62l.16-.24L1743,607.48c-5.83-12.49-11.73-25.24-13.44-38.93s1.4-28.71,11.38-38.2c6.82-6.49,16.17-9.79,25.51-10.89s18.79-.17,28.15.76A26.13,26.13,0,0,1,1803,522c5.32,2.41,8.39,8,11.1,13.17l.32-.09c2.26,8.69,1.33,17.95.1,26.89a37.49,37.49,0,0,1-1.43,7c-3.18,9.44-14.28,15.38-23.86,12.77a15.18,15.18,0,0,1-6.06-3.12c-4.14-3.63-5.39-9.5-5.94-15-.38-3.77-.17-8.31,3-10.3,3.49-2.19,8,.19,11.35,2.52l5.68,3.88Z" transform="translate(-0.5 -0.5)" style="fill:#7c40ff"/><path d="M1604.33,556.21c-2.95-6.14-3.4-14-8.74-18.15-2.93-2.32-6.84-3-10.56-3-5.55.06-11.25,1.72-15.33,5.5-4.42,4.09-6.51,10.34-6.36,16.38s2.35,11.89,5.43,17.08a48,48,0,0,0,24.06,20.54,30.26,30.26,0,0,0,14.43,2c8.54-1.12,16-7.16,20.09-14.8,3.67-6.84,4.84-14.8,4.32-22.59l.39,0c7.2-30.85.52-63.42-10.62-93.06s-26.67-57.44-38.08-87c-31.66-81.89-28.95-178.81,16.35-253.92C1630.26,74.58,1677.32,36.67,1724,.5H1920.5V2.86h-.07c-47.81,36.87-96.43,75.28-127.72,127-45.3,74.9-48,171.56-16.35,253.22,11.41,29.45,26.93,57.18,38.08,86.74s17.82,62,10.62,92.8l-.39,0c.52,7.76-.65,15.71-4.32,22.53-4.09,7.62-11.55,13.64-20.09,14.76a30.5,30.5,0,0,1-14.43-2,48.08,48.08,0,0,1-24.06-20.49c-3.08-5.17-5.29-11-5.43-17s1.94-12.26,6.36-16.34c4.08-3.77,9.78-5.42,15.33-5.48,3.72-.05,7.63.65,10.56,3,5.34,4.19,5.79,12,8.74,18.1l-.09,0-5.68-3.88c-3.4-2.33-7.86-4.71-11.35-2.52-3.2,2-3.41,6.53-3,10.3.55,5.48,1.8,11.35,5.94,15a15.18,15.18,0,0,0,6.06,3.12c9.58,2.61,20.68-3.33,23.86-12.77a37.49,37.49,0,0,0,1.43-7c1.23-8.94,2.16-18.2-.1-26.89l-.32.09c-2.71-5.2-5.78-10.76-11.1-13.17a26.13,26.13,0,0,0-8.37-1.77c-9.36-.93-18.81-1.86-28.15-.76s-18.69,4.4-25.51,10.89c-10,9.49-13.1,24.52-11.38,38.2s7.61,26.44,13.44,38.93l7.23,15.52-.16.24c9.37,6.35,21.17,8.31,32.46,7.62s22.5-3.92,33.48-7.12l28.67-8.35c7.46-2.17,15.65-4.31,22.78-1.22a25.45,25.45,0,0,1,9.15,7.45,50.54,50.54,0,0,1,10.8,23.56l.9,1.38c9.19,44-1.57,89.8-16.87,132.07-43.94,121.36-126.71,228.21-233.05,300.87H1444.64V1078c106.69-72.87,189.74-180.23,233.78-302.21,15.3-42.38,26.06-88.3,16.87-132.43l-.9-1.39a50.7,50.7,0,0,0-10.8-23.62,25.33,25.33,0,0,0-9.15-7.48c-7.13-3.09-15.32-1-22.78,1.23L1623,620.47c-11,3.21-22.07,6.43-33.48,7.14s-23.1-1.28-32.47-7.64l.17-.25L1550,604.17c-5.83-12.53-11.73-25.32-13.44-39s1.4-28.79,11.38-38.31c6.82-6.51,16.17-9.81,25.51-10.92s18.79-.18,28.15.76a26.13,26.13,0,0,1,8.37,1.77c5.32,2.43,8.39,8,11.1,13.21l.32-.09c2.26,8.72,1.33,18,.1,27a37.53,37.53,0,0,1-1.43,7c-3.18,9.48-14.28,15.43-23.86,12.81a15.07,15.07,0,0,1-6.06-3.13c-4.14-3.63-5.39-9.53-5.94-15-.38-3.78-.17-8.33,3-10.33,3.49-2.19,8,.2,11.35,2.53l5.68,3.89Z" transform="translate(-0.5 -0.5)" style="fill:#ff7bac"/><path d="M1388.33,557.18c-2.95-6.14-3.4-13.93-8.74-18.12-2.93-2.31-6.84-3-10.56-3-5.55.07-11.25,1.72-15.33,5.49-4.42,4.09-6.51,10.32-6.36,16.36s2.35,11.87,5.43,17a48,48,0,0,0,24.06,20.51,30.38,30.38,0,0,0,14.43,2c8.54-1.12,16-7.15,20.09-14.77,3.67-6.83,4.84-14.79,4.32-22.55l.39,0c7.2-30.79.52-63.3-10.62-92.88s-26.67-57.34-38.08-86.83C1335.7,298.71,1338.41,202,1383.71,127,1414.82,75.51,1463.06,37.21,1510.6.5H1724c-46.7,36.17-93.76,74.08-124.31,124.73-45.3,75.11-48,172-16.35,253.92,11.41,29.54,26.93,57.34,38.08,87s17.82,62.21,10.62,93.06l-.39,0c.52,7.79-.65,15.75-4.32,22.59-4.09,7.64-11.55,13.68-20.09,14.8a30.26,30.26,0,0,1-14.43-2,48,48,0,0,1-24.06-20.54c-3.08-5.19-5.29-11-5.43-17.08s1.94-12.29,6.36-16.38c4.08-3.78,9.78-5.44,15.33-5.5,3.72,0,7.63.65,10.56,3,5.34,4.2,5.79,12,8.74,18.15l-.09,0-5.68-3.89c-3.4-2.33-7.86-4.72-11.35-2.53-3.2,2-3.41,6.55-3,10.33.55,5.49,1.8,11.39,5.94,15a15.07,15.07,0,0,0,6.06,3.13c9.58,2.62,20.68-3.33,23.86-12.81a37.53,37.53,0,0,0,1.43-7c1.23-9,2.16-18.24-.1-27l-.32.09c-2.71-5.21-5.78-10.78-11.1-13.21a26.13,26.13,0,0,0-8.37-1.77c-9.36-.94-18.81-1.86-28.15-.76s-18.69,4.41-25.51,10.92c-10,9.52-13.1,24.59-11.38,38.31s7.61,26.51,13.44,39l7.23,15.55-.17.25c9.37,6.36,21.17,8.33,32.47,7.64s22.5-3.93,33.48-7.14l28.67-8.37c7.46-2.18,15.65-4.32,22.78-1.23a25.33,25.33,0,0,1,9.15,7.48,50.7,50.7,0,0,1,10.8,23.62l.9,1.39c9.19,44.13-1.57,90-16.87,132.43-44,122-127.09,229.34-233.78,302.21v1.5h-216V1078c106.69-72.74,189.74-179.9,233.78-301.65,15.3-42.31,26.06-88.13,16.87-132.19l-.9-1.39a50.57,50.57,0,0,0-10.8-23.57,25.38,25.38,0,0,0-9.15-7.46c-7.13-3.09-15.32-1-22.78,1.22L1407,621.32c-11,3.2-22.07,6.42-33.48,7.12s-23.1-1.27-32.47-7.62l.17-.25L1334,605.05c-5.83-12.51-11.73-25.27-13.44-39s1.4-28.74,11.38-38.24c6.82-6.5,16.17-9.8,25.51-10.9s18.79-.18,28.15.76a26.13,26.13,0,0,1,8.37,1.77c5.32,2.42,8.39,8,11.1,13.18l.32-.09c2.26,8.71,1.33,18,.1,26.91a37.43,37.43,0,0,1-1.43,7c-3.18,9.46-14.28,15.4-23.86,12.79a15.2,15.2,0,0,1-6.06-3.13c-4.14-3.63-5.39-9.51-5.94-15-.38-3.77-.17-8.31,3-10.31,3.49-2.19,8,.19,11.35,2.52l5.68,3.89Z" transform="translate(-0.5 -0.5)" style="fill:#7c40ff"/><path d="M1174.33,558.7c-2.95-6.15-3.4-14-8.74-18.14-2.93-2.32-6.84-3-10.56-3-5.55.07-11.25,1.72-15.33,5.5-4.42,4.09-6.51,10.33-6.36,16.36s2.35,11.88,5.43,17.07A48,48,0,0,0,1162.83,597a30.26,30.26,0,0,0,14.43,2c8.54-1.12,16-7.15,20.09-14.78,3.67-6.83,4.84-14.79,4.32-22.57l.39,0c7.2-30.82.52-63.36-10.62-93s-26.67-57.39-38.08-86.9c-31.66-81.81-28.95-178.65,16.35-253.69C1201,76.28,1249.62,37.8,1297.43.86V.5H1510.6c-47.54,36.71-95.78,75-126.89,126.49-45.3,75-48,171.72-16.35,253.45,11.41,29.49,26.93,57.24,38.08,86.83s17.82,62.09,10.62,92.88l-.39,0c.52,7.76-.65,15.72-4.32,22.55-4.09,7.62-11.55,13.65-20.09,14.77a30.38,30.38,0,0,1-14.43-2A48,48,0,0,1,1352.77,575c-3.08-5.17-5.29-11-5.43-17s1.94-12.27,6.36-16.36c4.08-3.77,9.78-5.42,15.33-5.49,3.72,0,7.63.66,10.56,3,5.34,4.19,5.79,12,8.74,18.12l-.09,0-5.68-3.89c-3.4-2.33-7.86-4.71-11.35-2.52-3.2,2-3.41,6.54-3,10.31.55,5.48,1.8,11.36,5.94,15a15.2,15.2,0,0,0,6.06,3.13c9.58,2.61,20.68-3.33,23.86-12.79a37.43,37.43,0,0,0,1.43-7c1.23-8.94,2.16-18.2-.1-26.91l-.32.09c-2.71-5.2-5.78-10.76-11.1-13.18a26.13,26.13,0,0,0-8.37-1.77c-9.36-.94-18.81-1.86-28.15-.76s-18.69,4.4-25.51,10.9c-10,9.5-13.1,24.54-11.38,38.24s7.61,26.46,13.44,39l7.23,15.52-.17.25c9.37,6.35,21.17,8.31,32.47,7.62s22.5-3.92,33.48-7.12l28.67-8.36c7.46-2.17,15.65-4.31,22.78-1.22a25.38,25.38,0,0,1,9.15,7.46,50.57,50.57,0,0,1,10.8,23.57l.9,1.39c9.19,44.06-1.57,89.88-16.87,132.19-44,121.75-127.09,228.91-233.78,301.65v1.5H1015.36c106.35-72.79,189.12-179.85,233.06-301.43,15.3-42.35,26.06-88.21,16.87-132.31l-.9-1.39a50.68,50.68,0,0,0-10.8-23.6,25.27,25.27,0,0,0-9.15-7.46c-7.13-3.1-15.32-1-22.78,1.22L1193,622.89c-11,3.21-22.07,6.43-33.48,7.13s-23.09-1.27-32.46-7.63l.16-.24L1120,606.61c-5.83-12.52-11.73-25.29-13.44-39s1.4-28.76,11.38-38.27c6.82-6.5,16.17-9.81,25.51-10.91s18.79-.18,28.15.76A26.13,26.13,0,0,1,1180,521c5.32,2.42,8.39,8,11.1,13.2l.32-.09c2.26,8.71,1.33,18,.1,26.93a37.7,37.7,0,0,1-1.43,7c-3.18,9.46-14.28,15.41-23.86,12.79a15.18,15.18,0,0,1-6.06-3.12c-4.14-3.64-5.39-9.52-5.94-15-.38-3.77-.17-8.32,3-10.32,3.49-2.19,8,.19,11.35,2.53q2.85,1.93,5.68,3.89Z" transform="translate(-0.5 -0.5)" style="fill:#ff7bac"/><path d="M1127.05,622.39c9.37,6.36,21.17,8.33,32.46,7.63s22.5-3.92,33.48-7.13l28.67-8.36c7.46-2.18,15.65-4.32,22.78-1.22a25.27,25.27,0,0,1,9.15,7.46,50.68,50.68,0,0,1,10.8,23.6l.9,1.39c9.19,44.1-1.57,90-16.87,132.31-43.94,121.58-126.71,228.64-233.06,301.43H796.2V1078C902.88,1005.46,985.93,898.59,1030,777.17c15.31-42.19,26.07-87.9,16.88-131.83l-.91-1.39a50.39,50.39,0,0,0-10.79-23.51A25.42,25.42,0,0,0,1026,613c-7.13-3.08-15.32-1-22.78,1.22l-28.68,8.34c-11,3.19-22.06,6.4-33.47,7.1s-23.1-1.27-32.48-7.6l.17-.25-7.23-15.48c-5.82-12.47-11.72-25.2-13.44-38.86s1.41-28.66,11.38-38.14c6.83-6.48,16.18-9.77,25.52-10.87s18.78-.17,28.14.76A26.39,26.39,0,0,1,961.5,521c5.33,2.42,8.4,8,11.1,13.15l.32-.09c2.27,8.68,1.34,17.92.11,26.84a39.08,39.08,0,0,1-1.43,7c-3.18,9.43-14.28,15.36-23.87,12.75a15.25,15.25,0,0,1-6.06-3.12c-4.13-3.62-5.38-9.48-5.93-15-.38-3.76-.18-8.29,3-10.28,3.5-2.18,8,.19,11.36,2.52l5.68,3.87.09,0c-2.95-6.12-3.4-13.89-8.74-18.07-2.94-2.31-6.84-3-10.57-3-5.54.07-11.24,1.71-15.32,5.48-4.42,4.07-6.51,10.29-6.37,16.31s2.36,11.83,5.44,17a48,48,0,0,0,24.06,20.45,30.34,30.34,0,0,0,14.43,2c8.54-1.11,16-7.12,20.09-14.72,3.67-6.81,4.84-14.75,4.32-22.5l.38,0c7.21-30.71.53-63.12-10.62-92.63s-26.66-57.18-38.08-86.58c-31.65-81.52-28.95-178,16.36-252.77,31.29-51.64,79.9-90,127.72-126.78V.5h218.44V.86C1249.62,37.8,1201,76.28,1169.71,128.11c-45.3,75-48,171.88-16.35,253.69,11.41,29.51,26.93,57.29,38.08,86.9s17.82,62.15,10.62,93l-.39,0c.52,7.78-.65,15.74-4.32,22.57-4.09,7.63-11.55,13.66-20.09,14.78a30.26,30.26,0,0,1-14.43-2,48,48,0,0,1-24.06-20.52c-3.08-5.19-5.29-11-5.43-17.07s1.94-12.27,6.36-16.36c4.08-3.78,9.78-5.43,15.33-5.5,3.72,0,7.63.65,10.56,3,5.34,4.19,5.79,12,8.74,18.14l-.09,0q-2.84-1.95-5.68-3.89c-3.4-2.34-7.86-4.72-11.35-2.53-3.2,2-3.41,6.55-3,10.32.55,5.49,1.8,11.37,5.94,15a15.18,15.18,0,0,0,6.06,3.12c9.58,2.62,20.68-3.33,23.86-12.79a37.7,37.7,0,0,0,1.43-7c1.23-9,2.16-18.22-.1-26.93l-.32.09c-2.71-5.21-5.78-10.78-11.1-13.2a26.13,26.13,0,0,0-8.37-1.77c-9.36-.94-18.81-1.86-28.15-.76s-18.69,4.41-25.51,10.91c-10,9.51-13.1,24.56-11.38,38.27s7.61,26.49,13.44,39l7.23,15.54Z" transform="translate(-0.5 -0.5)" style="fill:#7c40ff"/><path d="M908.59,622.06c9.38,6.33,21.18,8.29,32.48,7.6s22.49-3.91,33.47-7.1l28.68-8.34c7.46-2.17,15.65-4.3,22.78-1.22a25.42,25.42,0,0,1,9.15,7.44A50.39,50.39,0,0,1,1045.94,644l.91,1.39c9.19,43.93-1.57,89.64-16.88,131.83-44,121.42-127.09,228.29-233.77,300.83v1.5H580.92C687.26,1006.58,770,899.34,814,777.55,829.28,735.13,840,689.18,830.85,645l-.91-1.39A50.76,50.76,0,0,0,819.15,620,25.33,25.33,0,0,0,810,612.5c-7.13-3.1-15.32-1-22.78,1.23l-28.68,8.37c-11,3.21-22.06,6.44-33.47,7.15S702,628,692.59,621.6l.17-.24-7.23-15.57c-5.82-12.54-11.72-25.34-13.44-39.07s1.41-28.82,11.38-38.34c6.83-6.52,16.18-9.82,25.52-10.93s18.78-.18,28.14.76A26.13,26.13,0,0,1,745.5,520c5.33,2.43,8.4,8,11.1,13.22l.32-.09c2.27,8.73,1.34,18,.11,27a39.4,39.4,0,0,1-1.43,7c-3.18,9.48-14.28,15.45-23.87,12.82a15.14,15.14,0,0,1-6.06-3.13c-4.13-3.64-5.38-9.54-5.93-15-.38-3.77-.18-8.33,3-10.33,3.5-2.19,8,.19,11.36,2.53l5.68,3.9.09,0c-2.95-6.16-3.4-14-8.74-18.18-2.94-2.31-6.84-3-10.57-3-5.54.07-11.24,1.72-15.32,5.51-4.42,4.09-6.51,10.35-6.37,16.39s2.36,11.9,5.44,17.1a48.12,48.12,0,0,0,24.06,20.56,30.22,30.22,0,0,0,14.43,2c8.54-1.12,16-7.16,20.09-14.8,3.67-6.85,4.84-14.83,4.32-22.62l.38,0c7.21-30.87.53-63.46-10.62-93.13s-26.66-57.49-38.08-87.05c-31.65-81.95-28.95-179,16.36-254.12C766.14,75.25,813.86,37.05,861.05.5H1079V2.79c-47.82,36.8-96.43,75.14-127.72,126.78-45.31,74.77-48,171.25-16.36,252.77,11.42,29.4,26.94,57.08,38.08,86.58s17.83,61.92,10.62,92.63l-.38,0c.52,7.75-.65,15.69-4.32,22.5-4.09,7.6-11.55,13.61-20.09,14.72a30.34,30.34,0,0,1-14.43-2,48,48,0,0,1-24.06-20.45c-3.08-5.17-5.29-11-5.44-17s2-12.24,6.37-16.31c4.08-3.77,9.78-5.41,15.32-5.48,3.73,0,7.63.65,10.57,3,5.34,4.18,5.79,12,8.74,18.07l-.09,0-5.68-3.87c-3.4-2.33-7.86-4.7-11.36-2.52-3.2,2-3.4,6.52-3,10.28.55,5.47,1.8,11.33,5.93,15a15.25,15.25,0,0,0,6.06,3.12c9.59,2.61,20.69-3.32,23.87-12.75a39.08,39.08,0,0,0,1.43-7c1.23-8.92,2.16-18.16-.11-26.84l-.32.09c-2.7-5.19-5.77-10.73-11.1-13.15a26.39,26.39,0,0,0-8.37-1.76c-9.36-.93-18.8-1.85-28.14-.76s-18.69,4.39-25.52,10.87c-10,9.48-13.09,24.48-11.38,38.14s7.62,26.39,13.44,38.86l7.23,15.48Z" transform="translate(-0.5 -0.5)" style="fill:#ff7bac"/><path d="M767.23,560.8c.52,7.79-.65,15.77-4.32,22.62-4.09,7.64-11.55,13.68-20.09,14.8a30.22,30.22,0,0,1-14.43-2,48.12,48.12,0,0,1-24.06-20.56c-3.08-5.2-5.29-11-5.44-17.1s2-12.3,6.37-16.39c4.08-3.79,9.78-5.44,15.32-5.51,3.73,0,7.63.66,10.57,3,5.34,4.21,5.79,12,8.74,18.18l-.09,0-5.68-3.9c-3.4-2.34-7.86-4.72-11.36-2.53-3.2,2-3.4,6.56-3,10.33.55,5.5,1.8,11.4,5.93,15a15.14,15.14,0,0,0,6.06,3.13c9.59,2.63,20.69-3.34,23.87-12.82a39.4,39.4,0,0,0,1.43-7c1.23-9,2.16-18.26-.11-27l-.32.09c-2.7-5.21-5.77-10.79-11.1-13.22a26.13,26.13,0,0,0-8.37-1.77c-9.36-.94-18.8-1.86-28.14-.76s-18.69,4.41-25.52,10.93c-10,9.52-13.09,24.6-11.38,38.34s7.62,26.53,13.44,39.07l7.23,15.57-.17.24c9.38,6.37,21.18,8.34,32.48,7.65s22.49-3.94,33.47-7.15l28.68-8.37c7.46-2.18,15.65-4.33,22.78-1.23a25.33,25.33,0,0,1,9.15,7.48,50.76,50.76,0,0,1,10.79,23.64l.91,1.39c9.19,44.17-1.57,90.12-16.88,132.54-43.94,121.79-126.71,229-233.05,302H366.09v-1.31c106.69-72.65,189.74-179.68,233.78-301.29,15.3-42.25,26.06-88,16.87-132l-.9-1.38A50.46,50.46,0,0,0,605,619.94a25.35,25.35,0,0,0-9.15-7.45c-7.13-3.09-15.32-1-22.78,1.22l-28.67,8.35c-11,3.19-22.07,6.41-33.48,7.11s-23.09-1.27-32.46-7.62l.16-.24-7.23-15.51c-5.83-12.49-11.73-25.23-13.44-38.92s1.4-28.7,11.38-38.19c6.82-6.49,16.17-9.78,25.51-10.88s18.79-.18,28.15.75a26.07,26.07,0,0,1,8.36,1.77c5.33,2.42,8.4,8,11.11,13.17l.32-.09c2.26,8.69,1.33,18,.1,26.88a38.32,38.32,0,0,1-1.43,7c-3.18,9.44-14.28,15.38-23.86,12.77a15.2,15.2,0,0,1-6.06-3.13c-4.14-3.62-5.39-9.49-5.94-15-.38-3.76-.17-8.3,3-10.3,3.5-2.18,8,.2,11.36,2.52l5.68,3.88.09,0c-2.95-6.13-3.4-13.91-8.74-18.1-2.93-2.3-6.84-3-10.56-3-5.55.07-11.25,1.72-15.33,5.49-4.42,4.08-6.51,10.3-6.36,16.33s2.35,11.85,5.43,17a48.06,48.06,0,0,0,24.06,20.48,30.5,30.5,0,0,0,14.43,2c8.54-1.12,16-7.14,20.09-14.75,3.67-6.82,4.84-14.77,4.32-22.53l.39,0c7.2-30.76.52-63.22-10.62-92.77s-26.67-57.27-38.08-86.72c-31.66-81.64-28.95-178.27,16.35-253.15,31.29-51.72,79.91-90.12,127.72-127V.5H861.05c-47.19,36.55-94.91,74.75-125.78,126-45.31,75.16-48,172.17-16.36,254.12C730.33,410.15,745.85,438,757,467.64s17.83,62.26,10.62,93.13Z" transform="translate(-0.5 -0.5)" style="fill:#7c40ff"/><path d="M478.5,621.55c9.37,6.35,21.17,8.31,32.46,7.62s22.5-3.92,33.48-7.11l28.67-8.35c7.46-2.17,15.65-4.31,22.78-1.22a25.35,25.35,0,0,1,9.15,7.45,50.46,50.46,0,0,1,10.8,23.55l.9,1.38c9.19,44-1.57,89.78-16.87,132-44,121.61-127.09,228.64-233.78,301.29v1.31H149.67v-.21C256.36,1006.63,339.41,899.6,383.45,778c15.3-42.26,26.06-88,16.87-132l-.9-1.38A50.51,50.51,0,0,0,388.62,621a25.45,25.45,0,0,0-9.15-7.45c-7.13-3.09-15.32-1-22.78,1.22L328,623.15c-11,3.19-22.07,6.41-33.48,7.11s-23.1-1.27-32.47-7.61l.17-.25L255,606.9c-5.83-12.49-11.73-25.24-13.44-38.92s1.4-28.71,11.38-38.2c6.82-6.49,16.17-9.78,25.51-10.88s18.79-.18,28.15.75a26.68,26.68,0,0,1,8.37,1.77c5.32,2.42,8.39,8,11.1,13.17l.32-.09c2.26,8.69,1.33,17.94.1,26.88a37.49,37.49,0,0,1-1.43,7c-3.18,9.44-14.28,15.38-23.86,12.77a15.31,15.31,0,0,1-6.06-3.12c-4.13-3.63-5.39-9.5-5.94-15-.38-3.76-.17-8.3,3-10.3,3.49-2.18,7.95.2,11.35,2.52l5.68,3.89.09,0c-2.95-6.13-3.4-13.92-8.74-18.11-2.93-2.3-6.84-3-10.56-3-5.55.06-11.25,1.71-15.33,5.48-4.42,4.08-6.51,10.31-6.36,16.33s2.35,11.86,5.43,17a48,48,0,0,0,24.06,20.48,30.38,30.38,0,0,0,14.43,2c8.54-1.12,16-7.14,20.09-14.75,3.67-6.82,4.84-14.77,4.33-22.53l.38,0c7.2-30.75.52-63.22-10.62-92.77S299.8,412,288.39,382.56c-31.66-81.64-28.95-178.27,16.35-253.15C336,77.69,384.65,39.29,432.47,2.44V.5H648.88v.84c-47.81,36.86-96.43,75.26-127.72,127-45.3,74.88-48,171.51-16.35,253.15,11.41,29.45,26.93,57.17,38.08,86.72s17.82,62,10.62,92.77l-.39,0c.52,7.76-.65,15.71-4.32,22.53-4.09,7.61-11.55,13.63-20.09,14.75a30.5,30.5,0,0,1-14.43-2,48.06,48.06,0,0,1-24.06-20.48c-3.08-5.18-5.29-11-5.43-17s1.94-12.25,6.36-16.33c4.08-3.77,9.78-5.42,15.33-5.49,3.72,0,7.63.66,10.56,3,5.34,4.19,5.79,12,8.74,18.1l-.09,0L520,554.15c-3.4-2.32-7.86-4.7-11.36-2.52-3.19,2-3.4,6.54-3,10.3.55,5.48,1.8,11.35,5.94,15a15.2,15.2,0,0,0,6.06,3.13c9.58,2.61,20.68-3.33,23.86-12.77a38.32,38.32,0,0,0,1.43-7c1.23-8.93,2.16-18.19-.1-26.88l-.32.09c-2.71-5.2-5.78-10.75-11.11-13.17a26.07,26.07,0,0,0-8.36-1.77c-9.36-.93-18.81-1.85-28.15-.75s-18.69,4.39-25.51,10.88c-10,9.49-13.1,24.51-11.38,38.19s7.61,26.43,13.44,38.92l7.23,15.51Z" transform="translate(-0.5 -0.5)" style="fill:#ff7bac"/><path d="M262.07,622.65c9.37,6.34,21.17,8.31,32.47,7.61s22.5-3.92,33.48-7.11l28.67-8.35c7.46-2.17,15.65-4.31,22.78-1.22a25.45,25.45,0,0,1,9.15,7.45,50.51,50.51,0,0,1,10.8,23.55l.9,1.38c9.19,44-1.57,89.78-16.87,132-44,121.6-127.09,228.63-233.78,301.29v.21H4V1077c80.05-72.65,142.36-179.68,175.41-301.29,11.48-42.25,19.55-88,12.65-132l-.67-1.39a59.51,59.51,0,0,0-8.1-23.54c-1.9-3.07-4.13-5.88-6.87-7.45-5.35-3.09-11.49-.95-17.09,1.22l-21.51,8.35c-8.24,3.19-16.56,6.41-25.12,7.11s-17.37-1.28-24.42-7.66l.18-.2q-2.71-7.75-5.42-15.51c-4.37-12.49-8.8-25.24-10.09-38.92S74,537,81.49,527.51a29.75,29.75,0,0,1,19.14-10.88c7-1.1,14.1-.18,21.12.75a15.52,15.52,0,0,1,6.28,1.77c4,2.41,6.3,8,8.33,13.17l.25-.05c1.68,8.68,1,17.91.07,26.84a49.94,49.94,0,0,1-1.08,7c-2.38,9.45-10.71,15.39-17.9,12.77a10.8,10.8,0,0,1-4.55-3.12c-3.1-3.62-4-9.5-4.45-15-.29-3.77-.13-8.3,2.27-10.3,2.62-2.18,6,.19,8.52,2.52l4.26,3.88.08,0c-2.23-6.13-2.56-13.92-6.57-18.11a10.35,10.35,0,0,0-7.93-3,14.91,14.91,0,0,0-11.5,5.49c-3.31,4.08-4.88,10.3-4.77,16.33a44,44,0,0,0,4.08,17c4.13,9.23,10.51,16.73,18,20.48a17.72,17.72,0,0,0,10.82,2c6.42-1.12,12-7.14,15.08-14.75,2.75-6.84,3.63-14.78,3.24-22.54l.29,0c5.41-30.76.4-63.22-8-92.77s-20-57.28-28.57-86.72C84.33,298.65,86.36,202,120.35,127.14,143.76,75.58,180.09,37.26,215.85.5H432.47V2.44c-47.82,36.85-96.44,75.25-127.73,127-45.3,74.88-48,171.51-16.35,253.15,11.41,29.45,26.93,57.17,38.08,86.72s17.82,62,10.62,92.77l-.38,0c.51,7.76-.66,15.71-4.33,22.53-4.09,7.61-11.55,13.63-20.09,14.75a30.38,30.38,0,0,1-14.43-2,48,48,0,0,1-24.06-20.48c-3.08-5.17-5.28-11-5.43-17s1.94-12.25,6.36-16.33c4.08-3.77,9.78-5.42,15.33-5.48,3.72,0,7.63.65,10.56,3,5.34,4.19,5.79,12,8.74,18.11l-.09,0-5.68-3.89c-3.4-2.32-7.86-4.7-11.35-2.52-3.2,2-3.41,6.54-3,10.3.55,5.48,1.81,11.35,5.94,15a15.31,15.31,0,0,0,6.06,3.12c9.58,2.61,20.68-3.33,23.86-12.77a37.49,37.49,0,0,0,1.43-7c1.23-8.94,2.16-18.19-.1-26.88l-.32.09c-2.71-5.2-5.78-10.75-11.1-13.17a26.68,26.68,0,0,0-8.37-1.77c-9.36-.93-18.81-1.85-28.15-.75s-18.69,4.39-25.51,10.88c-10,9.49-13.1,24.51-11.38,38.2s7.61,26.43,13.44,38.92l7.23,15.5Z" transform="translate(-0.5 -0.5)" style="fill:#7c40ff"/><path d="M144.33,559.8c.39,7.76-.49,15.7-3.24,22.54C138,590,132.43,596,126,597.09a17.72,17.72,0,0,1-10.82-2c-7.54-3.75-13.92-11.25-18-20.48a44,44,0,0,1-4.08-17c-.11-6,1.46-12.25,4.77-16.33a14.91,14.91,0,0,1,11.5-5.49,10.35,10.35,0,0,1,7.93,3c4,4.19,4.34,12,6.57,18.11l-.08,0L119.49,553c-2.55-2.33-5.9-4.7-8.52-2.52-2.4,2-2.56,6.53-2.27,10.3.41,5.47,1.35,11.35,4.45,15a10.8,10.8,0,0,0,4.55,3.12c7.19,2.62,15.52-3.32,17.9-12.77a49.94,49.94,0,0,0,1.08-7c.92-8.93,1.61-18.16-.07-26.84l-.25.05c-2-5.2-4.34-10.76-8.33-13.17a15.52,15.52,0,0,0-6.28-1.77c-7-.93-14.11-1.85-21.12-.75a29.75,29.75,0,0,0-19.14,10.88C74,537,71.66,552,73,565.7S78.67,592.13,83,604.62q2.7,7.75,5.42,15.51l-.18.2c7,6.38,15.92,8.35,24.42,7.66s16.88-3.92,25.12-7.11l21.51-8.35c5.6-2.17,11.74-4.31,17.09-1.22,2.74,1.57,5,4.38,6.87,7.45a59.51,59.51,0,0,1,8.1,23.54l.67,1.39c6.9,44-1.17,89.78-12.65,132C146.36,897.33,84.05,1004.36,4,1077v2.49H.5V.5H215.85c-35.76,36.76-72.09,75.08-95.5,126.64-34,74.88-36,171.51-12.27,253.15,8.57,29.44,20.21,57.17,28.57,86.72s13.38,62,8,92.77Z" transform="translate(-0.5 -0.5)" style="fill:#ff7bac"/><path d="M108.37,948l.18,0a16.39,16.39,0,0,1,6-9.94,11.79,11.79,0,0,1,11.19-1.73c4.81,1.93,7.46,7.42,7.45,12.6s-2.2,10.11-4.69,14.64c-3.88,7.07-8.61,13.64-12.58,20.67-3.48,6.17-6.39,12.81-7.4,19.79-1.08-6.8-3.93-13.27-7.32-19.3-4-7-8.69-13.59-12.57-20.65-2.5-4.55-4.69-9.47-4.71-14.65s2.65-10.67,7.46-12.6a11.77,11.77,0,0,1,11.19,1.74A16.21,16.21,0,0,1,108.37,948Z" transform="translate(-0.5 -0.5)" style="fill:#df0045"/><path d="M251.94,948.09l.18,0a16.32,16.32,0,0,1,5.94-9.93,11.77,11.77,0,0,1,11.19-1.74c4.82,1.94,7.47,7.42,7.46,12.6s-2.2,10.11-4.7,14.64c-3.88,7.07-8.6,13.64-12.57,20.67-3.48,6.18-6.41,12.84-7.41,19.83-1.05-6.81-3.92-13.3-7.32-19.33-4-7-8.68-13.59-12.57-20.66-2.5-4.55-4.68-9.46-4.7-14.65s2.65-10.67,7.46-12.6a11.77,11.77,0,0,1,11.19,1.74A16.21,16.21,0,0,1,251.94,948.09Z" transform="translate(-0.5 -0.5)" style="fill:#df0045"/><path d="M396.3,947.67l.18,0a16.27,16.27,0,0,1,5.94-9.93A11.8,11.8,0,0,1,413.61,936c4.81,1.93,7.47,7.42,7.45,12.6s-2.19,10.11-4.69,14.65c-3.88,7.06-8.6,13.64-12.57,20.66-3.48,6.17-6.41,12.83-7.41,19.82-1.06-6.8-3.92-13.29-7.32-19.32-4-7-8.69-13.6-12.57-20.66-2.49-4.55-4.68-9.47-4.7-14.65s2.65-10.66,7.45-12.6a11.81,11.81,0,0,1,11.2,1.74A16.23,16.23,0,0,1,396.3,947.67Z" transform="translate(-0.5 -0.5)" style="fill:#df0045"/><path d="M539.86,947.74l.19,0a16.22,16.22,0,0,1,5.94-9.94A11.79,11.79,0,0,1,557.18,936c4.81,1.94,7.46,7.42,7.45,12.61s-2.19,10.1-4.69,14.64c-3.89,7.06-8.6,13.64-12.57,20.66-3.49,6.18-6.41,12.84-7.41,19.83-1.05-6.81-3.92-13.3-7.32-19.33-4-7-8.69-13.59-12.58-20.66-2.49-4.55-4.68-9.47-4.69-14.65s2.64-10.66,7.45-12.6a11.81,11.81,0,0,1,11.2,1.74A16.22,16.22,0,0,1,539.86,947.74Z" transform="translate(-0.5 -0.5)" style="fill:#df0045"/><path d="M683.38,948l.18,0A16.34,16.34,0,0,1,689.5,938a11.79,11.79,0,0,1,11.2-1.73c4.81,1.93,7.46,7.42,7.45,12.59S706,959,703.46,963.51c-3.89,7.06-8.61,13.64-12.57,20.66-3.49,6.18-6.41,12.84-7.41,19.83-1.06-6.8-3.92-13.29-7.33-19.33-4-7-8.68-13.59-12.57-20.66-2.49-4.54-4.68-9.46-4.69-14.64s2.64-10.67,7.45-12.61a11.79,11.79,0,0,1,11.2,1.75A16.11,16.11,0,0,1,683.38,948Z" transform="translate(-0.5 -0.5)" style="fill:#df0045"/><path d="M827,948.05l.17,0a16.43,16.43,0,0,1,6-9.94,11.78,11.78,0,0,1,11.2-1.73c4.8,1.93,7.46,7.42,7.45,12.59s-2.2,10.11-4.7,14.65c-3.88,7.07-8.61,13.64-12.56,20.67-3.49,6.17-6.41,12.83-7.41,19.82-1.07-6.81-3.93-13.29-7.33-19.33-4-7-8.69-13.59-12.57-20.66-2.49-4.54-4.68-9.46-4.69-14.64s2.64-10.67,7.44-12.61a11.84,11.84,0,0,1,11.21,1.75A16.24,16.24,0,0,1,827,948.05Z" transform="translate(-0.5 -0.5)" style="fill:#df0045"/><path d="M971.3,947.63l.18,0a16.35,16.35,0,0,1,5.95-9.93,11.79,11.79,0,0,1,11.2-1.74c4.8,1.93,7.46,7.42,7.45,12.6s-2.2,10.1-4.69,14.65c-3.89,7.06-8.62,13.64-12.58,20.65-3.48,6.18-6.41,12.84-7.4,19.83-1.06-6.8-3.93-13.29-7.33-19.32-4-7-8.68-13.6-12.57-20.67-2.5-4.54-4.68-9.46-4.69-14.64s2.64-10.67,7.45-12.6a11.81,11.81,0,0,1,11.2,1.73A16.18,16.18,0,0,1,971.3,947.63Z" transform="translate(-0.5 -0.5)" style="fill:#df0045"/><path d="M1114.87,947.7l.18-.05a16.31,16.31,0,0,1,6-9.93,11.78,11.78,0,0,1,11.2-1.74c4.8,1.93,7.46,7.42,7.44,12.6s-2.2,10.1-4.69,14.65c-3.88,7.06-8.61,13.64-12.57,20.66-3.48,6.16-6.4,12.81-7.41,19.8-1.07-6.81-3.93-13.28-7.33-19.3-4-7-8.68-13.6-12.56-20.67-2.5-4.54-4.69-9.46-4.7-14.64s2.65-10.66,7.45-12.6a11.79,11.79,0,0,1,11.2,1.74A16.18,16.18,0,0,1,1114.87,947.7Z" transform="translate(-0.5 -0.5)" style="fill:#df0045"/><path d="M1259.35,949.37l.18,0a16.36,16.36,0,0,1,6-9.94,11.81,11.81,0,0,1,11.2-1.73c4.8,1.93,7.46,7.42,7.44,12.6s-2.19,10.1-4.69,14.65c-3.88,7.06-8.61,13.64-12.57,20.65-3.48,6.18-6.4,12.84-7.41,19.83-1.06-6.8-3.93-13.29-7.33-19.32-3.95-7-8.68-13.6-12.56-20.67-2.5-4.54-4.68-9.46-4.7-14.64s2.65-10.66,7.45-12.6a11.78,11.78,0,0,1,11.2,1.74A16.14,16.14,0,0,1,1259.35,949.37Z" transform="translate(-0.5 -0.5)" style="fill:#df0045"/><path d="M1402.91,949.44l.19-.05a16.37,16.37,0,0,1,5.94-9.94,11.84,11.84,0,0,1,11.2-1.73c4.81,1.93,7.46,7.42,7.45,12.6S1425.5,960.43,1423,965c-3.89,7.06-8.61,13.64-12.57,20.66-3.49,6.17-6.41,12.83-7.41,19.82-1.06-6.81-3.93-13.29-7.33-19.32-4-7-8.68-13.6-12.57-20.67-2.49-4.54-4.68-9.46-4.69-14.64s2.64-10.66,7.45-12.6a11.81,11.81,0,0,1,11.2,1.74A16.15,16.15,0,0,1,1402.91,949.44Z" transform="translate(-0.5 -0.5)" style="fill:#df0045"/><path d="M1547.28,949l.18,0a16.39,16.39,0,0,1,5.94-9.94,11.79,11.79,0,0,1,11.2-1.74c4.81,1.93,7.47,7.42,7.45,12.6s-2.2,10.1-4.69,14.65c-3.89,7.06-8.61,13.64-12.58,20.66-3.47,6.18-6.41,12.83-7.41,19.82-1-6.8-3.92-13.28-7.32-19.32-4-7-8.68-13.6-12.56-20.66-2.51-4.54-4.69-9.47-4.7-14.64s2.65-10.67,7.45-12.61a11.81,11.81,0,0,1,11.2,1.74A16.22,16.22,0,0,1,1547.28,949Z" transform="translate(-0.5 -0.5)" style="fill:#df0045"/><path d="M1690.84,949.08l.18,0a16.4,16.4,0,0,1,6-9.94,11.79,11.79,0,0,1,11.2-1.74c4.81,1.93,7.46,7.42,7.45,12.6s-2.2,10.11-4.69,14.65c-3.89,7.07-8.62,13.64-12.58,20.67-3.48,6.17-6.41,12.82-7.41,19.82-1.06-6.82-3.93-13.29-7.32-19.33-4-7-8.68-13.6-12.57-20.66-2.5-4.54-4.69-9.47-4.69-14.64s2.64-10.67,7.45-12.61A11.79,11.79,0,0,1,1685,939.6,16.12,16.12,0,0,1,1690.84,949.08Z" transform="translate(-0.5 -0.5)" style="fill:#df0045"/><path d="M1837.47,946.71l.18-.05a16.4,16.4,0,0,1,5.95-9.94,11.79,11.79,0,0,1,11.19-1.73c4.81,1.93,7.46,7.42,7.46,12.6s-2.21,10.11-4.7,14.65c-3.88,7.06-8.61,13.64-12.57,20.66-3.48,6.17-6.41,12.83-7.41,19.82-1.06-6.8-3.92-13.29-7.32-19.32-4-7-8.69-13.6-12.57-20.67-2.5-4.54-4.69-9.46-4.7-14.64s2.64-10.66,7.46-12.6a11.8,11.8,0,0,1,11.19,1.74A16.14,16.14,0,0,1,1837.47,946.71Z" transform="translate(-0.5 -0.5)" style="fill:#df0045"/><path d="M108.23,83.66l.19,0a16.32,16.32,0,0,1,5.94-9.93,11.81,11.81,0,0,1,11.2-1.74c4.81,1.94,7.46,7.42,7.45,12.61s-2.2,10.1-4.69,14.64c-3.89,7.06-8.62,13.64-12.57,20.66-3.49,6.18-6.41,12.84-7.41,19.82-1.06-6.81-3.93-13.29-7.33-19.32-4-7-8.68-13.59-12.57-20.66-2.5-4.55-4.68-9.47-4.69-14.65s2.64-10.67,7.45-12.6a11.79,11.79,0,0,1,11.2,1.74A16.2,16.2,0,0,1,108.23,83.66Z" transform="translate(-0.5 -0.5)" style="fill:#df0045"/><path d="M251.8,83.73l.18,0a16.41,16.41,0,0,1,6-9.93A11.81,11.81,0,0,1,269.13,72c4.8,1.94,7.46,7.43,7.45,12.61s-2.21,10.1-4.7,14.64c-3.88,7.06-8.61,13.64-12.56,20.66-3.49,6.18-6.41,12.84-7.41,19.83-1.06-6.81-3.93-13.3-7.33-19.32-4-7-8.69-13.6-12.57-20.67-2.5-4.54-4.68-9.46-4.69-14.65s2.64-10.67,7.44-12.6A11.79,11.79,0,0,1,246,74.25,16.2,16.2,0,0,1,251.8,83.73Z" transform="translate(-0.5 -0.5)" style="fill:#df0045"/><path d="M396.16,83.3l.18,0a16.4,16.4,0,0,1,6-9.94,11.8,11.8,0,0,1,11.19-1.74c4.81,1.93,7.47,7.42,7.46,12.61s-2.2,10.1-4.7,14.64c-3.88,7.07-8.61,13.64-12.57,20.66-3.48,6.18-6.41,12.84-7.41,19.82-1.06-6.81-3.93-13.29-7.32-19.32-4-7-8.68-13.6-12.57-20.66-2.5-4.54-4.69-9.47-4.7-14.65s2.65-10.66,7.46-12.59a11.76,11.76,0,0,1,11.19,1.73A16.25,16.25,0,0,1,396.16,83.3Z" transform="translate(-0.5 -0.5)" style="fill:#df0045"/><path d="M539.73,83.37l.18,0a16.31,16.31,0,0,1,6-9.93,11.77,11.77,0,0,1,11.19-1.75c4.81,1.94,7.47,7.42,7.45,12.61s-2.2,10.1-4.69,14.64c-3.88,7.07-8.61,13.64-12.58,20.66-3.47,6.18-6.39,12.82-7.4,19.8-1.07-6.8-3.93-13.27-7.33-19.29-4-7-8.68-13.6-12.56-20.67-2.5-4.53-4.69-9.46-4.7-14.65s2.65-10.66,7.45-12.59a11.76,11.76,0,0,1,11.19,1.73A16.26,16.26,0,0,1,539.73,83.37Z" transform="translate(-0.5 -0.5)" style="fill:#df0045"/><path d="M683.25,83.62l.18-.05a16.36,16.36,0,0,1,6-9.94,11.76,11.76,0,0,1,11.19-1.73c4.81,1.93,7.46,7.42,7.45,12.6s-2.2,10.11-4.7,14.65c-3.88,7.06-8.6,13.64-12.57,20.66-3.48,6.16-6.39,12.8-7.4,19.79-1.08-6.8-3.93-13.27-7.33-19.29-4-7-8.69-13.6-12.57-20.67-2.49-4.54-4.68-9.46-4.7-14.64s2.65-10.67,7.46-12.61a11.77,11.77,0,0,1,11.19,1.75A16.2,16.2,0,0,1,683.25,83.62Z" transform="translate(-0.5 -0.5)" style="fill:#df0045"/><path d="M826.81,83.69l.19,0a16.33,16.33,0,0,1,5.94-9.94A11.8,11.8,0,0,1,844.13,72c4.81,1.93,7.47,7.42,7.46,12.6s-2.2,10.11-4.7,14.65c-3.89,7.06-8.6,13.64-12.57,20.66-3.48,6.18-6.41,12.83-7.41,19.82-1.06-6.81-3.92-13.29-7.32-19.32-4-7-8.69-13.6-12.57-20.66-2.5-4.55-4.68-9.47-4.7-14.65s2.64-10.67,7.46-12.6A11.77,11.77,0,0,1,821,74.21,16.17,16.17,0,0,1,826.81,83.69Z" transform="translate(-0.5 -0.5)" style="fill:#df0045"/><path d="M971.18,83.26l.17,0a16.39,16.39,0,0,1,5.94-9.94,11.8,11.8,0,0,1,11.2-1.74c4.81,1.93,7.47,7.42,7.45,12.6s-2.19,10.1-4.69,14.65c-3.88,7.07-8.61,13.64-12.57,20.66-3.48,6.18-6.41,12.83-7.41,19.82-1.06-6.8-3.92-13.29-7.33-19.32-4-7-8.68-13.6-12.56-20.67-2.49-4.53-4.68-9.46-4.7-14.64S949.33,74,954.13,72a11.78,11.78,0,0,1,11.2,1.74A16.23,16.23,0,0,1,971.18,83.26Z" transform="translate(-0.5 -0.5)" style="fill:#df0045"/><path d="M1114.74,83.33l.18,0a16.34,16.34,0,0,1,5.94-9.94,11.82,11.82,0,0,1,11.2-1.74c4.81,1.93,7.46,7.42,7.45,12.6s-2.19,10.11-4.69,14.65c-3.89,7.07-8.61,13.64-12.57,20.66-3.49,6.18-6.41,12.83-7.41,19.82-1.06-6.81-3.93-13.29-7.33-19.32-4-7-8.68-13.6-12.57-20.67-2.49-4.53-4.68-9.46-4.69-14.64s2.64-10.66,7.45-12.6a11.81,11.81,0,0,1,11.2,1.74A16.25,16.25,0,0,1,1114.74,83.33Z" transform="translate(-0.5 -0.5)" style="fill:#df0045"/><path d="M1259.22,85l.18,0a16.36,16.36,0,0,1,5.95-9.94,11.77,11.77,0,0,1,11.19-1.74c4.81,1.93,7.46,7.42,7.45,12.6s-2.19,10.11-4.69,14.65c-3.89,7.07-8.61,13.64-12.57,20.66-3.49,6.17-6.41,12.83-7.41,19.82-1.06-6.8-3.92-13.29-7.32-19.32-4-7-8.69-13.6-12.58-20.67-2.49-4.53-4.68-9.46-4.69-14.64s2.64-10.66,7.45-12.6a11.81,11.81,0,0,1,11.2,1.74A16.17,16.17,0,0,1,1259.22,85Z" transform="translate(-0.5 -0.5)" style="fill:#df0045"/><path d="M1402.79,85.07l.18,0a16.31,16.31,0,0,1,6-9.94,11.79,11.79,0,0,1,11.19-1.74c4.8,1.93,7.46,7.42,7.45,12.61s-2.2,10.1-4.7,14.64c-3.88,7.07-8.6,13.64-12.57,20.66-3.48,6.17-6.39,12.82-7.4,19.8-1.08-6.81-3.93-13.27-7.32-19.3-4-7-8.7-13.6-12.58-20.66-2.49-4.54-4.68-9.47-4.7-14.65s2.65-10.66,7.46-12.59a11.76,11.76,0,0,1,11.19,1.73A16.26,16.26,0,0,1,1402.79,85.07Z" transform="translate(-0.5 -0.5)" style="fill:#df0045"/><path d="M1547.15,84.64l.17,0a16.4,16.4,0,0,1,6-9.94,11.78,11.78,0,0,1,11.2-1.73c4.8,1.93,7.46,7.41,7.45,12.59s-2.2,10.11-4.7,14.65c-3.88,7.07-8.61,13.64-12.56,20.67-3.49,6.17-6.41,12.83-7.41,19.82-1.06-6.81-3.93-13.29-7.33-19.33-4-7-8.69-13.59-12.57-20.66-2.49-4.54-4.68-9.46-4.69-14.64s2.64-10.67,7.45-12.61a11.82,11.82,0,0,1,11.2,1.74A16.17,16.17,0,0,1,1547.15,84.64Z" transform="translate(-0.5 -0.5)" style="fill:#df0045"/><path d="M1690.71,84.71l.18,0a16.42,16.42,0,0,1,5.94-9.94A11.83,11.83,0,0,1,1708,73c4.8,1.93,7.46,7.41,7.44,12.59s-2.19,10.11-4.69,14.65c-3.88,7.07-8.61,13.64-12.57,20.67-3.48,6.17-6.4,12.83-7.41,19.82-1.06-6.81-3.92-13.29-7.33-19.33-4-7-8.68-13.59-12.56-20.65-2.49-4.55-4.68-9.47-4.7-14.65s2.65-10.67,7.45-12.61a11.84,11.84,0,0,1,11.2,1.74A16.25,16.25,0,0,1,1690.71,84.71Z" transform="translate(-0.5 -0.5)" style="fill:#df0045"/><path d="M1837.34,82.34l.18,0a16.32,16.32,0,0,1,5.94-9.94,11.81,11.81,0,0,1,11.2-1.74c4.81,1.93,7.47,7.42,7.45,12.6s-2.2,10.11-4.69,14.65c-3.89,7.07-8.61,13.64-12.57,20.66-3.48,6.17-6.41,12.83-7.41,19.82-1.06-6.8-3.93-13.29-7.33-19.32-4-7-8.68-13.6-12.57-20.66-2.5-4.54-4.68-9.47-4.69-14.65s2.64-10.66,7.45-12.6a11.82,11.82,0,0,1,11.2,1.74A16.25,16.25,0,0,1,1837.34,82.34Z" transform="translate(-0.5 -0.5)" style="fill:#df0045"/></svg>