<svg id="Layer_2" data-name="Layer 2" xmlns="http://www.w3.org/2000/svg" viewBox="0 0 462.14 841.53"><defs><style>.cls-1{fill:#df0045;}.cls-2{fill:#f9b233;}.cls-3{fill:#c68b7a;}.cls-4{fill:#ebc2b0;}.cls-5{fill:#c12402;}.cls-6{fill:#fff;}.cls-7{fill:#ff7bac;}.cls-8{fill:#f3b7b9;}.cls-9{fill:#f85e9b;}.cls-10{fill:#84226f;}.cls-11{fill:#ce0079;}.cls-12{fill:#e9964e;}.cls-13{font-size:16.76px;font-family:FuturaBT-ExtraBlackCondItalic, Futura XBlkCnIt BT;font-weight:900;font-style:italic;}</style></defs><path class="cls-1" d="M1071.09,831.2l-.07-1.08a87,87,0,0,0-4.13-18.58l-.15.18c-.08-.13-.14-.25-.21-.37l-.14.26c0,.12,0,.24,0,.37a44.3,44.3,0,0,1-9.54,25.8,26.5,26.5,0,0,1-9.08,7.67,15,15,0,0,1-11.62.84,8.29,8.29,0,0,1-3.67-2.54,10.34,10.34,0,0,1-1.63-3.79,34.35,34.35,0,0,1,.74-18.37c1.62-5.28,4.51-10.43,9.17-13.4,4.47-2.84,10.77-3.17,14.89.07l.35.13c-2-3.37-6-5.28-9.91-5.55s-8.08.92-11.83,2.48c-4.85,2-9.63,4.83-12.43,9.27a30.53,30.53,0,0,0-3.11,7.51q-1.74,5.65-3.25,11.38l.51.43c-1.44,9.58-4.35,18.86-7.25,28.1a47.29,47.29,0,0,1-4.37,10.75,37.27,37.27,0,0,1-6.16,7.23c-5.5,5.25-11.79,9.85-18.92,12.51s-15.22,3.23-22.37.62a13,13,0,0,1-3.85-2.07,12.15,12.15,0,0,1-2.93-4,28.94,28.94,0,0,1-2.52-13.42,44.74,44.74,0,0,1,10.51-27.51c3.07-3.61,7-6.85,11.65-7.66a7.44,7.44,0,0,1,4.57.44c1.88.94,3,2.91,3.85,4.83a40.7,40.7,0,0,1,3.37,18.79,9.73,9.73,0,0,0,.65.79v.26a1.9,1.9,0,0,0,.85-1.73,2.55,2.55,0,0,0,0-.39c.14-5.18.27-10.47-1.25-15.44l.1-.27a76.32,76.32,0,0,0-2.15-10,11.67,11.67,0,0,0-2-4.29c-1.92-2.3-5.33-2.92-8.24-2.2a19.44,19.44,0,0,0-7.69,4.5,75.59,75.59,0,0,0-10.26,10.75c-5.76,7.3-10.48,15.66-17.93,21.22-7,5.27-16,7.53-24.76,7.93s-17.55-1-26.24-2.34l-.08.32a7.28,7.28,0,0,1-6-3,16.43,16.43,0,0,1-2.75-6.37,47.55,47.55,0,0,1,4-33.06,29.89,29.89,0,0,1,7.63-9.71,21.46,21.46,0,0,1,28.16,1.43c-1.92-5.9-7.32-10-12.56-13.41a23.16,23.16,0,0,0-6.26-3.15,20.4,20.4,0,0,0-8.42-.14,62.11,62.11,0,0,0-25.13,9.61l0,.19c-5.09,5.17-10.29,10.44-16.72,13.81A61.15,61.15,0,0,1,833.64,832c-4.78,1.45-9.78,2.78-14.7,2-6.1-1-11.37-5.25-14.41-10.63s-4-11.75-3.61-17.9c.48-7.46,3.09-15.1,8.69-20,5.45-4.82,14.11-6.34,20.18-2.42a15.24,15.24,0,0,0-7.95-9.82,27.78,27.78,0,0,0-13.26-2.75,49.84,49.84,0,0,0-40,21.16l-.19.5c-7.31,9-12.94,19.25-19.83,28.58s-15.42,18-26.29,22l-.18-.29a102.93,102.93,0,0,1-16.34,3.24c-1.08.13-2.39.13-3.11-.62a35.87,35.87,0,0,0,6,16.17l-.32.85c10.33,12.33,23.58,22,37.74,29.64s29.45,13.49,44.71,18.94l0-.14c6.46,3.51,13.89,4.66,21.17,5.76,16.23,2.45,32.49,4.9,48.87,5.87v.08c28.68-.35,57.46.64,85.92-2.87,4.92-.61,10.13-1.49,13.95-4.56l.05.2a365.53,365.53,0,0,0,90.22-54.25l.29-.33a114.07,114.07,0,0,0,18.3-15.68,9.87,9.87,0,0,0,2.19-3,9.46,9.46,0,0,0,.3-4.46A60.34,60.34,0,0,0,1071.09,831.2Z" transform="translate(-702.4 -80.62)"/><path class="cls-2" d="M1015.45,833.48q1.5-5.73,3.25-11.38a30.53,30.53,0,0,1,3.11-7.51c2.8-4.44,7.58-7.25,12.43-9.27,3.75-1.56,7.77-2.77,11.83-2.48s7.9,2.18,9.91,5.55a7.43,7.43,0,0,1,1,.43l0-.17a17.33,17.33,0,0,0-16.09-10.57,24,24,0,0,0-6.7,1.27,41.16,41.16,0,0,0-18.25,12.09l.14.39c-4.84,5.6-5.43,13.58-6.14,20.95-.87,9.06-2.3,18.19-5.77,26.62s-9.15,16.16-17,20.75a37.67,37.67,0,0,1-14.85,4.72c-5.09.55-10.85-.07-14.27-3.9-2.37-2.65-3.15-6.43-2.89-10a39.91,39.91,0,0,1,2.68-10.3l2.91-8.13c.73-2.06,1.53-4.21,3.17-5.64,2.5-2.17,6.2-2.1,9.46-1.56a6.59,6.59,0,0,1,2.84,1,6.37,6.37,0,0,1,2.13,4c.85,4.14.81,8.79,3.24,12.13a40.7,40.7,0,0,0-3.37-18.79c-.85-1.92-2-3.89-3.85-4.83a7.44,7.44,0,0,0-4.57-.44c-4.68.81-8.58,4-11.65,7.66a44.74,44.74,0,0,0-10.51,27.51A28.94,28.94,0,0,0,950.11,887a12.15,12.15,0,0,0,2.93,4,13,13,0,0,0,3.85,2.07c7.15,2.61,15.22,2,22.37-.62s13.42-7.26,18.92-12.51a37.27,37.27,0,0,0,6.16-7.23,47.29,47.29,0,0,0,4.37-10.75c2.9-9.24,5.81-18.52,7.25-28.1Z" transform="translate(-702.4 -80.62)"/><path class="cls-3" d="M810,556.15v-.38a7.31,7.31,0,0,0,2.1-2.39,20.5,20.5,0,0,0,2.19-7.51,78,78,0,0,0,.43-8.41h0c-.54-4.42-2.65-7.92-5-9.61s-5.25-1.85-7.94-1.64a7,7,0,0,0-4.21,1.42c-2.13,1.79-3.45,5.61-4.52,9.34-1.58,5.53-2.85,12.38-1.05,17.69a15,15,0,0,0,4.13,6.09,48.48,48.48,0,0,0,6.1,5c2.87,2,5.86,3.54,8.45,6.46a21.17,21.17,0,0,1,5,13,26.2,26.2,0,0,1-2,10.83,39.56,39.56,0,0,1-4.7,8c-2.57,3.6-5.37,7.1-8.56,8.21,2.56-3.67,5.08-8,5.84-13.66a31.4,31.4,0,0,0-2.81-17,38.52,38.52,0,0,0-8.28-10.92,32.65,32.65,0,0,1-4.67-5.33c-3.22-4.9-4.89-12.54-5-20.07a72.6,72.6,0,0,1,3.19-21.62,14.91,14.91,0,0,1,2.2-5,6,6,0,0,1,3.49-1.87c2.68-.65,5.38-1.19,8.08-1.6,3.49-.52,7.08-.82,10.42,1s6.45,6.24,7.31,12.28c.13,1,.21,1.91.29,2.87.21,2.64.43,5.29.64,7.93a79.77,79.77,0,0,1,.38,8.19,14.19,14.19,0,0,1-.61,4.36,5.8,5.8,0,0,1-2.78,3.26C815.49,556.57,812.69,556.37,810,556.15Zm162.81,5.71a81.65,81.65,0,0,1-.21,8.85h-.09c-.15,5.42-.44,11-3,15.8-2.9,5.51-8.33,9.12-12.84,13.41a51.69,51.69,0,0,0-9.84,12.83l-.06-.12c-12.17,16.55-31.75,27.18-41.44,45.3l-.47.12c-7.36,6.33-10.05,16.4-12.36,25.82-1.34,5.47-2.68,11.24-1.11,16.65.27.94.61,2,.06,2.83s-2.27.31-1.87-.58l.11-.66a21.45,21.45,0,0,1-2.41-8.45,55.9,55.9,0,0,1,12.58-41.74l-.19-.48a113.82,113.82,0,0,1,34.62-39.38l.35-.12q14.7-15,29-30.37c4.13-6,8.19-12.44,9.08-19.69ZM829.83,409.92c3.19,1.12,6,4.61,8.56,8.21a38.92,38.92,0,0,1,4.7,8,26.16,26.16,0,0,1,2,10.82,21.22,21.22,0,0,1-5,13c-2.6,2.92-5.59,4.49-8.45,6.46a48,48,0,0,0-6.11,5.05,15,15,0,0,0-4.13,6.08c-1.8,5.32-.53,12.17,1,17.7,1.07,3.73,2.39,7.55,4.52,9.33a6.89,6.89,0,0,0,4.21,1.42c2.68.22,5.45.12,7.94-1.64s4.49-5.19,5-9.6a78.21,78.21,0,0,0-.43-8.42,20.69,20.69,0,0,0-2.19-7.51,7.21,7.21,0,0,0-2.1-2.39v-.4c2.73-.21,5.54-.41,8.16,1a5.76,5.76,0,0,1,2.78,3.26,14.5,14.5,0,0,1,.61,4.36,80,80,0,0,1-.38,8.2c-.21,2.64-.43,5.27-.64,7.92-.08,1-.16,1.93-.29,2.87-.86,6-4,10.44-7.31,12.28s-6.93,1.55-10.42,1q-4.05-.61-8.08-1.6a5.9,5.9,0,0,1-3.49-1.87,14.82,14.82,0,0,1-2.2-5,72.93,72.93,0,0,1-3.19-21.62c.11-7.53,1.78-15.16,5-20.07a32.18,32.18,0,0,1,4.67-5.33,38.42,38.42,0,0,0,8.28-10.91,31.33,31.33,0,0,0,2.81-17C834.91,417.92,832.39,413.6,829.83,409.92Zm-38,21-.21.32c-2.88,6.8-6.24,13.41-9.13,20.21-7,16.41-11.25,33.83-15.47,51.17l-.19-.14a268.73,268.73,0,0,0-10.87,32.69c-3.57,13.56-6.08,27.38-8.42,41.21l0,0a30.36,30.36,0,0,0-.43,5.21,5,5,0,0,1-.54,2.75l.08.18c-3.9,5.58-4.95,12.61-5.89,19.36q-.88,6.38-1.78,12.77a11.22,11.22,0,0,1-1.19,4.23,85.51,85.51,0,0,1,.53-21.68c.56-3.74,1.48-7.65,4.08-10.41a11.61,11.61,0,0,0,2.55-3l0-.19a4.57,4.57,0,0,1-2.36.12,23.91,23.91,0,0,1-6-1.63,11.16,11.16,0,0,1-4.8-3.86l0-.14a.68.68,0,0,1-.12-.12c0,.12-.05.25-.08.37l-.4,1.85.29.19c1.13,5.19-.61,10.52-2,15.65A122.2,122.2,0,0,0,725.27,630H725c.19,15,.44,30.23,4.91,44.53a40.67,40.67,0,0,0,6.7,13.52,45.76,45.76,0,0,0,9.69,8.5,56.34,56.34,0,0,0,13.29,7.27,1.39,1.39,0,0,1,.06-.19l.27-.11c7,1.34,14.61,2.62,21-.64a28.75,28.75,0,0,0,5.89-4.35,142.41,142.41,0,0,0,33.7-45l-.12-.31c14.33-17.87,21.27-40.37,31.11-61.06,5.51-11.55,12-22.79,15.22-35.15l-.12-.09c4.79-24.51,14.64-47.73,21.06-71.86l-.41-.28q1.18-7.74,2.36-15.48a41.35,41.35,0,0,0,.69-10h.06a5.2,5.2,0,0,1,2.57,3.54,15.39,15.39,0,0,1,.21,4.5q-.57,11.15-1.13,22.32a215.07,215.07,0,0,0-12.81,43.24l0,1.81a468.55,468.55,0,0,1-17.45,46.12l.22.3a525.23,525.23,0,0,1-30.52,62.09l.14.27q-12.91,21-25.8,41.92l-.2.39q-10.93,9.33-21.86,18.69a12.67,12.67,0,0,1-3.2,2.2,12.19,12.19,0,0,1-4.85.65,165.64,165.64,0,0,1-17-1c-.09.22-.18.44-.28.66l.12.16c1.38,3.89-1.43,7.88-3.91,11.18a122.44,122.44,0,0,0-17.26,31.88l.16.29-2.84,5.1-2.5,4.46c-4.5,8.07-9,16.18-12.3,24.83h-.15c-6.47,18.09-12.4,36.54-14.67,55.62a5,5,0,0,1-.8,2.18A114.58,114.58,0,0,0,750,796.81l.07.13c7.05-10,15.89-18.88,26.53-24.93s23.13-9.13,35.25-7.51a30.27,30.27,0,0,1,8.68,2.35,22.26,22.26,0,0,1,12.34,22.49l-.06.06a8.93,8.93,0,0,0-2.78-4.27,9.47,9.47,0,0,0-8.18-2.23,14.33,14.33,0,0,0-4.76,2.28,20.69,20.69,0,0,0-7.62,8.66c-1.52,3.52-1.68,7.46-1.65,11.29,0,4,.3,8.25,2.17,11.85,3.1,5.94,10,9,16.71,9.69a22.09,22.09,0,0,0,10.67-1.22,27.57,27.57,0,0,0,7.32-4.89c5.69-4.92,10.83-10.47,16.82-15s13.1-8.08,20.61-8.09l0,.2c9-2.3,18.74.94,25.83,6.89a22.77,22.77,0,0,1,4.84,5.39,22.15,22.15,0,0,1,2.59,6.87,37.33,37.33,0,0,1,.48,13.45l-.3-.13-5-7a14.69,14.69,0,0,0-3.33-3.65c-2.6-1.82-6.09-1.78-9.17-1a23.85,23.85,0,0,0-7.32,43.29,33.83,33.83,0,0,0,11.75,4.36,30.59,30.59,0,0,0,12.42.25c5.17-1.14,9.68-4.21,14-7.27,5.3-3.77,10.59-7.66,14.88-12.54,2.44-2.76,4.53-5.81,6.74-8.76a125.93,125.93,0,0,1,9.82-11.56c2.61-2.72,5.84-5.51,9.6-5.25l.26-.13a27.66,27.66,0,0,1,12.84,41,1.9,1.9,0,0,1-.85,1.73v-.26a9.73,9.73,0,0,1-.65-.79c-2.43-3.34-2.39-8-3.24-12.13a6.37,6.37,0,0,0-2.13-4,6.59,6.59,0,0,0-2.84-1c-3.26-.54-7-.61-9.46,1.56-1.64,1.43-2.44,3.58-3.17,5.64l-2.91,8.13a39.91,39.91,0,0,0-2.68,10.3c-.26,3.55.52,7.33,2.89,10,3.42,3.83,9.18,4.45,14.27,3.9a37.67,37.67,0,0,0,14.85-4.72c7.88-4.59,13.57-12.33,17-20.75s4.9-17.56,5.77-26.62c.71-7.37,1.3-15.35,6.14-20.95l-.14-.39a41.16,41.16,0,0,1,18.25-12.09,24,24,0,0,1,6.7-1.27A17.33,17.33,0,0,1,1057,808.65l0,.17a7.43,7.43,0,0,0-1-.43l.19.33-.54-.46c-4.74-1.6-10.43.52-13.77,4.37-3.73,4.29-5,10.18-5.31,15.86-.2,4.26.56,9.28,4.29,11.36,3.9,2.16,8.81-.17,12.12-3.17a31.57,31.57,0,0,0,9.55-16.56c.65-3,1.11-6.51,3.71-8.16l.15,0c0-.13,0-.25,0-.37l.14-.26c-2.47-4.33-5-8.67-8.43-12.3-3.09-3.29-6.82-5.92-9.95-9.17s-5.69-7.31-5.71-11.77a286.21,286.21,0,0,1-71.74,10.17c.86.76,1.7,1.54,2.51,2.35,10.7,10.67,16.49,25.39,19.53,40.19l0,.43a5.73,5.73,0,0,1-3.95-.64c-2.14-1.26-3.15-3.71-3.93-6.11l-.07.08a103.54,103.54,0,0,0-10.69-21.13,48.65,48.65,0,0,0-5.35-6.93,76,76,0,0,0-9.95-8.17,220.72,220.72,0,0,1-20.92-17.71l.14-.66a200.28,200.28,0,0,1,20.29,9.64A287.88,287.88,0,0,0,994,769.34a230.87,230.87,0,0,0,25.48-11c-6.07-.55-11.57-4-16.51-7.59s-9.88-7.78-15.71-9.89h0v-.06l-10.11-4.13c-1.48-.59-3-1.2-4.4-1.9-4.66-2.26-8.83-5.47-13.51-7.69-3.63-1.72-7.52-2.82-11.26-4.29a45.88,45.88,0,0,1-16.76-11,31.49,31.49,0,0,1-8.56-17.71l-.12,0c-3.77-7.8-3.13-17.17-.14-25.3s8.09-15.29,13.2-22.29l-.34-.9a161.52,161.52,0,0,0,11.94-16c1.23-1.86,2.41-3.75,3.56-5.67,3.76-6.26,7.13-12.83,11.91-18.35a91.23,91.23,0,0,1,10.57-9.84l10-8.37c2-1.68,4.45-3.47,7-3l.58-.38.59-.18c-2.88-28.41-13.82-55.89-18.23-84.3-4.08-26.2-2.57-52.92-1-79.4l-.26,0q-.37-35.07.72-70.15l-.35,0-.64.34a16.86,16.86,0,0,1-13,.9l-.74.54a173.94,173.94,0,0,1-41.76-16,38.49,38.49,0,0,0-6.6-3.1c-5.84-1.83-12.13-.45-18.24-.62-7.31.87-14.6-1.82-22-2.09-8.78-.31-17.46,2.9-24.6,8s-12.8,12.07-17.38,19.57l-.14.21c-6.68,8.22-10.25,18.52-16,27.41l-.41.12A133.51,133.51,0,0,1,791.8,430.94Zm152.7,72.34H897.65l23.43-40.58Z" transform="translate(-702.4 -80.62)"/><path class="cls-2" d="M861.23,813.83a62.11,62.11,0,0,1,25.13-9.61,20.4,20.4,0,0,1,8.42.14,23.16,23.16,0,0,1,6.26,3.15c5.24,3.4,10.64,7.51,12.56,13.41a21.46,21.46,0,0,0-28.16-1.43,29.89,29.89,0,0,0-7.63,9.71,47.55,47.55,0,0,0-4,33.06,16.43,16.43,0,0,0,2.75,6.37,7.28,7.28,0,0,0,6,3l.08-.32c8.69,1.36,17.45,2.72,26.24,2.34s17.71-2.66,24.76-7.93c7.45-5.56,12.17-13.92,17.93-21.22a75.59,75.59,0,0,1,10.26-10.75,19.44,19.44,0,0,1,7.69-4.5c2.91-.72,6.32-.1,8.24,2.2a11.67,11.67,0,0,1,2,4.29,76.32,76.32,0,0,1,2.15,10l-.1.27c1.52,5,1.39,10.26,1.25,15.44a2.55,2.55,0,0,1,0,.39,27.66,27.66,0,0,0-12.84-41l-.26.13c-3.76-.26-7,2.53-9.6,5.25a125.93,125.93,0,0,0-9.82,11.56c-2.21,2.95-4.3,6-6.74,8.76-4.29,4.88-9.58,8.77-14.88,12.54-4.32,3.06-8.83,6.13-14,7.27a30.59,30.59,0,0,1-12.42-.25,33.83,33.83,0,0,1-11.75-4.36,23.85,23.85,0,0,1,7.32-43.29c3.08-.74,6.57-.78,9.17,1a14.69,14.69,0,0,1,3.33,3.65l5,7,.3.13a37.33,37.33,0,0,0-.48-13.45,22.15,22.15,0,0,0-2.59-6.87,22.77,22.77,0,0,0-4.84-5.39c-7.09-5.95-16.88-9.19-25.83-6.89l0-.2c-7.51,0-14.62,3.55-20.61,8.09s-11.13,10.09-16.82,15a27.57,27.57,0,0,1-7.32,4.89,22.09,22.09,0,0,1-10.67,1.22C820,826,813.07,822.92,810,817c-1.87-3.6-2.14-7.8-2.17-11.85,0-3.83.13-7.77,1.65-11.29a20.69,20.69,0,0,1,7.62-8.66,14.33,14.33,0,0,1,4.76-2.28,9.47,9.47,0,0,1,8.18,2.23l-.1-1.54c0-.21-.07-.41-.12-.62-6.07-3.92-14.73-2.4-20.18,2.42-5.6,4.94-8.21,12.58-8.69,20-.39,6.15.57,12.52,3.61,17.9S812.84,833,818.94,834c4.92.8,9.92-.53,14.7-2a61.15,61.15,0,0,0,10.91-4.15c6.43-3.37,11.63-8.64,16.72-13.81Z" transform="translate(-702.4 -80.62)"/><path class="cls-2" d="M1036.13,846.29a15,15,0,0,0,11.62-.84,26.5,26.5,0,0,0,9.08-7.67,44.3,44.3,0,0,0,9.54-25.8l-.15,0c-2.6,1.65-3.06,5.16-3.71,8.16a31.57,31.57,0,0,1-9.55,16.56c-3.31,3-8.22,5.33-12.12,3.17-3.73-2.08-4.49-7.1-4.29-11.36.26-5.68,1.58-11.57,5.31-15.86,3.34-3.85,9-6,13.77-4.37-4.12-3.24-10.42-2.91-14.89-.07-4.66,3-7.55,8.12-9.17,13.4a34.35,34.35,0,0,0-.74,18.37,10.34,10.34,0,0,0,1.63,3.79A8.29,8.29,0,0,0,1036.13,846.29Z" transform="translate(-702.4 -80.62)"/><path class="cls-2" d="M829.79,783c.05.21.08.41.12.62l.1,1.54a8.93,8.93,0,0,1,2.78,4.27l.06-.06a22.26,22.26,0,0,0-12.34-22.49,30.27,30.27,0,0,0-8.68-2.35c-12.12-1.62-24.62,1.46-35.25,7.51s-19.48,14.93-26.53,24.93l-.07-.13a114.58,114.58,0,0,1-45.73,45.87,1.36,1.36,0,0,1-1.29.69l-.31.16-.16,0c0,.47.08.95.13,1.42.72.75,2,.75,3.11.62a102.93,102.93,0,0,0,16.34-3.24l.18.29c10.87-4,19.4-12.69,26.29-22s12.52-19.57,19.83-28.58l.19-.5a49.84,49.84,0,0,1,40-21.16,27.78,27.78,0,0,1,13.26,2.75A15.24,15.24,0,0,1,829.79,783Z" transform="translate(-702.4 -80.62)"/><path d="M703,843.37l1.29-.69a5,5,0,0,0,.8-2.18c2.27-19.08,8.2-37.53,14.67-55.62h.15c3.27-8.65,7.8-16.76,12.3-24.83l2.5-4.46-.65-1.15-.23.22a245.8,245.8,0,0,0-30.23,73.84l.5.37a71.29,71.29,0,0,0-1.6,10.14,38.54,38.54,0,0,0,0,4.56l.16,0Z" transform="translate(-702.4 -80.62)"/><path class="cls-4" d="M703,843.37a1.36,1.36,0,0,0,1.29-.69Z" transform="translate(-702.4 -80.62)"/><path d="M970.7,788.28a72.94,72.94,0,0,0-12.36-8.66A200.28,200.28,0,0,0,938.05,770l-.14.66a220.72,220.72,0,0,0,20.92,17.71,76,76,0,0,1,9.95,8.17,48.65,48.65,0,0,1,5.35,6.93,103.54,103.54,0,0,1,10.69,21.13l.07-.08c.78,2.4,1.79,4.85,3.93,6.11a5.73,5.73,0,0,0,3.95.64l0-.43c-3-14.8-8.83-29.52-19.53-40.19C972.4,789.82,971.56,789,970.7,788.28Z" transform="translate(-702.4 -80.62)"/><path d="M1048.11,784.1a40.67,40.67,0,0,0-4.76-6.24l-.91.25c0,4.46,2.61,8.55,5.71,11.77s6.86,5.88,9.95,9.17c3.41,3.63,6,8,8.43,12.3.07.12.13.24.21.37l.15-.18a83.72,83.72,0,0,0-4.23-10.23Z" transform="translate(-702.4 -80.62)"/><path class="cls-4" d="M1056.17,808.72l-.19-.33-.35-.13Z" transform="translate(-702.4 -80.62)"/><path class="cls-5" d="M1019.46,758.37a230.87,230.87,0,0,1-25.48,11,287.88,287.88,0,0,1-35.64,10.28,72.94,72.94,0,0,1,12.36,8.66,286.21,286.21,0,0,0,71.74-10.17l.91-.25A109,109,0,0,0,1035,770c-4.68-4.15-9.38-8.32-14.22-12.28Z" transform="translate(-702.4 -80.62)"/><path class="cls-5" d="M1043.35,777.86q1.64-.45,3.27-.93c11.94-3.47,23.75-7.77,34.32-14.3,8.09-5,15.34-11.21,22.55-17.39l18-15.45-.24-.88a98.09,98.09,0,0,0,26.42-56.2c.17-1.46.3-2.92.41-4.38a36.34,36.34,0,0,1-4.45-17.67c0-5,1.13-10,2.22-14.95a139.3,139.3,0,0,1-10.79,15.5,72.29,72.29,0,0,1,1.85-17.65,93,93,0,0,1-11.76,11.55,31,31,0,0,1-14.88,6.67l-.09-.18q-3.78,6.21-7.43,12.48l.16.3c-6.94,18.44-16.16,36.16-28.68,51.38-14.5,17.62-33.06,31.42-53.41,41.91,4.84,4,9.54,8.13,14.22,12.28A109,109,0,0,1,1043.35,777.86Z" transform="translate(-702.4 -80.62)"/><path d="M922.65,694.13a31.49,31.49,0,0,0,8.56,17.71,45.88,45.88,0,0,0,16.76,11c3.74,1.47,7.63,2.57,11.26,4.29,4.68,2.22,8.85,5.43,13.51,7.69,1.44.7,2.92,1.31,4.4,1.9l10.11,4.13v.06h0c5.83,2.11,10.71,6.21,15.71,9.89s10.44,7,16.51,7.59l1.36-.7a151.92,151.92,0,0,0-14.8-10.82l.06-.33-67-35.27,0,.22a27.69,27.69,0,0,1-13.87-17.08c-2.36-8.58-.42-17.63,2.17-26.22l.75-2.44h0c2.21-7.08,6.19-13.45,10.13-19.73,3.15-5,6.31-10,9.59-15l-.62-1.29a161.52,161.52,0,0,1-11.94,16l.34.9c-5.11,7-10.22,14.15-13.2,22.29s-3.63,17.5.14,25.3Z" transform="translate(-702.4 -80.62)"/><path d="M734,754.44l.65,1.15,2.84-5.1-.16-.29a122.44,122.44,0,0,1,17.26-31.88c2.48-3.3,5.29-7.29,3.91-11.18l-.12-.16c-2.59,6.16-6.58,11.71-10.14,17.41A145.3,145.3,0,0,0,734,754.44Z" transform="translate(-702.4 -80.62)"/><path d="M879.15,532.88A215.07,215.07,0,0,1,892,489.64q.57-11.16,1.13-22.32a15.39,15.39,0,0,0-.21-4.5,5.2,5.2,0,0,0-2.57-3.54h-.06a41.35,41.35,0,0,1-.69,10q-1.18,7.74-2.36,15.48l.41.28c-6.42,24.13-16.27,47.35-21.06,71.86l.12.09c-3.19,12.36-9.71,23.6-15.22,35.15-9.84,20.69-16.78,43.19-31.11,61.06l.12.31a142.41,142.41,0,0,1-33.7,45,28.75,28.75,0,0,1-5.89,4.35c-6.34,3.26-14,2-21,.64l-.27.11a1.39,1.39,0,0,0-.06.19c-.28.85-.58,1.68-.91,2.5a165.64,165.64,0,0,0,17,1,12.19,12.19,0,0,0,4.85-.65,12.67,12.67,0,0,0,3.2-2.2q10.92-9.36,21.86-18.69l.2-.39q12.9-21,25.8-41.92l-.14-.27a525.23,525.23,0,0,0,30.52-62.09l-.22-.3a468.55,468.55,0,0,0,17.45-46.12Z" transform="translate(-702.4 -80.62)"/><path d="M731.22,582.22l.4-1.85-.52-.35c-7.2,17.84-8.31,37.47-9.32,56.69l-.58.32q2.53,23.37,6,46.63c.9,5.94,2.14,12.41,6.74,16.27,3,2.54,7,3.52,10.9,4.28q6.86,1.35,13.8,2.11c.33-.82.63-1.65.91-2.5a56.34,56.34,0,0,1-13.29-7.27,45.76,45.76,0,0,1-9.69-8.5,40.67,40.67,0,0,1-6.7-13.52C725.44,660.23,725.19,645,725,630h.27a122.2,122.2,0,0,1,4.24-31.94c1.39-5.13,3.13-10.46,2-15.65Z" transform="translate(-702.4 -80.62)"/><path d="M963.62,581.56q-14.29,15.38-29,30.37l-.35.12a113.82,113.82,0,0,0-34.62,39.38l.19.48a55.9,55.9,0,0,0-12.58,41.74,21.45,21.45,0,0,0,2.41,8.45l-.11.66c-.4.89,1.33,1.39,1.87.58s.21-1.89-.06-2.83c-1.57-5.41-.23-11.18,1.11-16.65,2.31-9.42,5-19.49,12.36-25.82l.47-.12c9.69-18.12,29.27-28.75,41.44-45.3l.06.12a51.69,51.69,0,0,1,9.84-12.83c4.51-4.29,9.94-7.9,12.84-13.41,2.53-4.78,2.82-10.38,3-15.8h.09a81.65,81.65,0,0,0,.21-8.85h-.06C971.81,569.12,967.75,575.54,963.62,581.56Z" transform="translate(-702.4 -80.62)"/><path d="M948.36,669.4l.07,0a26.93,26.93,0,0,0,7.94-2.94,38.26,38.26,0,0,0,7.45-6.18l.11-.11c5.45-5.45,10.64-11.15,15.79-16.9,4.19-5.6,8.27-11.4,13.09-16.4l0,0a13.87,13.87,0,0,1,3.89-3.4l0-.41a13.2,13.2,0,0,0-6.41,3.37,58.88,58.88,0,0,0-4.95,5.4,83.81,83.81,0,0,1-5.92,6.15l0,.23a63.41,63.41,0,0,0-7.87,8.68c-1.68,2.42-3,5.06-4.84,7.37-4.07,5.19-10.16,8.31-16.05,11.28a24.71,24.71,0,0,1-4.7,2,24.21,24.21,0,0,1-5.89.54l-12.24.13-.08.36a11.41,11.41,0,0,0,3.81,1.48A33.65,33.65,0,0,0,948.36,669.4Z" transform="translate(-702.4 -80.62)"/><path class="cls-3" d="M991.78,598.22l.31-.21a129.76,129.76,0,0,0-.71-14.1l-.59.18-.58.38a93.07,93.07,0,0,0-25.48,24.75l-.45,0A192.57,192.57,0,0,0,947.81,631c-3.28,4.94-6.44,10-9.59,15-3.94,6.28-7.92,12.65-10.13,19.73h0l-.75,2.44,0,.05.35.25.08-.36,12.24-.13a24.21,24.21,0,0,0,5.89-.54,24.71,24.71,0,0,0,4.7-2c5.89-3,12-6.09,16.05-11.28,1.82-2.31,3.16-5,4.84-7.37a63.41,63.41,0,0,1,7.87-8.68l0-.23a83.81,83.81,0,0,0,5.92-6.15,58.88,58.88,0,0,1,4.95-5.4,13.2,13.2,0,0,1,6.41-3.37l0,.41.31-.15,0,0q-1.59-10.23-3-20.48A10.57,10.57,0,0,1,991.78,598.22Z" transform="translate(-702.4 -80.62)"/><path class="cls-6" d="M1148.08,668.33c.79-10.37.33-20.82,1.63-31.14,1.48-11.74,5.67-23.81,14.83-31.3l-.22-.84a43,43,0,0,0-28,10.09c-6,5.07-10.44,11.68-14.71,18.26q-5.85,9-11.44,18.2l.09.18a31,31,0,0,0,14.88-6.67,93,93,0,0,0,11.76-11.55,72.29,72.29,0,0,0-1.85,17.65,139.3,139.3,0,0,0,10.79-15.5c-1.09,4.93-2.18,9.9-2.22,14.95A36.34,36.34,0,0,0,1148.08,668.33Z" transform="translate(-702.4 -80.62)"/><path class="cls-7" d="M1016.68,207.82l.08,0c.43,5.09.83,10.2,1.19,15.3l.33-.08.27-.05,4.19-.89,18.06-6.5c.57-.2,1.33-.35,1.73,0a.53.53,0,0,1,.12.14,1.56,1.56,0,0,1,0,1.27c-1.2,4.09-.7,8.44-.8,12.7a60.16,60.16,0,0,1-2.18,13.95c-1.06,4-2.38,8-3.7,11.93-1,3.09-2.12,6.27-4.22,8.74a19.58,19.58,0,0,1-6.07,4.49l0,.22a17.67,17.67,0,0,1-5.44,2.45q1.14,44.58-1.4,89.16l-.14,1.23q.28,20.82-1,41.64c-.06,1-.42,2.38-1.41,2.5l0-.66c-.23-1.24-.45-2.48-.67-3.72l.09,0A1814,1814,0,0,1,1016.68,207.82Zm-33.5-73.94A1608.35,1608.35,0,0,1,1000,313.34l.61.67q-2.6,30.84-4.71,61.75A688,688,0,0,0,993,504.58l-.83.05a514.88,514.88,0,0,0,12.39,92l-.35.25A74.73,74.73,0,0,1,1005.9,607c0,1,0,2,0,3,.13,6.45,1,13.81,6.26,17.52,2.31,1.63,5.14,2.27,7.9,2.88,7.89,1.75,16.37,3.46,23.85.4,5.88-2.41,10.22-7.43,14.23-12.35,2.15-2.64,4.32-5.44,5.33-8.65a107.17,107.17,0,0,1-3.59-22.17,68.61,68.61,0,0,1,.31-14c.55-3.89,1.6-7.69,2.47-11.52a127.5,127.5,0,0,0,2.36-42.13l.22-.72q7.42-47.76,11.36-96L1076,422q1.88-10.33,3.73-20.68c1.36-7.51,2.72-15,3.44-22.62.9-9.42.81-18.91,1-28.37.59-34.61,4.53-69.08,8.94-103.42h0c-1.35-17.78-2.69-35.66-1.41-53.45.61-8.54,1.83-17.06,1.6-25.61A77.74,77.74,0,0,0,1073.16,118a79.19,79.19,0,0,0-47.74-24.8c-15.35-2-30.88.55-46.15,3.08q-17.21,2.84-34.41,5.7v0a4.83,4.83,0,0,0-1.18.34,4.33,4.33,0,0,1-2.76.62c-.94-.25-1.42-1.76-.53-2.14l0,.48,28-5.73c16.84-3.46,33.88-6.93,51.06-6.23a106.69,106.69,0,0,1,44.75,11.9c11.51,6,22.09,14.31,28.9,25.34,11.38,18.44,10.85,41.56,10,63.21l.79.68q-1.62,74.87-5.36,149.66l.35,0q-1.61,37.83-4.06,75.62a77,77,0,0,1-1.19,17.74c-.44,2.38-1,4.72-1.66,7q-.62,10.49-1.83,20.93-4.62,73.41-3.52,147c0,2.73.09,5.48.27,8.23l-.29.05c.24,3.72.48,7.45.71,11.17s.2,7.79-2.64,10v0c-17.36,2.67-34.7,6.84-52.19,5.51-6.41-.48-13-1.8-18.23-5.55-5.66-4.06-9.16-10.6-10.87-17.36s-1.8-13.75-1.87-20.7l-.63,0q-5.31-27.88-10.6-55.77c-1.74-9.15-3.49-18.35-6.57-27.14-1.65-4.69-3.68-9.29-4.7-14.15-1.18-5.68-1-11.56-.72-17.35q.68-16.4,1.33-32.8h.6q-.24-77.19,6.29-154.23l1.21,0q-.21-31.63-.43-63.25c-.14-21.17-.28-42.38-2.66-63.41-1.42-12.52-3.63-25.12-2.16-37.62Zm11.11-51.32c-9.62-3.68-20.54-1.4-30.65.93l-22.37,5.17c-9.35,2.16-18.72,4.32-27.85,7.27a264.3,264.3,0,0,0-30.08,12.18c-11.58,5.38-23.34,11.42-31.68,21a30,30,0,0,0-2.66,7,183.38,183.38,0,0,0-6.48,51.05l.27.22c-2.57,35.24,2.61,70.58,2.87,105.92l-.37.19c-.74,7.61-1.5,15.29-3.88,22.56-2.54,7.76-7,15.47-5.67,23.52l.24.82c1.07-1,2.19-2,3.35-2.87A50.79,50.79,0,0,1,876,327.18l.24-.14c3.51-.17,7-.17,10.53,0v-.46a20.71,20.71,0,0,1-4.65-5.23l-.11.18a82.75,82.75,0,0,1-19.6-31.21c-1.11-3.2-2-6.46-3-9.73q-1.92-6.87-3.85-13.74l-.13,0a13.05,13.05,0,0,0-.79-5.67c-.58-1.52-1.45-2.92-1.94-4.47-1-3.21-.34-6.68.36-10q2.25-10.55,4.83-21l.29-1.15c0-.24.12-.49.18-.74l-.17-1.31a97.08,97.08,0,0,0,2.59-20.75c.51-16.09-1.26-32.51,2.22-48.16l0,0a6,6,0,0,1-.3-3.54l.58-.27q23.58.36,47.17.74c10.14.15,20.31.31,30.33,1.77,12.52,1.84,25.87,6.58,32.14,17.56a49.73,49.73,0,0,1,3.85,9.54c1.84,5.59,3.68,11.26,4.09,17.12a63.66,63.66,0,0,1-1.08,14.62c0,.14,0,.28-.07.43-.16,1-.33,2-.49,3l-.09.56a328.68,328.68,0,0,0-3.79,35.54c-.13,2.57,0,5.65,2.25,6.95l.06,0a12.56,12.56,0,0,1-.25,4.53l.21.17q-2.7,32.24-4.15,64.57-.53,11.61-.88,23.25-1.1,35.07-.72,70.15l.26,0c-1.53,26.48-3,53.2,1,79.4,4.41,28.41,15.35,55.89,18.23,84.3a129.76,129.76,0,0,1,.71,14.1l-.31.21a10.57,10.57,0,0,0,2.26,4.54q1.44,10.26,3,20.48h0c.16,1.06.33,2.12.5,3.17.93,5.78,2,11.81,5.53,16.49,7.21,9.58,21.3,9.8,33.23,8.56q16.55-1.73,32.89-4.89c7.19-1.38,14.84-3.28,20.26-8l-.13-1.5a81.91,81.91,0,0,1-1-10.13c-.22-5.25-.07-10.53.09-15.78l1.49-49.66c.26-8.67.52-17.34,1.43-25.95,1.8-17,6.13-33.94,4.84-50.94l.06,0,2.4-2.89.24.06q4.63-51.92,9.28-103.82c1.08-12.13,2.17-24.3,2-36.49h.22c.59-11.73,2.68-23.34,4-35,2.86-24.43,2.55-49.11,2.24-73.71q-.33-26.46-.67-52.91c1.15-20.39-8.16-39.86-17.24-58.2-2.81-5.68-5.66-11.43-9.8-16.24-4.82-5.6-11.19-9.68-17.84-12.94-20-9.81-43-12.61-65.2-11.1Q1000.13,81.79,994.29,82.56Z" transform="translate(-702.4 -80.62)"/><path class="cls-7" d="M944.86,102q17.19-2.85,34.41-5.7c15.27-2.53,30.8-5.07,46.15-3.08a79.19,79.19,0,0,1,47.74,24.8,77.74,77.74,0,0,1,20.15,49.84c.23,8.55-1,17.07-1.6,25.61-1.28,17.79.06,35.67,1.41,53.45h0c-4.41,34.34-8.35,68.81-8.94,103.42-.16,9.46-.07,18.95-1,28.37-.72,7.6-2.08,15.11-3.44,22.62q-1.86,10.35-3.73,20.68l.6,1.35q-3.93,48.17-11.36,96l-.22.72a127.5,127.5,0,0,1-2.36,42.13c-.87,3.83-1.92,7.63-2.47,11.52a68.61,68.61,0,0,0-.31,14,107.17,107.17,0,0,0,3.59,22.17c-1,3.21-3.18,6-5.33,8.65-4,4.92-8.35,9.94-14.23,12.35-7.48,3.06-16,1.35-23.85-.4-2.76-.61-5.59-1.25-7.9-2.88-5.27-3.71-6.13-11.07-6.26-17.52,0-1,0-2,0-3a74.73,74.73,0,0,0-1.72-10.17l.35-.25a514.88,514.88,0,0,1-12.39-92l.83-.05a688,688,0,0,1,2.92-128.82q2.1-30.9,4.71-61.75l-.61-.67a1608.35,1608.35,0,0,0-16.81-179.46l-.76.36c-1.47,12.5.74,25.1,2.16,37.62,2.38,21,2.52,42.24,2.66,63.41s.29,42.16.43,63.25l-1.21,0q-6.53,76.93-6.29,154.23h-.6q-.66,16.41-1.33,32.8c-.23,5.79-.46,11.67.72,17.35,1,4.86,3,9.46,4.7,14.15,3.08,8.79,4.83,18,6.57,27.14q5.31,27.88,10.6,55.77l.63,0c.07,6.95.17,14,1.87,20.7s5.21,13.3,10.87,17.36c5.23,3.75,11.82,5.07,18.23,5.55,17.49,1.33,34.83-2.84,52.19-5.51v0c2.84-2.21,2.87-6.41,2.64-10s-.47-7.45-.71-11.17l.29-.05c-.18-2.75-.23-5.5-.27-8.23q-1.1-73.56,3.52-147,1.22-10.44,1.83-20.93c.67-2.32,1.22-4.66,1.66-7q.62-8.86,1.19-17.74,2.46-37.79,4.06-75.62l-.35,0q3.75-74.78,5.36-149.66l-.79-.68c.88-21.65,1.41-44.77-10-63.21-6.81-11-17.39-19.35-28.9-25.34a106.69,106.69,0,0,0-44.75-11.9c-17.18-.7-34.22,2.77-51.06,6.23l-28,5.73,0-.48c-.89.38-.41,1.89.53,2.14a4.33,4.33,0,0,0,2.76-.62,4.83,4.83,0,0,1,1.18-.34Z" transform="translate(-702.4 -80.62)"/><path d="M947.19,629.74l.62,1.29a192.57,192.57,0,0,1,16.47-21.83l.45,0a93.07,93.07,0,0,1,25.48-24.75c-2.52-.43-5,1.36-7,3l-10,8.37a91.23,91.23,0,0,0-10.57,9.84c-4.78,5.52-8.15,12.09-11.91,18.35C949.6,626,948.42,627.88,947.19,629.74Z" transform="translate(-702.4 -80.62)"/><path d="M737.8,620.93A11.22,11.22,0,0,0,739,616.7q.88-6.39,1.78-12.77c.94-6.75,2-13.78,5.89-19.36l-.08-.18a1.58,1.58,0,0,1-.64.56,1,1,0,0,1-.27.1h0a1.65,1.65,0,0,1-.72.57l0,.19a11.61,11.61,0,0,1-2.55,3c-2.6,2.76-3.52,6.67-4.08,10.41A85.51,85.51,0,0,0,737.8,620.93Z" transform="translate(-702.4 -80.62)"/><path d="M814.68,537.46a78,78,0,0,1-.43,8.41,20.5,20.5,0,0,1-2.19,7.51,7.31,7.31,0,0,1-2.1,2.39v.38c2.74.22,5.54.42,8.16-1a5.8,5.8,0,0,0,2.78-3.26,14.19,14.19,0,0,0,.61-4.36,79.77,79.77,0,0,0-.38-8.19c-.21-2.64-.43-5.29-.64-7.93-.08-1-.16-1.92-.29-2.87-.86-6-4-10.43-7.31-12.28s-6.93-1.54-10.42-1c-2.7.41-5.4.95-8.08,1.6a6,6,0,0,0-3.49,1.87,14.91,14.91,0,0,0-2.2,5,72.6,72.6,0,0,0-3.19,21.62c.11,7.53,1.78,15.17,5,20.07a32.65,32.65,0,0,0,4.67,5.33,38.52,38.52,0,0,1,8.28,10.92,31.4,31.4,0,0,1,2.81,17c-.76,5.66-3.28,10-5.84,13.66,3.19-1.11,6-4.61,8.56-8.21a39.56,39.56,0,0,0,4.7-8,26.2,26.2,0,0,0,2-10.83,21.17,21.17,0,0,0-5-13c-2.59-2.92-5.58-4.48-8.45-6.46a48.48,48.48,0,0,1-6.1-5,15,15,0,0,1-4.13-6.09c-1.8-5.31-.53-12.16,1.05-17.69,1.07-3.73,2.39-7.55,4.52-9.34a7,7,0,0,1,4.21-1.42c2.69-.21,5.44-.13,7.94,1.64s4.49,5.19,5,9.61Z" transform="translate(-702.4 -80.62)"/><path d="M731.82,580.12l0,.14a11.16,11.16,0,0,0,4.8,3.86,23.91,23.91,0,0,0,6,1.63,4.57,4.57,0,0,0,2.36-.12,1.65,1.65,0,0,0,.72-.57,2.27,2.27,0,0,1-.25.06l-.25,0a4.83,4.83,0,0,1-1.07-.08A29.79,29.79,0,0,1,731.7,580h0A.68.68,0,0,0,731.82,580.12Z" transform="translate(-702.4 -80.62)"/><path d="M731.7,580a29.79,29.79,0,0,0,12.39,5.07,4.83,4.83,0,0,0,1.07.08V585l-8.94-3.59a13.66,13.66,0,0,1-2.86-1.43,12.67,12.67,0,0,1-2.25-2.26,121.37,121.37,0,0,1-10.19-14.25l.11-.22c-.89-6.27-4.87-11.73-6.1-17.93a42.26,42.26,0,0,1-.47-9.27v-.13a54.13,54.13,0,0,1-.42-12.53,92.34,92.34,0,0,1,2.84-17.53l.13,0q2.22-6.3,4.42-12.6a49,49,0,0,1,2-5,47.89,47.89,0,0,1,3.23-5.38q2.48-3.71,4.93-7.42v-.23a9.7,9.7,0,0,1,1.81-3,121.74,121.74,0,0,1,12.52-14.11c1.73-1.58,3.54-3.06,5.36-4.53l3.31-2.7.22-.06A182.24,182.24,0,0,1,786.17,434a11.06,11.06,0,0,0,3.45-1.94l0-.31c-15.58,5.56-30.33,13.64-42.75,24.55-13.09,11.5-23.52,26.25-28.9,42.82l-.4-.35c-4,13.91-5.85,28.62-3.81,43,2,14.17,8,28,17.93,38.26h0Z" transform="translate(-702.4 -80.62)"/><path class="cls-3" d="M759.08,512.12q5-15.42,10-30.82c5.54-17.06,11.19-34.35,21-49.35l0-.41a4.09,4.09,0,0,0-.49.18l0,.31a11.06,11.06,0,0,1-3.45,1.94,182.24,182.24,0,0,0-31.39,16.84l-.22.06-3.31,2.7c-1.82,1.47-3.63,2.95-5.36,4.53a121.74,121.74,0,0,0-12.52,14.11,9.7,9.7,0,0,0-1.81,3v.23q-2.46,3.71-4.93,7.42a47.89,47.89,0,0,0-3.23,5.38,49,49,0,0,0-2,5q-2.21,6.3-4.42,12.6l-.13,0a92.34,92.34,0,0,0-2.84,17.53,54.13,54.13,0,0,0,.42,12.53V536a42.26,42.26,0,0,0,.47,9.27c1.23,6.2,5.21,11.66,6.1,17.93l-.11.22a121.37,121.37,0,0,0,10.19,14.25,12.67,12.67,0,0,0,2.25,2.26,13.66,13.66,0,0,0,2.86,1.43l8.94,3.59v.18l.25,0V585c0-12.3.18-24.76,3.45-36.6,3.32-12,9.75-23.31,10.7-35.75Z" transform="translate(-702.4 -80.62)"/><path d="M791.59,431.26c0-.1.08-.2.12-.29l-.25.08-1.38.48h0l0,.41c-9.86,15-15.51,32.29-21,49.35q-5,15.42-10,30.82l.48.49c-.95,12.44-7.38,23.72-10.7,35.75-3.27,11.84-3.49,24.3-3.45,36.6v.16a2.27,2.27,0,0,0,.25-.06h0a1,1,0,0,0,.27-.1,1.58,1.58,0,0,0,.64-.56,5,5,0,0,0,.54-2.75,30.36,30.36,0,0,1,.43-5.21l0,0c2.34-13.83,4.85-27.65,8.42-41.21A268.73,268.73,0,0,1,766.8,502.5l.19.14c4.22-17.34,8.48-34.76,15.47-51.17C785.35,444.67,788.71,438.06,791.59,431.26Z" transform="translate(-702.4 -80.62)"/><path d="M844.09,484.78c-.54,4.41-2.65,7.91-5,9.6s-5.26,1.86-7.94,1.64a6.89,6.89,0,0,1-4.21-1.42c-2.13-1.78-3.45-5.6-4.52-9.33-1.58-5.53-2.85-12.38-1-17.7a15,15,0,0,1,4.13-6.08,48,48,0,0,1,6.11-5.05c2.86-2,5.85-3.54,8.45-6.46a21.22,21.22,0,0,0,5-13,26.16,26.16,0,0,0-2-10.82,38.92,38.92,0,0,0-4.7-8c-2.57-3.6-5.37-7.09-8.56-8.21,2.56,3.68,5.08,8,5.84,13.66a31.33,31.33,0,0,1-2.81,17,38.42,38.42,0,0,1-8.28,10.91,32.18,32.18,0,0,0-4.67,5.33c-3.22,4.91-4.89,12.54-5,20.07a72.93,72.93,0,0,0,3.19,21.62,14.82,14.82,0,0,0,2.2,5,5.9,5.9,0,0,0,3.49,1.87q4,1,8.08,1.6c3.49.53,7.08.83,10.42-1s6.45-6.24,7.31-12.28c.13-.94.21-1.91.29-2.87.21-2.65.43-5.28.64-7.92a80,80,0,0,0,.38-8.2,14.5,14.5,0,0,0-.61-4.36,5.76,5.76,0,0,0-2.78-3.26c-2.62-1.45-5.43-1.25-8.16-1v.4a7.21,7.21,0,0,1,2.1,2.39,20.69,20.69,0,0,1,2.19,7.51A78.21,78.21,0,0,1,844.09,484.78Z" transform="translate(-702.4 -80.62)"/><path d="M897.65,503.28H944.5L921.08,462.7Zm36.93-7.93h-27L921.08,472Z" transform="translate(-702.4 -80.62)"/><polygon class="cls-3" points="205.17 414.73 232.18 414.73 218.67 391.33 205.17 414.73"/><path class="cls-8" d="M791.59,431.26l.21-.32-.09,0C791.67,431.06,791.64,431.16,791.59,431.26Z" transform="translate(-702.4 -80.62)"/><path d="M891.23,332c6.11.17,12.4-1.21,18.24.62a38.49,38.49,0,0,1,6.6,3.1,173.94,173.94,0,0,0,41.76,16l.74-.54a16.86,16.86,0,0,0,13-.9l0-.21a85.61,85.61,0,0,1-12.82-2.17v.19c-8.73-1.41-18.18-3.22-24.42-9.26-.24-.23-.49-.48-.72-.73l-.3.09a122.53,122.53,0,0,0-45.44-11.18l-1.1-.05c-3.51-.13-7-.13-10.53,0l-.24.14a50.79,50.79,0,0,0-36.64,10.33c-1.16.91-2.28,1.86-3.35,2.87-8.55,7.89-14.52,18.35-20.27,28.57l-.08.1a351.58,351.58,0,0,0-24.26,61.19l.09.81.25-.08.09,0a133.51,133.51,0,0,0,18.9-45.67l.41-.12c5.77-8.89,9.34-19.19,16-27.41l.14-.21c4.58-7.5,10.25-14.44,17.38-19.57s15.82-8.34,24.6-8C876.63,330.2,883.92,332.89,891.23,332Z" transform="translate(-702.4 -80.62)"/><path class="cls-9" d="M1093.58,433.57a77,77,0,0,0,1.19-17.74Q1094.2,424.7,1093.58,433.57Z" transform="translate(-702.4 -80.62)"/><path class="cls-10" d="M1020.27,271.56c0-.27,0-.54,0-.8,0-2.11-.12-4.22-.19-6.33q-.66-20.66-2.11-41.29c-.36-5.1-.76-10.21-1.19-15.3l-.08,0a1814,1814,0,0,0-.93,193.85l-.09,0c.22,1.24.44,2.48.67,3.72l0,.66c1-.12,1.35-1.46,1.41-2.5q1.26-20.79,1-41.64l.14-1.23Q1021.41,316.18,1020.27,271.56Z" transform="translate(-702.4 -80.62)"/><path class="cls-3" d="M958.73,347.94a85.61,85.61,0,0,0,12.82,2.17l0,.21.64-.34.35,0q.36-11.62.88-23.25l-.39-.06-.18.14a58.4,58.4,0,0,1-15.54,8.2c-7.32,2.74-15.21,4.71-22.9,3.39l-.14.44c6.24,6,15.69,7.85,24.42,9.26Z" transform="translate(-702.4 -80.62)"/><path d="M934.3,338.87l.14-.44c7.69,1.32,15.58-.65,22.9-3.39a58.4,58.4,0,0,0,15.54-8.2l0-.12c0-.36,0-.7,0-1.06H971.1q-18.61,6.7-37.52,12.48C933.81,338.39,934.06,338.64,934.3,338.87Z" transform="translate(-702.4 -80.62)"/><path class="cls-3" d="M876.05,294.2V294l.12-.11-.09-.28c-.81-2.52-1.63-5-2.46-7.56a8.27,8.27,0,0,1-.55-2.76,6.94,6.94,0,0,1,1.33-3.44c3-4.73,8.42-8.55,14-7.63,2.74.44,5.17,2,7.46,3.56a122.67,122.67,0,0,1,20.34,17.59l.11.34a1.89,1.89,0,0,1-.69.47c.82,1.57-1,3.22-2.29,4.42a13.83,13.83,0,0,0-4.57,9.33c.15-.16.3-.32.44-.49l0,0a6.7,6.7,0,0,1,5.16-2.51c-2.58,5.2-6.44,10-11.75,12.37s-12.18,1.69-16.07-2.62a14.87,14.87,0,0,1-3.37-7.49,39.52,39.52,0,0,1-.49-7,7.14,7.14,0,0,0-.33-2.77C881.42,295,878.55,294.43,876.05,294.2Zm40.53-139.5v-.23q-23.43-.87-46.87-1.74a5,5,0,0,0-3.22.63,4.71,4.71,0,0,0-1.41,2.66,71.86,71.86,0,0,0-1.65,14.13l-.42,8.5h0l14.74,11.94a1.53,1.53,0,0,1,.63.79,1.56,1.56,0,0,1-.43,1.23l-2.2,3.12c-3.35-1.83-6.75-3.7-9.4-6.45a14.72,14.72,0,0,1-3.62-6.11l-.93,18.61.3.78a46.48,46.48,0,0,1,4.3-4.57.55.55,0,0,1,.24-.15c.28,0,.38.36.36.64s0,.33,0,.5c2.87.87,4.72,3.77,5.39,6.72a3.44,3.44,0,0,1,.88-.22,4,4,0,0,1,.92,0c1.8,5.53,3.32,11.16,4.57,16.84.15.7.19,1.62-.46,1.92a1.51,1.51,0,0,1-.87,0,3.2,3.2,0,0,1-1.36-.4,1.16,1.16,0,0,1-.54-1.1,1.24,1.24,0,0,1-.33,0,16.94,16.94,0,0,1-4.09-.05,6.46,6.46,0,0,1-1.91-.61l-.06.4a4.39,4.39,0,0,1-4.23-1c-.56-.54-1-1.21-1.54-1.72a2,2,0,0,0-2.11-.51c-1,.48-1,1.86-1.26,2.92a4.22,4.22,0,0,1-1.66,2.35l-.13-.1-.29,1.15.39.3c2.7,8-2.44,16.36-2.63,24.75-.1,4.12,1,8.15,2.1,12.11q2.25,8.15,4.49,16.27l-.38.45a93.85,93.85,0,0,0,19.86,37.54c2.59,3,5.53,6.12,6.1,10a122.53,122.53,0,0,1,45.44,11.18l.3-.09q18.92-5.76,37.52-12.48h1.73q-.21-13.44-.43-26.9l.25-1.72a77.38,77.38,0,0,1,1.53-19c1-4.64,2.36-9.39,1.65-14-.05-.3-.1-.6-.16-.89-.42-1.94-1.23-3.78-1.72-5.7-1-3.94-.71-8.08-.38-12.13q.79-9.91,1.72-19.82c.35-3.8.84-7.88,3.42-10.68l0-.46a29.67,29.67,0,0,0-6.05,1.67c-1.35.52-2.68,1.11-4,1.57-5.42,1.8-11.28,1.51-17,1.19l-.16.1a12.09,12.09,0,0,1-9.31,7.4,25.28,25.28,0,0,1-6.44-.18c-1.34-.15-2.68-.27-4-.38a181.82,181.82,0,0,0-18.67-.68c-.73.92-1.85,1.79-3,1.47-1.59-.44-1.75-2.61-1.47-4.23a36.77,36.77,0,0,1,8.11-17.4c0,.91,0,1.82-.08,2.73.9-1.47,1.21-3.37,2.19-4.83,1.26-1.87,3.47-2.81,5.55-3.65a64.64,64.64,0,0,1,12.07-4,3.41,3.41,0,0,1,1.65,0c1.41.46,1.76,2.41,3,3.18a4,4,0,0,1,0-1.83l1.05-.49c0,2.16,2.45,3.34,3.83,5a12.64,12.64,0,0,1,1.83,3.56,1.82,1.82,0,0,0,.46.75,1.55,1.55,0,0,0,.84.3,12.81,12.81,0,0,0,7.32-1c3.27-1.52,5.85-4.41,9.3-5.46l.2.22c.58,1-.32,2.28-1.31,2.9s-2.22,1-2.8,2.07a14.74,14.74,0,0,0,10.52-2.25,3.5,3.5,0,0,1,1.9-.81c1.31,0,2,1.59,2.31,2.86a50.57,50.57,0,0,0,2.64,7.08l.59.3c0-.15,0-.29.07-.43-1.06-7.19-1.08-14.51-2.24-21.68-1.19-7.36-3.76-14.82-9.1-20a41.46,41.46,0,0,0-6.84-5.09,67,67,0,0,0-15.69-7.75C936.49,153.61,926.42,154.11,916.58,154.7Zm54.87,26.85-.09.22c-2.91,1.53-6.47.28-9.37-1.27s-5.89-3.46-9.17-3.2a14.87,14.87,0,0,0-5.84,2.24q-13,7.28-26,14.52c-2.82,1.57-5.71,3.18-8.89,3.7a1.23,1.23,0,0,1-.87-.07,1.24,1.24,0,0,1-.46-.74q-1.24-3.51-2.47-7l0,0,28.86-15c5.94-3.09,12.48-6.26,19-4.93C962.62,171.26,967.31,176.48,971.45,181.55Zm-78.88,79.84a17.77,17.77,0,0,1-6.38,0,29.37,29.37,0,0,1-2.91-.71c-2-.54-4.26-1.36-4.85-3.32.4.53,1.34.23,1.6-.38a2.44,2.44,0,0,0-.23-1.93,4.69,4.69,0,0,1-.65-1.88,3.45,3.45,0,0,1,.4-1.43,17.77,17.77,0,0,1,4.14-5.69,3.62,3.62,0,0,1,1.34-.86,1.39,1.39,0,0,1,1.47.38c-.25.3-.49.62-.74.93l-.13-.2a20.61,20.61,0,0,0-1.74,5.69,2,2,0,0,0,.05,1.08c.24.56.91.79,1.48,1,3.09,1.15,5.41,3.7,7.6,6.16a.76.76,0,0,1,.28.61C893.26,261.2,892.88,261.33,892.57,261.39Z" transform="translate(-702.4 -80.62)"/><path d="M882.09,321.31a20.71,20.71,0,0,0,4.65,5.23V327l1.1.05c-.57-3.86-3.51-7-6.1-10a93.85,93.85,0,0,1-19.86-37.54l.38-.45Q860,271,857.77,262.81c-1.09-4-2.2-8-2.1-12.11.19-8.39,5.33-16.8,2.63-24.75l-.39-.3q-2.56,10.47-4.83,21c-.7,3.28-1.37,6.75-.36,10,.49,1.55,1.36,2.95,1.94,4.47a13.05,13.05,0,0,1,.79,5.67l.13,0q1.92,6.87,3.85,13.74c.92,3.27,1.84,6.53,3,9.73A82.75,82.75,0,0,0,882,321.49Z" transform="translate(-702.4 -80.62)"/><path d="M972.65,297l-.25,1.72q.21,13.44.43,26.9c0,.36,0,.7,0,1.06l0,.12.18-.14.39.06q1.45-32.33,4.15-64.57l-.21-.17a12.93,12.93,0,0,1-.51,1.6l-1,.42c.71,4.65-.69,9.4-1.65,14A77.38,77.38,0,0,0,972.65,297Z" transform="translate(-702.4 -80.62)"/><path d="M886.54,314.62c3.89,4.31,10.77,5,16.07,2.62s9.17-7.17,11.75-12.37a6.7,6.7,0,0,0-5.16,2.51l0,0a4.18,4.18,0,0,0-.45.65.86.86,0,0,1,0-.16c-2,2.16-4.93,3.44-7.7,4.63a17.21,17.21,0,0,1-5.82,1.69,10.77,10.77,0,0,1-6.68-2.27,22.17,22.17,0,0,1-4.83-5.3l-.53.47A14.87,14.87,0,0,0,886.54,314.62Z" transform="translate(-702.4 -80.62)"/><path class="cls-11" d="M887.54,297.84l0-.23a57.92,57.92,0,0,1,.93-8.09,122.25,122.25,0,0,1,9.71,9.74,1.74,1.74,0,0,1,.6,1.27,1.15,1.15,0,0,1-1.13.9,3.18,3.18,0,0,1-1.49-.41,22.21,22.21,0,0,1-3.69-2.28v0a3.49,3.49,0,0,1-3-2.46,2.38,2.38,0,0,1-.4.5l0,0A6.26,6.26,0,0,1,887.54,297.84Zm1,14.12a10.77,10.77,0,0,0,6.68,2.27,17.21,17.21,0,0,0,5.82-1.69c2.77-1.19,5.66-2.47,7.7-4.63a13.83,13.83,0,0,1,4.57-9.33c1.34-1.2,3.11-2.85,2.29-4.42a2.92,2.92,0,0,1-2.26-.15,8.14,8.14,0,0,1-2.36-2.1,64.13,64.13,0,0,0-11-9.86,28.44,28.44,0,0,0-9.36-4.7,13.55,13.55,0,0,0-10.19,1.18A9,9,0,0,0,876,287.4c.4,2.22,1.65,4.88.14,6.47l-.12.11v.22c2.5.23,5.37.84,6.3,3.13a7.14,7.14,0,0,1,.33,2.77,39.52,39.52,0,0,0,.49,7l.53-.47A22.17,22.17,0,0,0,888.53,312Z" transform="translate(-702.4 -80.62)"/><path d="M889.4,296.24a2.29,2.29,0,0,0,.31-1.08c.34,0,.59.27.79.56.69,1,1.39,2,2.09,3h-.16v0a22.21,22.21,0,0,0,3.69,2.28,3.18,3.18,0,0,0,1.49.41,1.15,1.15,0,0,0,1.13-.9,1.74,1.74,0,0,0-.6-1.27,122.25,122.25,0,0,0-9.71-9.74,57.92,57.92,0,0,0-.93,8.09l0,.23a6.26,6.26,0,0,0,1.44-1.12l0,0A2.38,2.38,0,0,0,889.4,296.24Z" transform="translate(-702.4 -80.62)"/><path d="M915.59,294.16a1.89,1.89,0,0,0,.69-.47l-.11-.34a122.67,122.67,0,0,0-20.34-17.59c-2.29-1.58-4.72-3.12-7.46-3.56-5.54-.92-10.92,2.9-14,7.63a6.94,6.94,0,0,0-1.33,3.44,8.27,8.27,0,0,0,.55,2.76c.83,2.51,1.65,5,2.46,7.56l.09.28c1.51-1.59.26-4.25-.14-6.47a9,9,0,0,1,4.42-8.87,13.55,13.55,0,0,1,10.19-1.18,28.44,28.44,0,0,1,9.36,4.7,64.13,64.13,0,0,1,11,9.86,8.14,8.14,0,0,0,2.36,2.1A2.92,2.92,0,0,0,915.59,294.16Z" transform="translate(-702.4 -80.62)"/><path d="M1025.66,268.89a19.58,19.58,0,0,0,6.07-4.49c2.1-2.47,3.18-5.65,4.22-8.74,1.32-3.94,2.64-7.91,3.7-11.93-.55,1-1.12,1.92-1.72,2.87-2.18,9.83-9.47,17.81-17.35,24.13l-.33,0c0,.26,0,.53,0,.8a17.67,17.67,0,0,0,5.44-2.45Z" transform="translate(-702.4 -80.62)"/><path class="cls-3" d="M1023.3,262.52a5.55,5.55,0,0,1-1.56.32c-.31.5-.62,1-.91,1.52l-.77.07c.07,2.11.14,4.22.19,6.33l.33,0c7.88-6.32,15.17-14.3,17.35-24.13a58.31,58.31,0,0,1-14.66,15.62Z" transform="translate(-702.4 -80.62)"/><path class="cls-3" d="M1021.74,262.84a68.1,68.1,0,0,1,10.58-13.11,17.65,17.65,0,0,0,3.52-4.06,15.51,15.51,0,0,0,1.38-4.52l4.89-24.91,0-.19a90.87,90.87,0,0,1-10.93,6.24,22.4,22.4,0,0,1-3.13,1.29c-3,.91-6.26.65-9.4.38l-.06-1-.27.05-.33.08q1.45,20.63,2.11,41.29l.77-.07C1021.12,263.84,1021.43,263.34,1021.74,262.84Zm4-13.54,0-.07c1.08-1.63,1.73-3.48.81-5.09-.63-1.08-1.82-1.69-2.68-2.61a5.23,5.23,0,0,1-1.19-4.93l0-.62a25.28,25.28,0,0,1,10.1-9.73l.12.76a30.21,30.21,0,0,1-3.46,4.22,6.84,6.84,0,0,0-1.93,5c.22,1.81,2.12,3.46,3.83,2.83,1.11,2.3-.52,5-2.32,6.78A26,26,0,0,0,1025.78,249.3Z" transform="translate(-702.4 -80.62)"/><path d="M975.83,264l1-.42a12.93,12.93,0,0,0,.51-1.6,12.56,12.56,0,0,0,.25-4.53l-.06,0c-2.22-1.3-2.38-4.38-2.25-6.95A328.68,328.68,0,0,1,979.12,215l.09-.56-.28-.14-.24,0,0,.46c-2.58,2.8-3.07,6.88-3.42,10.68q-.91,9.92-1.72,19.82c-.33,4.05-.64,8.19.38,12.13.49,1.92,1.3,3.76,1.72,5.7C975.73,263.44,975.78,263.74,975.83,264Z" transform="translate(-702.4 -80.62)"/><path d="M1037.93,246.6c.6-.95,1.17-1.9,1.72-2.87a60.16,60.16,0,0,0,2.18-13.95c.1-4.26-.4-8.61.8-12.7a1.56,1.56,0,0,0,0-1.27.53.53,0,0,0-.12-.14l0,.09-.43.29,0,.19-4.89,24.91a15.51,15.51,0,0,1-1.38,4.52,17.65,17.65,0,0,1-3.52,4.06,68.1,68.1,0,0,0-10.58,13.11,5.55,5.55,0,0,0,1.56-.32l0-.3A58.31,58.31,0,0,0,1037.93,246.6Z" transform="translate(-702.4 -80.62)"/><path d="M885.63,246.34l.13.2c.25-.31.49-.63.74-.93a1.39,1.39,0,0,0-1.47-.38,3.62,3.62,0,0,0-1.34.86,17.77,17.77,0,0,0-4.14,5.69,3.45,3.45,0,0,0-.4,1.43,4.69,4.69,0,0,0,.65,1.88A2.44,2.44,0,0,1,880,257c-.26.61-1.2.91-1.6.38.59,2,2.87,2.78,4.85,3.32a29.37,29.37,0,0,0,2.91.71,17.77,17.77,0,0,0,6.38,0c.31-.06.69-.19.73-.51a.76.76,0,0,0-.28-.61c-2.19-2.46-4.51-5-7.6-6.16-.57-.21-1.24-.44-1.48-1a2,2,0,0,1-.05-1.08A20.61,20.61,0,0,1,885.63,246.34Z" transform="translate(-702.4 -80.62)"/><path d="M1025.75,249.23l0,.07a26,26,0,0,1,3.23-3.5c1.8-1.8,3.43-4.48,2.32-6.78-1.71.63-3.61-1-3.83-2.83a6.84,6.84,0,0,1,1.93-5,30.21,30.21,0,0,0,3.46-4.22l-.12-.76a25.28,25.28,0,0,0-10.1,9.73l0,.62a5.23,5.23,0,0,0,1.19,4.93c.86.92,2.05,1.53,2.68,2.61C1027.48,245.75,1026.83,247.6,1025.75,249.23Z" transform="translate(-702.4 -80.62)"/><path d="M914.75,215.67a28.61,28.61,0,0,0,1.83-8c.07-.91.1-1.82.08-2.73a36.77,36.77,0,0,0-8.11,17.4c-.28,1.62-.12,3.79,1.47,4.23,1.13.32,2.25-.55,3-1.47l-.16-.53c4.17-3.92,10.53-4.56,16.33-5a2.78,2.78,0,0,1,1.76.27,6.78,6.78,0,0,1,.9.95,2.44,2.44,0,0,0,2.27.62c-.9-.43-.35-2,.61-2.24a2.51,2.51,0,0,1,.77-.1,18.9,18.9,0,0,1,2.19.37c2.07.28,4.13-.68,6.22-.58.72,0,1.6.39,1.61,1.1s-.68,1-1.27,1.29c-2,.84-4,1.59-6.1,2.26s-4.27,1.3-6.45,1.81v.41c1.35.11,2.69.23,4,.38a25.28,25.28,0,0,0,6.44.18,12.09,12.09,0,0,0,9.31-7.4l.16-.1c5.7.32,11.56.61,17-1.19,1.37-.46,2.7-1,4-1.57a29.67,29.67,0,0,1,6.05-1.67l.24,0,.28.14c.16-1,.33-2,.49-3l-.59-.3a50.57,50.57,0,0,1-2.64-7.08c-.36-1.27-1-2.82-2.31-2.86a3.5,3.5,0,0,0-1.9.81,14.74,14.74,0,0,1-10.52,2.25c.58-1,1.8-1.44,2.8-2.07s1.89-1.87,1.31-2.9l-.2-.22c-3.45,1-6,3.94-9.3,5.46a12.81,12.81,0,0,1-7.32,1,1.55,1.55,0,0,1-.84-.3,1.82,1.82,0,0,1-.46-.75A12.64,12.64,0,0,0,945.9,201c-1.38-1.67-3.83-2.85-3.83-5l-1.05.49a4,4,0,0,0,0,1.83c.51,2.31,2.7,4.41,3.1,6.87a1.26,1.26,0,0,1-.17,1.06,1.53,1.53,0,0,1-1,.35c-7,.56-13.74,3.05-20.35,5.51A41.7,41.7,0,0,0,914.75,215.67Z" transform="translate(-702.4 -80.62)"/><path class="cls-6" d="M935.28,220.1l.2-1v-.07a2.51,2.51,0,0,0-.77.1c-1,.28-1.51,1.81-.61,2.24a2.44,2.44,0,0,1-2.27-.62,6.78,6.78,0,0,0-.9-.95,2.78,2.78,0,0,0-1.76-.27c-5.8.39-12.16,1-16.33,5l.16.53a181.82,181.82,0,0,1,18.67.68v-.41c2.18-.51,4.33-1.12,6.45-1.81l0-.15c-.91-1.06-1.82-2.13-2.74-3.19Z" transform="translate(-702.4 -80.62)"/><path d="M864.87,205.25A15.89,15.89,0,0,0,867,199c0-.17,0-.33,0-.5s-.08-.68-.36-.64a.55.55,0,0,0-.24.15,46.48,46.48,0,0,0-4.3,4.57l-.3-.78-1-.09a97.08,97.08,0,0,1-2.59,20.75l.17,1.31c-.06.25-.13.5-.18.74l.13.1a4.22,4.22,0,0,0,1.66-2.35c.28-1.06.27-2.44,1.26-2.92a2,2,0,0,1,2.11.51c.58.51,1,1.18,1.54,1.72a4.39,4.39,0,0,0,4.23,1l.06-.4c-.1,0-.19-.1-.29-.15-2.29-1.35-3.26-4.12-4-6.66l0-.64a9.36,9.36,0,0,1,3.41.93,2.16,2.16,0,0,1,1.22,1.09,4.35,4.35,0,0,1,0,1.61,2.2,2.2,0,0,0,1.7,2.22,1.56,1.56,0,0,0,1.72-1.87,3.84,3.84,0,0,1,3.3,3,1,1,0,0,1,0,.69.91.91,0,0,1-.68.38,1.16,1.16,0,0,0,.54,1.1,3.2,3.2,0,0,0,1.36.4,1.51,1.51,0,0,0,.87,0c.65-.3.61-1.22.46-1.92-1.25-5.68-2.77-11.31-4.57-16.84a4,4,0,0,0-.92,0l0,.65c.07,1.22.15,2.44.22,3.65a.7.7,0,0,1-.12.55.69.69,0,0,1-.55.11C869.65,210.07,867.69,206.78,864.87,205.25Z" transform="translate(-702.4 -80.62)"/><path d="M1022.74,222.12l-4.19.89.06,1c3.14.27,6.38.53,9.4-.38a22.4,22.4,0,0,0,3.13-1.29,90.87,90.87,0,0,0,10.93-6.24l.43-.29,0-.09c-.4-.4-1.16-.25-1.73,0Z" transform="translate(-702.4 -80.62)"/><path class="cls-12" d="M938.11,223.36l0,.15c2.06-.67,4.1-1.42,6.1-2.26.59-.25,1.28-.64,1.27-1.29s-.89-1.06-1.61-1.1c-2.09-.1-4.15.86-6.22.58a18.9,18.9,0,0,0-2.19-.37v.07l-.2,1,.09.07C936.29,221.23,937.2,222.3,938.11,223.36Z" transform="translate(-702.4 -80.62)"/><path class="cls-12" d="M875.52,222.79a.91.91,0,0,0,.68-.38,1,1,0,0,0,0-.69,3.84,3.84,0,0,0-3.3-3,1.56,1.56,0,0,1-1.72,1.87l-.12,2.21a16.94,16.94,0,0,0,4.09.05A1.24,1.24,0,0,0,875.52,222.79Z" transform="translate(-702.4 -80.62)"/><path class="cls-6" d="M871.1,222.78l.12-2.21a2.2,2.2,0,0,1-1.7-2.22,4.35,4.35,0,0,0,0-1.61,2.16,2.16,0,0,0-1.22-1.09,9.36,9.36,0,0,0-3.41-.93l0,.64c.78,2.54,1.75,5.31,4,6.66.1,0,.19.11.29.15A6.46,6.46,0,0,0,871.1,222.78Z" transform="translate(-702.4 -80.62)"/><path class="cls-11" d="M914.75,215.67a41.7,41.7,0,0,1,7.84-3.56c6.61-2.46,13.32-5,20.35-5.51a1.53,1.53,0,0,0,1-.35,1.26,1.26,0,0,0,.17-1.06c-.4-2.46-2.59-4.56-3.1-6.87-1.24-.77-1.59-2.72-3-3.18a3.41,3.41,0,0,0-1.65,0,64.64,64.64,0,0,0-12.07,4c-2.08.84-4.29,1.78-5.55,3.65-1,1.46-1.29,3.36-2.19,4.83A28.61,28.61,0,0,1,914.75,215.67Z" transform="translate(-702.4 -80.62)"/><path class="cls-11" d="M872.84,210.45a.69.69,0,0,0,.55-.11.7.7,0,0,0,.12-.55c-.07-1.21-.15-2.43-.22-3.65l0-.65a3.44,3.44,0,0,0-.88.22c-.67-3-2.52-5.85-5.39-6.72a15.89,15.89,0,0,1-2.12,6.26C867.69,206.78,869.65,210.07,872.84,210.45Z" transform="translate(-702.4 -80.62)"/><path d="M862.77,183.18l.23-4.53.42-8.5A71.86,71.86,0,0,1,865.07,156a4.71,4.71,0,0,1,1.41-2.66,5,5,0,0,1,3.22-.63q23.43.89,46.87,1.74v.23c9.84-.59,19.91-1.09,29.32,1.83a67,67,0,0,1,15.69,7.75,41.46,41.46,0,0,1,6.84,5.09c5.34,5.19,7.91,12.65,9.1,20,1.16,7.17,1.18,14.49,2.24,21.68a63.66,63.66,0,0,0,1.08-14.62c-.41-5.86-2.25-11.53-4.09-17.12a49.73,49.73,0,0,0-3.85-9.54c-6.27-11-19.62-15.72-32.14-17.56-10-1.46-20.19-1.62-30.33-1.77q-23.58-.39-47.17-.74l-.58.27a6,6,0,0,0,.3,3.54l0,0c-3.48,15.65-1.71,32.07-2.22,48.16l1,.09Z" transform="translate(-702.4 -80.62)"/><path d="M911.24,197.69a1.23,1.23,0,0,0,.87.07c3.18-.52,6.07-2.13,8.89-3.7q13-7.26,26-14.52a14.87,14.87,0,0,1,5.84-2.24c3.28-.26,6.27,1.65,9.17,3.2s6.46,2.8,9.37,1.27l.09-.22c-4.14-5.07-8.83-10.29-15.2-11.59-6.56-1.33-13.1,1.84-19,4.93l-28.86,15,0,0q1.23,3.53,2.47,7A1.24,1.24,0,0,0,911.24,197.69Z" transform="translate(-702.4 -80.62)"/><path d="M875.79,195.74l2.2-3.12a1.56,1.56,0,0,0,.43-1.23,1.53,1.53,0,0,0-.63-.79l-14.74-11.94h0l-.23,4.53a14.72,14.72,0,0,0,3.62,6.11C869,192,872.44,193.91,875.79,195.74Z" transform="translate(-702.4 -80.62)"/><text class="cls-13" transform="matrix(0.41, -0.91, 0.91, 0.41, 21.59, 743.54)">ANGELDUST DUKE</text></svg>