<svg id="Layer_2" data-name="Layer 2" xmlns="http://www.w3.org/2000/svg" viewBox="0 0 1083.82 883.53"><defs><style>.cls-1{fill:#ff7bac;}.cls-2{fill:#ebc2b0;}.cls-3{fill:#fff;}.cls-4{fill:#efc0b0;}.cls-5{fill:#fb7cab;}.cls-6{fill:#f75766;}.cls-7{fill:#f15561;}.cls-8{fill:#f1c3b3;}.cls-10,.cls-11,.cls-9{fill:none;stroke:#000;stroke-miterlimit:10;}.cls-9{stroke-width:2px;}.cls-11{stroke-width:0.25px;}</style></defs><path class="cls-1" d="M1127.1,890.41A488.44,488.44,0,0,0,1214.52,847c14.37-9,28.63-19.18,38.54-32.79.25-.34.5-.68.74-1q1.64-2.33,3.09-4.78c2.39-4,4.42-8.41,7.77-11.71a15.63,15.63,0,0,1,2.86-2.24,46.92,46.92,0,0,0,17.38-8.66l0,0q1.26-1,2.46-2.1l2.72,1.1c-3.23,26.63-14.1,51.87-17.44,78.48-2.77,22.07-.28,44.44,2.61,66.5h.14c1,15.76,4.14,31.55,11.11,45.71,7.07,14.37,18.28,27,32.66,34a95.58,95.58,0,0,0,14.15,5.32,124.89,124.89,0,0,0,28.68,5.6c38.91,2.32,75.51-21,114.49-21l0,.32a27.12,27.12,0,0,1,6.41-.28c1.7.54,3.4,1.12,5.08,1.74a133.5,133.5,0,0,1,32.88,17.44l0-.29,10.21,6.46h.64l.18,28.35h-1q-177.78-.74-355.84-1.21v-1a29,29,0,0,0,7.4-15.13l.91-.65c1.43-7-5.82-12.36-10.35-18a33.06,33.06,0,0,1-4.21-6.88c-2.49-5.38-3.91-11.37-5.61-17.11a148.14,148.14,0,0,0-24.16-47.59c-1.1-1.44-2.22-2.85-3.36-4.25l.53-.43q-9.36-14.49-17.5-29.71l-1.1-2.08c-2.17-4.22-4.14-8.61-4.82-13.24l.36,0A36.81,36.81,0,0,1,1127.1,890.41Z" transform="translate(-448.65 -172)"/><path class="cls-1" d="M1494.81,652.18c-8.44,13.87-20.39,25.34-28.82,39.23-5.65,9.3-9.6,19.51-13.53,29.65q-16.29,42.08-32.57,84.13l.14.87c-7.6,13.63-11.21,29.11-13.48,44.55-2.9,19.69-3.64,40.46,4,58.83,4.46,10.72,14.07,21.34,25.58,19.79a3.25,3.25,0,0,0,2.2-1,3.56,3.56,0,0,0,.41-2.6c-1.73-16.29-7.12-32-9.47-48.21a131.43,131.43,0,0,1,10.48-73l-.7-.38a1057.92,1057.92,0,0,0,56.69-120.6c4-10,7.39-22.67.12-30.67ZM1275.44,929.75h-.14c-2.89-22.06-5.38-44.43-2.61-66.5,3.34-26.61,14.21-51.85,17.44-78.48l-2.72-1.1a86.88,86.88,0,0,0,6.73-7,106.35,106.35,0,0,0,11.6-15.55,91.12,91.12,0,0,0,10.49-19.89l-1.16-.67c13.86-25.66,37.75-45.37,49.22-72.22l.55-.23a157.41,157.41,0,0,0,7.82-26.21c6-28.62,5.16-58.85,4.18-88.32a12.16,12.16,0,0,0-.73-4.43c3.27-2.93,7.49-4.8,11.78-6.6a92.25,92.25,0,0,0,8.91-4c7.26-4,13-10.22,18.53-16.35,9.93-10.93,20.08-22.23,25.28-36a96,96,0,0,0,27.45-65.5l-.43,0c.11-2.46.17-4.93.19-7.39h.44c1.61,4.84,3.76,10.26,8.54,12,7,2.6,13.64-4.26,18-10.34a15,15,0,0,0,2.82-5.38,10.39,10.39,0,0,0,0-3.77c-.58-3.6-2-8.09.9-10.3,1.3-1,3.1-1.07,4.52-1.88,2.61-1.48,3.3-5,2.69-8s-2.18-5.59-3.06-8.46c-2.44-7.95.64-16.79-1.78-24.75-1.88-6.17-6.76-10.85-10.87-15.82a77.21,77.21,0,0,1-17.24-41.25l.31-.5c1.16.71,2.33,1.41,3.47,2.12,20.52,12.78,34.89,35.15,37.59,59.18,1.4,12.44-.18,25-.81,37.51a6.82,6.82,0,0,0,.48,3.59c.73,1.35,2.26,2.05,3.68,2.65l11.44,4.83,1,.24q-.17,310.11,1.86,619.83h-.64l-10.21-6.46,0,.29a133.5,133.5,0,0,0-32.88-17.44,10.9,10.9,0,0,0-5.08-1.74,27.12,27.12,0,0,0-6.41.28l0-.32c-39,0-75.58,23.29-114.49,21a124.89,124.89,0,0,1-28.68-5.6,95.58,95.58,0,0,1-14.15-5.32c-14.38-7-25.59-19.66-32.66-34C1279.58,961.3,1276.41,945.51,1275.44,929.75Z" transform="translate(-448.65 -172)"/><path class="cls-1" d="M1505.7,385.66c.61,2.94-.08,6.5-2.69,8-1.42.81-3.22.89-4.52,1.88-2.91,2.21-1.48,6.7-.9,10.3a10.39,10.39,0,0,1,0,3.77,15,15,0,0,1-2.82,5.38c-4.33,6.08-11,12.94-18,10.34-4.78-1.77-6.93-7.19-8.54-12h-.44a239.24,239.24,0,0,0-14.5-84.47c-.2-.56-.4-1.11-.61-1.66-10.75-28.69-26.9-55-42.83-81.18-3-4.87-6-9.94-6.64-15.6l.81-1.72,2,1.33,25.33,17.21c5.13,3.48,10.28,7,14.74,11.28,8.26,8,13.76,18.34,19.11,28.51l-.55.9c2.17,3,5.25,5.06,8.42,7l-.31.5A77.21,77.21,0,0,0,1490,336.63c4.11,5,9,9.65,10.87,15.82,2.42,8-.66,16.8,1.78,24.75C1503.52,380.07,1505.09,382.72,1505.7,385.66Z" transform="translate(-448.65 -172)"/><path class="cls-1" d="M1439.07,804.11l.7.38a131.43,131.43,0,0,0-10.48,73c2.35,16.22,7.74,31.92,9.47,48.21a3.56,3.56,0,0,1-.41,2.6,3.25,3.25,0,0,1-2.2,1c-11.51,1.55-21.12-9.07-25.58-19.79-7.66-18.37-6.92-39.14-4-58.83,2.27-15.44,5.88-30.92,13.48-44.55l-.14-.87q16.29-42.06,32.57-84.13c3.93-10.14,7.88-20.35,13.53-29.65,8.43-13.89,20.38-25.36,28.82-39.23l1.07.66c7.27,8,3.85,20.62-.12,30.67A1057.92,1057.92,0,0,1,1439.07,804.11Z" transform="translate(-448.65 -172)"/><path class="cls-1" d="M1451.27,329.56l2-.75a239.24,239.24,0,0,1,14.5,84.47c0,2.46-.08,4.93-.19,7.39l.43,0a96,96,0,0,1-27.45,65.5c.1-.26.2-.51.29-.77,2.93-8.09,4-16.72,4.72-25.29a313.8,313.8,0,0,0,.2-49.34l-.46-.54c.24-16.18-11.7-30.11-14.89-45.87,2.43,9.2,11.29,16.3,15.46,25.28,3.87,8.33,4.18,19.09,11.62,24.47a84.06,84.06,0,0,0,.75-12.58c-.38-23.05-10.2-45.09-11.19-68.12-.06-1.49,0-3.19,1.08-4.21A2.18,2.18,0,0,1,1451.27,329.56Z" transform="translate(-448.65 -172)"/><path class="cls-1" d="M1430.44,364.25c-.26-1.31-.46-2.63-.59-4A17.86,17.86,0,0,0,1430.44,364.25ZM881.67,705c-5.66,13.12-14.31,24.87-21.44,37.33l-.36,1.63a47.77,47.77,0,0,0,8.7,1.15c9.44.36,18.71-2.3,27.73-5.12,15.06-4.71,30.87-10.6,40.28-23.25l-10.41,3.3c-9.06,2.88-18.61,5.79-27.92,3.88C889.26,722.08,880.85,714,881.67,705Zm6.12-17.15.16,0c.63.27.65,1.14.59,1.82a24.26,24.26,0,0,0,4.35,15.7c5.38,7.59,14.94,11.48,24.24,11.73s18.42-2.72,26.89-6.58a33.57,33.57,0,0,0,7.33-4.22c4.17-3.35,6.79-8.26,8.9-13.18a103.87,103.87,0,0,0,7.52-27.44l-1.07-1.06c7.18-8.35,5.71-20.79,4.11-31.68a627.78,627.78,0,0,1-6.58-98.2l-2.06-.52a122.91,122.91,0,0,0-20.68,30.61l-.11,1.14a736.67,736.67,0,0,0-53.26,121.3Zm-432,363.08a5.84,5.84,0,0,0-1.73,1,8.14,8.14,0,0,1-2-1.36q-.72-126.84-1.18-253.88c32.52-29.1,58.65-65.2,93.57-91.38,8-6,16.57-11.59,22.6-19.57a60.61,60.61,0,0,0,7.67-14.19,100.92,100.92,0,0,0,6.93-43.48l-1.2-.25c2.83-13.74-4.14-27.44-6.9-41.23-.84-4.21-1.29-8.48-1.74-12.75l-3-28.58-.64-.07c1.4-12.56,1.64-25.34-.88-37.71-2.37-11.63-7.33-22.91-15.22-31.71l.73-.67c-11.5-17.2-30.48-27.73-49.17-36.6q-26.24-12.46-53.6-22.27-.08-80.89,0-161.79l0-.62a88.78,88.78,0,0,1,61.43,21.92c2.37,2.09,4.73,4.49,5.45,7.57.76,3.24-.44,6.63-.18,9.95.61,7.74,8.41,12.44,13.9,17.92,7.59,7.58,11.37,18,16.06,27.67s11.22,19.4,21.35,22.92l.14.15a120,120,0,0,1,35.58,44.24c6.69-7.63,14.88-13.81,23-19.93C671,352.8,715.86,319.05,766.43,296l.85,1.53C824,263,889.57,246.6,954,230.7l20.88-5.15,1.05,2.51a516.38,516.38,0,0,1,63.16-22c9.43-2.62,18.95-5,28.58-6.69,9.94-1.79,20-2.91,29.8-5.43,11.69-3,22.82-8,34.55-10.81,10.31-2.5,21-3.34,31.52-4.17l69.21-5.42c13-1,27.75-1.45,37.43,7l.06-.07c29.44-1.63,57.72,10.36,84.75,22.11,11.93,5.19,23.9,10.4,35.09,17,4.75,2.82,9.35,5.9,13.93,9l-.81,1.72c.65,5.66,3.68,10.73,6.64,15.6,15.93,26.18,32.08,52.49,42.83,81.18.21.55.41,1.1.61,1.66l-2,.75a2.18,2.18,0,0,0-3.08-.34c-1.09,1-1.14,2.72-1.08,4.21,1,23,10.81,45.07,11.19,68.12a84.06,84.06,0,0,1-.75,12.58c-7.44-5.38-7.75-16.14-11.62-24.47-4.17-9-13-16.08-15.46-25.28,3.19,15.76,15.13,29.69,14.89,45.87l.46.54a313.8,313.8,0,0,1-.2,49.34c-.71,8.57-1.79,17.2-4.72,25.29-.09.26-.19.51-.29.77-5.2,13.79-15.35,25.09-25.28,36-5.57,6.13-11.27,12.37-18.53,16.35a92.25,92.25,0,0,1-8.91,4c-4.29,1.8-8.51,3.67-11.78,6.6a5.31,5.31,0,0,0-.44-.81,9.14,9.14,0,0,0-4.38-3c-10-4-20.8-4.94-31.33-7-25.79-5-49.84-16.32-73.58-27.57l-1.71.23c-7.33-3.72-16-4.15-23.48-7.53-7.18-3.24-12.89-9-19.36-13.45-14.3-9.93-31.91-13.58-49-16.63-32.15-5.72-65.75-10.05-97-.67l-1.08-1-18.22,6.46c-6.62,2.35-13.5,4.86-18.29,10-6.53,7-7.78,17.25-9.08,26.74a358.71,358.71,0,0,1-17.47,71.48l.68.24c-6,23.86-9.2,48.39-16.15,72-6.84,23.21-17.81,46-36.11,61.78l.74.86c-14,12.39-31.71,20.05-49.95,24.09s-36.82,4.62-55.37,4.17v.12c-.61,7.89-5.93,14.52-11,20.59L831,786.45l.28.25-14.55,16A105.62,105.62,0,0,1,786.12,828l-.55.06c-55,32.94-127.25,26.72-181.23,61.29A64,64,0,0,0,591,900.09,62.54,62.54,0,0,0,581.93,914,126.89,126.89,0,0,0,570,989.89l-2.45.13c17.78,9.92,30.71,26.44,42.21,43.34l.74-.51a92.08,92.08,0,0,1,13.34,18.29q-84,0-168,0Zm545.58-530.37c2-4.36,4.62-9.2,3-13.71q-14.57,9.69-28.27,20.57l-.72,1.3a304.38,304.38,0,0,0-1.38,87.4c2.17-.88,3-3.46,3.54-5.74L993,547.08C995.18,538.06,997.41,529,1001.37,520.57Z" transform="translate(-448.65 -172)"/><path class="cls-2" d="M1061.93,739.41l2.79,1c-.24,1.59-.49,3.18-.74,4.76l15.47,6.84a6.17,6.17,0,0,1,2.06,1.24c.52.52.84,1.22,1.4,1.69,1.81,1.52,4.82-.41,5.08-2.76s-1.28-4.5-2.92-6.2a31,31,0,0,0-11.24-7.41c-2.92-1.11-6.19-1.77-9.16-.79A7.49,7.49,0,0,0,1061.93,739.41Zm43-258.95a434.11,434.11,0,0,0,41.27,25.39c5.75,3.1,11.85,6.35,15.19,12a33.9,33.9,0,0,1,3.29,9,521.32,521.32,0,0,1,11.44,57.54l-1.37.2a163.44,163.44,0,0,0,5.53,28c.92,3.18,2.45,6.82,5.69,7.51a16.51,16.51,0,0,1,2.23.4c2,.69,2.66,3,3.94,4.63a7.07,7.07,0,0,0,6.48,2.58,1.93,1.93,0,0,0,1.51-.82,2.15,2.15,0,0,0,.11-1.26c-1.26-10.83-8.92-21-6.51-31.67l.14-.11q-1.53-13.18-3.08-26.38c-1.77-15.17-3.75-30.93-12-43.76-7.9-12.25-20.7-20.44-33.64-27.17s-26.55-12.47-38-21.52l-1.4-.12a3.3,3.3,0,0,0-.68,5.43ZM1090.41,636l-.08-.17a7,7,0,0,0,1.83-7.06c4.32.93,7.15-4.45,7.78-8.83s1.42-9.83,5.62-11.19a5.17,5.17,0,0,1,1.24,1.43c2,3.43-.6,8.69-2.4,12.79a27.4,27.4,0,0,0,3.11,26.82l.64,0a7.16,7.16,0,0,1,8,5.65c1.43-.55,1.89-2.37,1.78-3.9s-.6-3.08-.24-4.57,2.14-2.78,3.42-1.92a3.44,3.44,0,0,1,1.14,2.36c.47,2.5,1,5.13,2.74,7s5,2.56,6.75.73c2-3.58.57-8.07-1.37-11.68s-4.45-7.14-4.66-11.22a2,2,0,0,1,.39-1.56,1.3,1.3,0,0,1,.51-.32,5.09,5.09,0,0,1,1-.21c7.15-1,10.6-9.12,16.06-13.84,2.4-2.08,5.28-3.53,7.69-5.6,3.22-2.77,5.43-6.49,7.47-10.23l.72-1.34,1.08-1c-7.48-8.42-14.91-16.88-21-26.34-10.31-16-17.29-35.39-32.46-46.51a13.91,13.91,0,0,1-.11,7.19c-.22.74-.61,1.57-1.37,1.75a2.24,2.24,0,0,1-1.35-.26c-3.52-1.53-6.3-4.32-9.05-7a239.38,239.38,0,0,0-24.85-20.9,37.94,37.94,0,0,0-8.22-4.92l-.22.5L1059.6,507a4.67,4.67,0,0,0-.62,2.42,4.61,4.61,0,0,0,1.5,2.43q6.45,6.75,12.7,13.68l-1.83,1.65c-2.32-2.69-7.6-2.2-9-5.54-2,1.17-1.16,4.27.23,6.11s3.24,4,2.48,6.15a12,12,0,0,1-5.15-8c-2.43-.18-3.46,3.38-2.3,5.53s3.42,3.46,4.88,5.42a38.6,38.6,0,0,1,2.36,4.22,25.62,25.62,0,0,0,6.4,7,69.51,69.51,0,0,0,23.56,12.55l-.33,1.11c-3.35,1-6.94-.14-10.18-1.45a95.88,95.88,0,0,1-25-15l-.07.08a28.14,28.14,0,0,0,8,20.68l-3.79,1.41,4.58,7.07a9.25,9.25,0,0,1-6.42-2.56c-2.34,2-.61,5.89,1.53,8.13s4.84,4.93,3.93,7.9a5.6,5.6,0,0,1,5.51,3.22l-6.15.7A11.09,11.09,0,0,0,1077,598a4.19,4.19,0,0,1-4.89,2.93,4.11,4.11,0,0,0-.16,1.87l-.35,0c-2.89.51-4.59,3.6-5.08,6.49s-.19,5.91-1.08,8.7-2.71,4.87-3.84,7.42c-2.28,5.15-1.38,11.15-2.76,16.61-1.27,5-4.41,9.35-7.47,13.53l-18.42,25.11c-1.8,1.87-3.26,4.23-2.17,6.41.79,1.58,2.65,2.3,4.39,2.54,7.43,1,14.4-4.39,18.32-10.78s5.7-13.85,8.86-20.66,8.37-13.39,15.71-14.95a7.49,7.49,0,0,0,3-1c1.43-1.06,1.68-3.17,3-4.36s3.25-1.11,5-1.42A5.69,5.69,0,0,0,1090.41,636ZM936.64,768.72q1.82,17.68,3.61,35.39a133.76,133.76,0,0,0,2.63,17.83,67.28,67.28,0,0,0,23,36.3l.12-.11a9.89,9.89,0,0,0,2.7,2c-11.37,25.14-40.31,41.86-51.33,67.76-.41,1-.8,2-1.16,2.94l-1.68,0c-6.39,2.08-13.58-.12-18.94-4.18-.62-.47-1.22-1-1.8-1.48-4.1-3.62-7.28-8.22-10.2-12.89l-.7-1.14c-19.84-32.3-32.75-68.27-45.52-104-2.39-6.67-4.8-13.45-5.2-20.52l-.47-.43-.43.47-.28-.25,13.47-16.07c5.09-6.07,10.41-12.7,11-20.59v-.12c18.55.45,37.26-.15,55.37-4.17s36-11.7,49.95-24.09l-.74-.86c18.3-15.76,29.27-38.57,36.11-61.78,7-23.59,10.16-48.12,16.15-72l-.68-.24a358.71,358.71,0,0,0,17.47-71.48c1.3-9.49,2.55-19.74,9.08-26.74,4.79-5.14,11.67-7.65,18.29-10l18.22-6.46,1.08,1c31.28-9.38,64.88-5.05,97,.67,17.14,3.05,34.75,6.7,49,16.63,6.47,4.49,12.18,10.21,19.36,13.45,7.51,3.38,16.15,3.81,23.48,7.53l1.71-.23c23.74,11.25,47.79,22.6,73.58,27.57,10.53,2,21.37,3,31.33,7a9.14,9.14,0,0,1,4.38,3,5.31,5.31,0,0,1,.44.81,12.16,12.16,0,0,1,.73,4.43c1,29.47,1.84,59.7-4.18,88.32a157.41,157.41,0,0,1-7.82,26.21l-.55.23c-11.47,26.85-35.36,46.56-49.22,72.22l1.16.67a91.12,91.12,0,0,1-10.49,19.89,58,58,0,0,0,7-16.92l-1.16-1.78A147.84,147.84,0,0,1,1294,732.8c-4-2.68-7.68-5.74-11.46-8.7a302,302,0,0,0-42.59-28l-1.22.26c-.81,8.26,2.54,16.52,7.62,23.07s11.81,11.64,18.62,16.38q8.52,5.91,17.41,11.27c4.44,2.67,9.05,5.34,12.19,9.46s4.42,10.13,1.6,14.47l1.32,1c-4,4.76-8.25,9.34-12.58,13.82a46.59,46.59,0,0,1-11.47,6.7,12.76,12.76,0,0,0-5.91,2,15.63,15.63,0,0,0-2.86,2.24c-3.35,3.3-5.38,7.66-7.77,11.71q-1.46,2.46-3.09,4.78l-.14-.1c-.91.48-1.71-.81-1.92-1.82a3.89,3.89,0,0,0-.58-1.36,28.23,28.23,0,0,0-1.1-18.21l.46-.19c1,1,2.55-.23,3.29-1.38,6.25-9.65,6.93-22.08,4.39-33.3s-8-21.52-13.38-31.68q-3.09-5.8-6.16-11.61-3.72-7-7.43-14l-2.57-1.12a27.43,27.43,0,0,0,6.41-6.22,43.86,43.86,0,0,0-8.55,2l-2.42,0c-8.41,2.33-18.14-1.1-25.72,3.23-3,1.73-5.29,4.51-7.48,7.22l-.64.8-14.34,17.76-5.72,7.09a11.51,11.51,0,0,0-1.18.13,4.79,4.79,0,0,0,.33.92c2.38,5.21,12.56,6.34,11.51,12.12a13.29,13.29,0,0,1-6.65,1,9.53,9.53,0,0,0,2.33,6.39l-.49.15a20.33,20.33,0,0,1-.78,3.64,20.61,20.61,0,0,1-4.32,7.65c-4.16,4.64-10.41,7.38-13.5,12.79h-.17c-.24,2.8-.23,5.83,1.65,7.86,2.41,2.59,6.63,2.18,10,1a31.3,31.3,0,0,0,16.61-14l1.07,0a15.73,15.73,0,0,1,.61,2.7,9.61,9.61,0,0,0,1,4.06,7.5,7.5,0,0,0,3.06,2.33l14.31,7.4a23,23,0,0,0-4.6,18.61,7.57,7.57,0,0,0,1.85-7,137.66,137.66,0,0,1,16,19.28,7.72,7.72,0,0,0-.34-10.93,8.63,8.63,0,0,1,8.6,7l1.17-6.93a25.31,25.31,0,0,0,18,10,28.2,28.2,0,0,0,6.73-2.25l0,0c-9.91,13.61-24.17,23.78-38.54,32.79a488.44,488.44,0,0,1-87.42,43.38,36.81,36.81,0,0,0-13.85,5.55l-.36,0a20.35,20.35,0,0,1-.23-2.22c-.33-6.52,2.15-12.82,4.73-18.81s5.34-12.12,5.61-18.64-2.61-13.64-8.55-16.33c-4.23-1.91-9.12-1.29-13.71-.62l-35.65,5.16c-2.27.33-4.55.66-6.84,1l-.06-.4c4.65-4.29,4.9-11.77,2.59-17.66s-6.64-10.71-10.36-15.83c-9.15-12.61-15.05-27.8-26.61-38.25-9.88-8.94-23-13.49-36.08-16s-26.44-3.2-39.54-5.58v.08a6,6,0,0,0-.74,5.82v0a45.51,45.51,0,0,0,9.92,11.38l-2,.5a23.21,23.21,0,0,0-2-1.38C948.27,765.19,941,764.87,936.64,768.72Z" transform="translate(-448.65 -172)"/><path d="M1311.58,742.46l1.16,1.78a58,58,0,0,1-7,16.92c-2.55,3.73-5.33,7.33-8.26,10.84l-1.32-1c2.82-4.34,1.54-10.36-1.6-14.47s-7.75-6.79-12.19-9.46q-8.88-5.35-17.41-11.27c-6.81-4.74-13.53-9.82-18.62-16.38s-8.43-14.81-7.62-23.07l1.22-.26a302,302,0,0,1,42.59,28c3.78,3,7.48,6,11.46,8.7A147.84,147.84,0,0,0,1311.58,742.46Z" transform="translate(-448.65 -172)"/><path class="cls-2" d="M1250.06,791.72a28.23,28.23,0,0,1,1.1,18.21c-.34-.48-.8-.77-1.31-.53l0,.11c-5.66-1.34-7.19-9.06-10.62-14-5.49-8-17.22-9.58-23.12-17.28-4.22-5.51-4.58-12.93-6.6-19.57A52.83,52.83,0,0,0,1201.3,743,81.48,81.48,0,0,0,1185.74,727l.09-.12q.32-4.22.66-8.43h.14c1.64-1.77,4.31-2,6.73-2.13,9.41-.48,18.83-.87,28.25-1,1.44-2.14-.55-5.57-3.12-5.38,1-.8,2.58,0,3.33,1s1.1,2.39,2,3.34a6.47,6.47,0,0,0,4.55,1.63,19.88,19.88,0,0,0,9.09-1.73l1.22-.65q3.08,5.81,6.16,11.61c5.39,10.16,10.84,20.47,13.38,31.68s1.86,23.65-4.39,33.3c-.74,1.15-2.32,2.35-3.29,1.38Z" transform="translate(-448.65 -172)"/><path d="M1251.16,809.93a3.89,3.89,0,0,1,.58,1.36c.21,1,1,2.3,1.92,1.82l.14.1c-.24.35-.49.69-.74,1l0,0a28.2,28.2,0,0,1-6.73,2.25,25.31,25.31,0,0,1-18-10l-1.17,6.93a8.63,8.63,0,0,0-8.6-7,7.72,7.72,0,0,1,.34,10.93,137.66,137.66,0,0,0-16-19.28,7.57,7.57,0,0,1-1.85,7,23,23,0,0,1,4.6-18.61l-14.31-7.4a7.5,7.5,0,0,1-3.06-2.33,9.61,9.61,0,0,1-1-4.06,15.73,15.73,0,0,0-.61-2.7,16.74,16.74,0,0,0-4.32-7l-4.72-.88a6.88,6.88,0,0,1,1.23-3.77,3.61,3.61,0,0,1-3.15-3.56l6.57-.6a9.44,9.44,0,0,1-5.64-3.29,9.53,9.53,0,0,1-2.33-6.39,13.29,13.29,0,0,0,6.65-1c1.05-5.78-9.13-6.91-11.51-12.12l.85-1.05a13.89,13.89,0,0,1,11.22,4.59q-2-5.13-4-10.26c.63-1,2.24-1.14,3.52-1l0-.05q2.43,1.62,4.74,3.43A81.48,81.48,0,0,1,1201.3,743a52.83,52.83,0,0,1,8.18,15.58c2,6.64,2.38,14.06,6.6,19.57,5.9,7.7,17.63,9.27,23.12,17.28,3.43,5,5,12.71,10.62,14l0-.11C1250.36,809.16,1250.82,809.45,1251.16,809.93Z" transform="translate(-448.65 -172)"/><path class="cls-2" d="M1186.49,718.4q-.35,4.22-.66,8.43l-.09.12q-2.31-1.82-4.74-3.43l0,.05c-1.28-.1-2.89,0-3.52,1l-.1-.27-1.43-1.15,14.34-17.76c8,.5,16.12.77,24-.88a39.15,39.15,0,0,0,14.44-6.09l2.57,1.12q3.7,7,7.43,14l-1.22.65a19.88,19.88,0,0,1-9.09,1.73,6.47,6.47,0,0,1-4.55-1.63c-.88-.95-1.24-2.28-2-3.34s-2.3-1.84-3.33-1c2.57-.19,4.56,3.24,3.12,5.38-9.42.1-18.84.49-28.25,1-2.42.12-5.09.36-6.73,2.13Z" transform="translate(-448.65 -172)"/><path d="M1226.52,694.22a43.86,43.86,0,0,1,8.55-2,27.43,27.43,0,0,1-6.41,6.22,39.15,39.15,0,0,1-14.44,6.09c-7.84,1.65-16,1.38-24,.88l.64-.8c2.19-2.71,4.45-5.49,7.48-7.22,7.58-4.33,17.31-.9,25.72-3.23Z" transform="translate(-448.65 -172)"/><path d="M1176.11,584.36a521.32,521.32,0,0,0-11.44-57.54,33.9,33.9,0,0,0-3.29-9c-3.34-5.61-9.44-8.86-15.19-12a434.11,434.11,0,0,1-41.27-25.39l.13-.19a3.3,3.3,0,0,1,.68-5.43l1.4.12c11.43,9.05,25,14.8,38,21.52s25.74,14.92,33.64,27.17c8.28,12.83,10.26,28.59,12,43.76q1.54,13.19,3.08,26.38l-.14.11c-2.41,10.63,5.25,20.84,6.51,31.67a2.15,2.15,0,0,1-.11,1.26,1.93,1.93,0,0,1-1.51.82,7.07,7.07,0,0,1-6.48-2.58c-1.28-1.62-2-3.94-3.94-4.63a16.51,16.51,0,0,0-2.23-.4c-3.24-.69-4.77-4.33-5.69-7.51a163.44,163.44,0,0,1-5.53-28Z" transform="translate(-448.65 -172)"/><path class="cls-3" d="M1186.57,770l-1.07,0a31.3,31.3,0,0,1-16.61,14c-3.33,1.19-7.55,1.6-10-1-1.88-2-1.89-5.06-1.65-7.86h.17c3.09-5.41,9.34-8.15,13.5-12.79a20.61,20.61,0,0,0,4.32-7.65l.34.1a3.61,3.61,0,0,0,3.15,3.56,6.88,6.88,0,0,0-1.23,3.77l4.72.88A16.74,16.74,0,0,1,1186.57,770Z" transform="translate(-448.65 -172)"/><path class="cls-2" d="M1124,1037.84l0-.06c-.25-3.18,6.59-1.94,7.23-5.07.45-2.25-2.86-3.17-5.11-2.72-5.74,1.16-10.75,4.5-15.94,7.22-9.09,4.77-19,7.75-28.81,10.71-4.27,1.28-8.61,2.58-13.07,2.63s-9.13-1.29-12.15-4.57l-.48-1,16-7.8a4.37,4.37,0,0,0,2.17-1.71,3.43,3.43,0,0,0,.32-1.09,14.25,14.25,0,0,0-3-11.25l-.85-.88c4.71-4.51,9.26-9.19,14.2-13.45A111,111,0,0,1,1108,993.3c5.2-2.57,10.71-4.75,16.48-5.27,16.94-1.51,31.54,11.13,43.44,23.27l1-.88a33.06,33.06,0,0,0,4.21,6.88c4.53,5.59,11.78,10.91,10.35,18l-.91.65a29,29,0,0,1-7.4,15.13v1q-28.2-.09-56.39-.14v-.66A11.21,11.21,0,0,1,1124,1037.84Z" transform="translate(-448.65 -172)"/><path class="cls-2" d="M1182.18,754.15l-6.57.6-.34-.1a20.33,20.33,0,0,0,.78-3.64l.49-.15A9.44,9.44,0,0,0,1182.18,754.15Z" transform="translate(-448.65 -172)"/><path class="cls-2" d="M1177.45,724.61q2,5.13,4,10.26a13.89,13.89,0,0,0-11.22-4.59l5.72-7.09,1.43,1.15Z" transform="translate(-448.65 -172)"/><path class="cls-4" d="M1059.08,1031.91c-6.6,4.82-14,8.56-22.12,9.41l-2.07-.42a38.81,38.81,0,0,0,20-20.43c1.07-2.63,1.86-5.56,1.07-8.28s-3.66-5-6.39-4.23c-1,.29-2.51.7-2.75-.32l-2-.86a60.26,60.26,0,0,0,7.27-11.45c2.52-5.17,4.32-10.71,7.32-15.62,10.22-16.72,31.4-22.39,50.52-26.65l27-6,2.22-1.34a148.14,148.14,0,0,1,24.16,47.59c1.7,5.74,3.12,11.73,5.61,17.11l-1,.88c-11.9-12.14-26.5-24.78-43.44-23.27-5.77.52-11.28,2.7-16.48,5.27a111,111,0,0,0-23.43,15.52c-4.94,4.26-9.49,8.94-14.2,13.45-2.36,2.25-4.76,4.47-7.28,6.55C1061.76,1029.88,1060.44,1030.92,1059.08,1031.91Z" transform="translate(-448.65 -172)"/><path d="M1094.85,560.56A69.51,69.51,0,0,1,1071.29,548a25.62,25.62,0,0,1-6.4-7,38.6,38.6,0,0,0-2.36-4.22c-1.46-2-3.73-3.27-4.88-5.42s-.13-5.71,2.3-5.53a12,12,0,0,0,5.15,8c.76-2.18-1.08-4.3-2.48-6.15s-2.23-4.94-.23-6.11c1.36,3.34,6.64,2.85,9,5.54l.22.27c1,1.39,1.08,3.26,1.78,4.83s2.79,2.88,4.09,1.75.2-3.51-1-4.91q-1.61-1.8-3.22-3.59-6.26-6.93-12.7-13.68a4.61,4.61,0,0,1-1.5-2.43,4.67,4.67,0,0,1,.62-2.42l2.46-5.25.22-.5a37.94,37.94,0,0,1,8.22,4.92,239.38,239.38,0,0,1,24.85,20.9c2.75,2.66,5.53,5.45,9.05,7a2.24,2.24,0,0,0,1.35.26c.76-.18,1.15-1,1.37-1.75a13.91,13.91,0,0,0,.11-7.19c15.17,11.12,22.15,30.5,32.46,46.51,6.08,9.46,13.51,17.92,21,26.34l-1.08,1-.72,1.34-.2-.11q-18.17-18.45-34.74-38.39c-3.59-4.33-7.15-8.75-9.63-13.79-.83-1.71-1.85-3.73-3.74-4-2.49-.33-4.9,2.77-7.11,1.57-1.1-.6-1.45-2-2.2-3-2.09-2.82-6.45-2-9.77-.81l-.53.32c1.36,3.58,6.65,4,8.58,7.32,1.64,2.79.16,6.41-1.9,8.91-.64.78-1.34,1.51-2,2.25Z" transform="translate(-448.65 -172)"/><path class="cls-2" d="M1095.6,560.78c.7-.74,1.4-1.47,2-2.25,2.06-2.5,3.54-6.12,1.9-8.91-1.93-3.31-7.22-3.74-8.58-7.32l.53-.32c3.32-1.15,7.68-2,9.77.81.75,1,1.1,2.4,2.2,3,2.21,1.2,4.62-1.9,7.11-1.57,1.89.24,2.91,2.26,3.74,4,2.48,5,6,9.46,9.63,13.79q16.55,19.92,34.74,38.39l.2.11c-2,3.74-4.25,7.46-7.47,10.23-2.41,2.07-5.29,3.52-7.69,5.6-5.46,4.72-8.91,12.83-16.06,13.84a5.09,5.09,0,0,0-1,.21l-.64-1.67a5.12,5.12,0,0,0-5.09.93c0-4.49-4.39-7.5-7.59-10.65a36,36,0,0,1-6.35-8.85c-1.44-2.7-2.69-5.54-3.91-8.35q-4.66-10.75-9.34-21.49c-2-4.5-3.93-9.62-2-14.15A18.13,18.13,0,0,1,1095.6,560.78Z" transform="translate(-448.65 -172)"/><path class="cls-4" d="M1135.78,941.47c1.14,1.4,2.26,2.81,3.36,4.25l-2.22,1.34-27,6c-19.12,4.26-40.3,9.93-50.52,26.65-3,4.91-4.8,10.45-7.32,15.62a60.26,60.26,0,0,1-7.27,11.45,64.26,64.26,0,0,1-8.43,8.63,61.74,61.74,0,0,1-18.65,10.84c.31-.46.6-.92.87-1.39,4.27-7.35,5.49-16,7.22-24.32.6-2.89,1.21-6.13-.41-8.58s-4.61-3.12-7.33-2.71a19.31,19.31,0,0,0-6.53,2.62q7-17.54,15.27-34.55c2.53-5.21,5.18-10.43,9-14.83,9-10.43,22.87-14.83,36-18.76l43.36-12.93,2.5-1.55,1.1,2.08q8.13,15.21,17.5,29.71Z" transform="translate(-448.65 -172)"/><path d="M1130.39,643.46c1.94,3.61,3.35,8.1,1.37,11.68-1.76,1.83-5,1.14-6.75-.73s-2.27-4.51-2.74-7a3.44,3.44,0,0,0-1.14-2.36c-1.28-.86-3.05.43-3.42,1.92s.12,3,.24,4.57-.35,3.35-1.78,3.9a7.16,7.16,0,0,0-8-5.65l-.64,0A27.4,27.4,0,0,1,1104.4,623c1.8-4.1,4.38-9.36,2.4-12.79l.16-.09a36,36,0,0,0,6.35,8.85c3.2,3.15,7.55,6.16,7.59,10.65a5.12,5.12,0,0,1,5.09-.93l.64,1.67a1.3,1.3,0,0,0-.51.32,2,2,0,0,0-.39,1.56C1125.94,636.32,1128.45,639.86,1130.39,643.46Z" transform="translate(-448.65 -172)"/><path class="cls-5" d="M1126.07,1030c2.25-.45,5.56.47,5.11,2.72-.64,3.13-7.48,1.89-7.23,5.07l0,.06a11.21,11.21,0,0,0-5.21,13.34v.66l-50.52-.12v-1.17c4.46,0,8.8-1.35,13.07-2.63,9.83-3,19.72-5.94,28.81-10.71C1115.32,1034.49,1120.33,1031.15,1126.07,1030Z" transform="translate(-448.65 -172)"/><path class="cls-2" d="M907.22,967.41q6.1-19.42,12.2-38.85l-2.08-.65c11-25.9,40-42.62,51.33-67.76a53,53,0,0,0,3.63-11c1.38-6.65,2.31-14.91,8.61-17.44.74,5.73,6,9.57,9.88,13.83a35.38,35.38,0,0,1,6.75,35.67l.18.06a6.3,6.3,0,0,0-.15,2.12,2.09,2.09,0,0,1,1,.7l.12.12,16.65-17c2.48-2.54,5-5.09,7.65-7.43.37-.32.75-.65,1.13-1a48.87,48.87,0,0,1,3.9-3c8.88-6.06,19.54-8.52,30.25-10.25,2.29-.37,4.57-.7,6.84-1l35.65-5.16c4.59-.67,9.48-1.29,13.71.62,5.94,2.69,8.82,9.81,8.55,16.33s-3,12.64-5.61,18.64-5.06,12.29-4.73,18.81a20.35,20.35,0,0,0,.23,2.22c.68,4.63,2.65,9,4.82,13.24l-2.5,1.55-43.36,12.93c-13.17,3.93-27.09,8.33-36,18.76-3.77,4.4-6.42,9.62-9,14.83q-8.25,17-15.27,34.55-8.19,20.39-14.66,41.39l.69.22c0,.94,0,1.88.08,2.82,7.8,1.59,15.6-3.39,20.07-10a61.74,61.74,0,0,0,18.65-10.84l1.48.74c-3.85,5.64-7.44,11.44-11,17.24a11.56,11.56,0,0,0-2.16,5.29c-.11,1.92,1.08,4.06,3,4.3a5.52,5.52,0,0,0,2.09-.26,37,37,0,0,0,5.11-1.82l2.07.42c8.07-.85,15.52-4.59,22.12-9.41-.3,1.9-2,3.44-3.72,4.41-2,1.1-4.23,1.84-5.79,3.47s-2,4.64-.24,6c1.65,1.22,4,.35,5.81-.54l.48-.23.48,1c3,3.28,7.69,4.63,12.15,4.57v1.17q-93.6-.23-187.24-.35,2.43-7.5,4.85-15l-.25-.08Q896.41,1001.86,907.22,967.41Zm134.28-34.77c11.08-4.82,17.61-18.24,14.57-29.94-22.26,2.39-41.61,19.49-64,18.83l-1.76-.33-.38-.59q13.45-8.52,26.41-17.79a6.93,6.93,0,0,0,2.63-2.77,6.59,6.59,0,0,0,0-3.71,63.15,63.15,0,0,0-2.7-9.75,3.83,3.83,0,0,0-1.25-2,3.65,3.65,0,0,0-2.31-.41,25.14,25.14,0,0,0-15.25,6.39,49.45,49.45,0,0,0-4.2,4.48l-11.86,13.73c-2.33,2.71-4.67,5.42-7,8.18-1.74,2.1-3.53,4.49-3.41,7.22s3.4,5.24,5.61,3.64l2.86.6c-13.16,10.67-17.59,30.76-10.15,46a7,7,0,0,0,1.78,2.51c2,1.55,4.78.89,7.13.1a125.14,125.14,0,0,0,29.81-14.76c7.62-5.13,14.75-11.2,20-18.76,1.9-2.75,3.61-5.76,6.35-7.67C1036.55,934.36,1039.12,933.67,1041.5,932.64Z" transform="translate(-448.65 -172)"/><path d="M1107,610.12l-.16.09a5.17,5.17,0,0,0-1.24-1.43c-4.2,1.36-5,6.81-5.62,11.19s-3.46,9.76-7.78,8.83a7,7,0,0,1-1.83,7.06q-1.78-9.68-3.56-19.34a7.36,7.36,0,0,0-3.63,5.92c-2.84-1.62,1.95-5.73,1.2-8.91-.53-2.24-3.84-2.7-5.68-1.31s-2.54,3.8-3.12,6a11,11,0,0,1,1.39-11,5.19,5.19,0,0,1-5-4.52,4.11,4.11,0,0,1,.16-1.87A4.19,4.19,0,0,0,1077,598a11.09,11.09,0,0,1-10.57-6.09l6.15-.7a5.6,5.6,0,0,0-5.51-3.22c.91-3-1.78-5.67-3.93-7.9s-3.87-6.11-1.53-8.13a9.25,9.25,0,0,0,6.42,2.56l-4.58-7.07,3.79-1.41a28.14,28.14,0,0,1-8-20.68l.07-.08a95.88,95.88,0,0,0,25,15c3.24,1.31,6.83,2.47,10.18,1.45l.33-1.11.75.22a18.13,18.13,0,0,0-3.94,5.35c-1.88,4.53.1,9.65,2,14.15q4.68,10.74,9.34,21.49C1104.27,604.58,1105.52,607.42,1107,610.12Z" transform="translate(-448.65 -172)"/><path class="cls-3" d="M1032.94,680.67l18.42-25.11c3.06-4.18,6.2-8.5,7.47-13.53,1.38-5.46.48-11.46,2.76-16.61,1.13-2.55,3-4.76,3.84-7.42s.6-5.81,1.08-8.7,2.19-6,5.08-6.49l.35,0a5.19,5.19,0,0,0,5,4.52,11,11,0,0,0-1.39,11c.58-2.23,1.28-4.63,3.12-6s5.15-.93,5.68,1.31c.75,3.18-4,7.29-1.2,8.91a7.36,7.36,0,0,1,3.63-5.92q1.79,9.66,3.56,19.34l.08.17a5.69,5.69,0,0,1-1.35.42c-1.72.31-3.66.26-5,1.42s-1.58,3.3-3,4.36a7.49,7.49,0,0,1-3,1c-7.34,1.56-12.55,8.15-15.71,14.95s-4.94,14.26-8.86,20.66-10.89,11.79-18.32,10.78c-1.74-.24-3.6-1-4.39-2.54C1029.68,684.9,1031.14,682.54,1032.94,680.67Z" transform="translate(-448.65 -172)"/><path class="cls-2" d="M1085.07,746c1.64,1.7,3.17,3.86,2.92,6.2s-3.27,4.28-5.08,2.76c-.56-.47-.88-1.17-1.4-1.69a6.17,6.17,0,0,0-2.06-1.24L1064,745.18c.25-1.58.5-3.17.74-4.76l-2.79-1a7.49,7.49,0,0,1,2.74-1.62c3-1,6.24-.32,9.16.79A31,31,0,0,1,1085.07,746Z" transform="translate(-448.65 -172)"/><path class="cls-2" d="M1076.4,529.08c1.24,1.4,2.45,3.68,1,4.91s-3.39-.17-4.09-1.75-.75-3.44-1.78-4.83l-.22-.27,1.83-1.65Q1074.8,527.27,1076.4,529.08Z" transform="translate(-448.65 -172)"/><path class="cls-6" d="M1071.18,1023.15a14.25,14.25,0,0,1,3,11.25,3.43,3.43,0,0,1-.32,1.09,4.37,4.37,0,0,1-2.17,1.71l-16,7.8-.48.23c-1.84.89-4.16,1.76-5.81.54-1.81-1.34-1.33-4.35.24-6s3.81-2.37,5.79-3.47c1.74-1,3.42-2.51,3.72-4.41,1.36-1,2.68-2,4-3.09,2.52-2.08,4.92-4.3,7.28-6.55Z" transform="translate(-448.65 -172)"/><path class="cls-7" d="M979.07,782.49c-7.78-3.94-15.38-8-21.7-13.33a45.51,45.51,0,0,1-9.92-11.38v0a6,6,0,0,1,.74-5.82v-.08c13.1,2.38,26.46,3.07,39.54,5.58s26.2,7.06,36.08,16c11.56,10.45,17.46,25.64,26.61,38.25,3.72,5.12,8,9.94,10.36,15.83s2.06,13.37-2.59,17.66l.06.4c-10.71,1.73-21.37,4.19-30.25,10.25a48.87,48.87,0,0,0-3.9,3c-1.41-1.28-1.39-3.73-.47-5.46s2.73-3.21,4.21-4.71a17.69,17.69,0,0,0,3.7-5.55,12.7,12.7,0,0,0,0-10.81c-1.13-2.2-3-3.93-4.55-5.82-4.37-5.24-6.79-11.81-10.62-17.45C1007.79,796.31,993.15,789.63,979.07,782.49Z" transform="translate(-448.65 -172)"/><path class="cls-1" d="M1056.07,902.7c3,11.7-3.49,25.12-14.57,29.94-2.38,1-5,1.72-7.07,3.21-2.74,1.91-4.45,4.92-6.35,7.67-5.22,7.56-12.35,13.63-20,18.76A125.14,125.14,0,0,1,978.3,977c-2.35.79-5.18,1.45-7.13-.1a7,7,0,0,1-1.78-2.51c-7.44-15.22-3-35.31,10.15-46l-2.86-.6,1.87-.76a27.47,27.47,0,0,0,11.77-5.89l1.76.33C1014.46,922.19,1033.81,905.09,1056.07,902.7Z" transform="translate(-448.65 -172)"/><path class="cls-6" d="M1056,1012.19c.79,2.72,0,5.65-1.07,8.28a38.81,38.81,0,0,1-20,20.43,37,37,0,0,1-5.11,1.82,5.52,5.52,0,0,1-2.09.26c-1.91-.24-3.1-2.38-3-4.3a11.56,11.56,0,0,1,2.16-5.29c3.6-5.8,7.19-11.6,11-17.24l-1.48-.74a64.26,64.26,0,0,0,8.43-8.63l2,.86c.24,1,1.74.61,2.75.32C1052.34,1007.18,1055.22,1009.46,1056,1012.19Z" transform="translate(-448.65 -172)"/><path class="cls-3" d="M983.67,801.63l-5-5.82a14.42,14.42,0,0,1-3.28-5.42h.1a17.17,17.17,0,0,1,3.55-7.89c14.08,7.14,28.72,13.82,37.35,26.51,3.83,5.64,6.25,12.21,10.62,17.45,1.58,1.89,3.42,3.62,4.55,5.82a12.7,12.7,0,0,1,0,10.81l-.73-.31a60.63,60.63,0,0,1-8.2.26,7.42,7.42,0,0,1-2.56-.41,6.57,6.57,0,0,1-2.18-1.64l-.52-.56c-8.59-9.42-16.87-19.12-25.15-28.81Z" transform="translate(-448.65 -172)"/><path d="M1030.81,842.77l.73.31a17.69,17.69,0,0,1-3.7,5.55c-1.48,1.5-3.22,2.84-4.21,4.71s-.94,4.18.47,5.46c-.38.31-.76.64-1.13,1l-1.26-1.24c-3.9-4.73-8.89-8.38-13.46-12.47a33.05,33.05,0,0,0,9.49-4.95l.13-.12a6.57,6.57,0,0,0,2.18,1.64,7.42,7.42,0,0,0,2.56.41A60.63,60.63,0,0,0,1030.81,842.77Z" transform="translate(-448.65 -172)"/><path class="cls-6" d="M1017.77,1026.25c-4.47,6.66-12.27,11.64-20.07,10,0-.94-.06-1.88-.08-2.82l-.69-.22q6.47-21,14.66-41.39a19.31,19.31,0,0,1,6.53-2.62c2.72-.41,5.81.41,7.33,2.71s1,5.69.41,8.58c-1.73,8.32-2.95,17-7.22,24.32C1018.37,1025.33,1018.08,1025.79,1017.77,1026.25Z" transform="translate(-448.65 -172)"/><path class="cls-7" d="M966,858.13l-.12.11a67.28,67.28,0,0,1-23-36.3,133.76,133.76,0,0,1-2.63-17.83q-1.82-17.68-3.61-35.39c4.35-3.85,11.63-3.53,16.75-.44a23.21,23.21,0,0,1,2,1.38c4.49,3.46,7.65,8.51,10.64,13.4l10.11,16.54,2.88,4.71c4.4,7.19,8.8,14.39,13.3,21.51,3.92,6.2,8,12.4,13.13,17.6.9.9,1.83,1.77,2.78,2.63,4.57,4.09,9.56,7.74,13.46,12.47l1.26,1.24c-2.67,2.34-5.17,4.89-7.65,7.43l-16.65,17-.12-.12a2.09,2.09,0,0,0-1-.7,6.3,6.3,0,0,1,.15-2.12l-.18-.06a35.38,35.38,0,0,0-6.75-35.67c-3.89-4.26-9.14-8.1-9.88-13.83-6.3,2.53-7.23,10.79-8.61,17.44a53,53,0,0,1-3.63,11A9.89,9.89,0,0,1,966,858.13Z" transform="translate(-448.65 -172)"/><path class="cls-6" d="M989.94,920.61l.38.59a27.47,27.47,0,0,1-11.77,5.89l-1.87.76c-2.21,1.6-5.48-.92-5.61-3.64s1.67-5.12,3.41-7.22c2.29-2.76,4.63-5.47,7-8.18l11.86-13.73a49.45,49.45,0,0,1,4.2-4.48,25.14,25.14,0,0,1,15.25-6.39,3.65,3.65,0,0,1,2.31.41,3.83,3.83,0,0,1,1.25,2,63.15,63.15,0,0,1,2.7,9.75,6.59,6.59,0,0,1,0,3.71,6.93,6.93,0,0,1-2.63,2.77Q1003.41,912.09,989.94,920.61Z" transform="translate(-448.65 -172)"/><path class="cls-3" d="M1017.87,841l-.13.12a33.05,33.05,0,0,1-9.49,4.95c-1-.86-1.88-1.73-2.78-2.63-5.17-5.2-9.21-11.4-13.13-17.6-4.5-7.12-8.9-14.32-13.3-21.51l-2.88-4.71,7.51,2,8.53,10c8.28,9.69,16.56,19.39,25.15,28.81Z" transform="translate(-448.65 -172)"/><path class="cls-8" d="M1004.32,506.86c1.67,4.51-.9,9.35-3,13.71-4,8.4-6.19,17.49-8.4,26.51l-15.48,63.31c-.55,2.28-1.37,4.86-3.54,5.74a304.38,304.38,0,0,1,1.38-87.4l.72-1.3Q989.74,516.55,1004.32,506.86Z" transform="translate(-448.65 -172)"/><path d="M975.42,790.39a14.42,14.42,0,0,0,3.28,5.42l5,5.82-7.51-2-10.11-16.54c-3-4.89-6.15-9.94-10.64-13.4l2-.5c6.32,5.31,13.92,9.39,21.7,13.33a17.17,17.17,0,0,0-3.55,7.89Z" transform="translate(-448.65 -172)"/><path class="cls-8" d="M970.81,633c1.6,10.89,3.07,23.33-4.11,31.68l1.07,1.06a103.87,103.87,0,0,1-7.52,27.44c-2.11,4.92-4.73,9.83-8.9,13.18a33.57,33.57,0,0,1-7.33,4.22c-8.47,3.86-17.58,6.83-26.89,6.58s-18.86-4.14-24.24-11.73a24.26,24.26,0,0,1-4.35-15.7c.06-.68,0-1.55-.59-1.82l-.16,0,.33-.55A736.67,736.67,0,0,1,941.38,566l.11-1.14a122.91,122.91,0,0,1,20.68-30.61l2.06.52A627.78,627.78,0,0,0,970.81,633Z" transform="translate(-448.65 -172)"/><path class="cls-8" d="M926.17,720.05l10.41-3.3c-9.41,12.65-25.22,18.54-40.28,23.25-9,2.82-18.29,5.48-27.73,5.12a47.77,47.77,0,0,1-8.7-1.15l.36-1.63c7.13-12.46,15.78-24.21,21.44-37.33-.82,9,7.59,17.07,16.58,18.92C907.56,725.84,917.11,722.93,926.17,720.05Z" transform="translate(-448.65 -172)"/><path class="cls-1" d="M916.18,930.85c.36-1,.75-2,1.16-2.94l2.08.65q-6.1,19.43-12.2,38.85c-14.12-.46-28.54-.7-42,3.7-5.88,1.93-11.45,4.72-17.38,6.5a54,54,0,0,1-31.75-.28l-.47-.52q15.47-14,30.94-28a137.31,137.31,0,0,1,13.51-11.19,68.54,68.54,0,0,1,33.11-11.88l.53-.62c.58.51,1.18,1,1.8,1.48,5.36,4.06,12.55,6.26,18.94,4.18Z" transform="translate(-448.65 -172)"/><path class="cls-5" d="M800.47,990.55l15.2-13.74.47.52a54,54,0,0,0,31.75.28c5.93-1.78,11.5-4.57,17.38-6.5,13.41-4.4,27.83-4.16,42-3.7q-10.8,34.44-21.61,68.87l.25.08q-2.43,7.52-4.85,15l-88.18-.11a65.67,65.67,0,0,0,1.45-11.69l0,0a85,85,0,0,0,1.36-45.34C797.27,993.06,798.89,991.84,800.47,990.55Z" transform="translate(-448.65 -172)"/><path class="cls-1" d="M893.76,925.16l-.53.62a68.54,68.54,0,0,0-33.11,11.88,137.31,137.31,0,0,0-13.51,11.19q-15.47,14-30.94,28l-15.2,13.74c-1.58,1.29-3.2,2.51-4.88,3.66A82.46,82.46,0,0,0,788,974.28c-4.09-7.55-9.33-14.48-12.68-22.39-2.75-6.49-4.31-13.76-9.12-18.91a21.83,21.83,0,0,0-3.51-3c16.48-16.22,37.8-28.36,60.85-30.29,19-1.59,37.75,3.69,56,9a46.81,46.81,0,0,0,4,3.58C886.48,916.94,889.66,921.54,893.76,925.16Z" transform="translate(-448.65 -172)"/><path class="cls-2" d="M636.29,1023l2.38-1.32a58.87,58.87,0,0,1-18-51.35,10.94,10.94,0,0,1,2.22-5.81c1.39-1.54,3.47-2.24,5.47-2.81a87.87,87.87,0,0,1,33.49-2.87l-.33,2.83a66.36,66.36,0,0,0,58,65.68l.1,0,1.25.32.47-.16q1.29,3.78,2.4,7.62h0q1.83,7.53,3.65,15v1l-103.59-.06a92.08,92.08,0,0,0-13.34-18.29l-.74.51c-11.5-16.9-24.43-33.42-42.21-43.34l2.45-.13A126.89,126.89,0,0,1,581.93,914,62.54,62.54,0,0,1,591,900.09a64,64,0,0,1,13.34-10.78c54-34.57,126.23-28.35,181.23-61.29l.55-.06a105.62,105.62,0,0,0,30.57-25.28l14.55-16,.43-.47.47.43c.4,7.07,2.81,13.85,5.2,20.52,12.77,35.68,25.68,71.65,45.52,104l.7,1.14a46.81,46.81,0,0,1-4-3.58c-18.29-5.31-37.08-10.59-56-9-23,1.93-44.37,14.07-60.85,30.29a47.29,47.29,0,0,0-10.28-5,205.59,205.59,0,0,0-59.76-13.44c-12.64-.82-26-.14-37,6.16-8.5,4.87-14.86,12.65-21,20.26-6.51,8.07-13.08,16.24-17.44,25.64s-6.35,20.31-3.33,30.22c1.72,5.66,5,10.71,8.28,15.62C625.86,1014.92,630.27,1020.7,636.29,1023Z" transform="translate(-448.65 -172)"/><path class="cls-1" d="M795.59,994.21a85,85,0,0,1-1.36,45.34l0,0a65.67,65.67,0,0,1-1.45,11.69q-32.69,0-65.39-.06v-1q-1.82-7.53-3.65-15h0q-1.11-3.84-2.4-7.62A168.27,168.27,0,0,0,691,973.59c-3-3.56-6.19-7-10.15-9.46-4.2-2.56-9.07-3.82-13.92-4.63-1.68-.28-3.36-.51-5-.69a87.87,87.87,0,0,0-33.49,2.87c-2,.57-4.08,1.27-5.47,2.81a10.94,10.94,0,0,0-2.22,5.81,58.87,58.87,0,0,0,18,51.35l-2.38,1.32c-6-2.27-10.43-8.05-14.12-13.54-3.31-4.91-6.56-10-8.28-15.62-3-9.91-1-20.81,3.33-30.22S628.15,946,634.66,938c6.15-7.61,12.51-15.39,21-20.26,11-6.3,24.31-7,37-6.16A205.59,205.59,0,0,1,752.38,925a47.29,47.29,0,0,1,10.28,5,21.83,21.83,0,0,1,3.51,3c4.81,5.15,6.37,12.42,9.12,18.91,3.35,7.91,8.59,14.84,12.68,22.39A82.46,82.46,0,0,1,795.59,994.21Z" transform="translate(-448.65 -172)"/><path class="cls-1" d="M721.37,1027.51l-.47.16-1.25-.32-.1,0a66.36,66.36,0,0,1-58-65.68l.33-2.83c1.69.18,3.37.41,5,.69,4.85.81,9.72,2.07,13.92,4.63,4,2.42,7.16,5.9,10.15,9.46A168.27,168.27,0,0,1,721.37,1027.51Z" transform="translate(-448.65 -172)"/><path d="M568.15,545.23l.64.07,3,28.58c.45,4.27.9,8.54,1.74,12.75,2.76,13.79,9.73,27.49,6.9,41.23l1.2.25a100.92,100.92,0,0,1-6.93,43.48A60.61,60.61,0,0,1,567,685.78c-6,8-14.6,13.57-22.6,19.57-34.92,26.18-61,62.28-93.57,91.38q-.71-190.11-.85-380.46,27.33,9.8,53.6,22.27c18.69,8.87,37.67,19.4,49.17,36.6l-.73.67c7.89,8.8,12.85,20.08,15.22,31.71C569.79,519.89,569.55,532.67,568.15,545.23Z" transform="translate(-448.65 -172)"/><path class="cls-9" d="M832.14,786.66c.4,7.07,2.81,13.85,5.2,20.52,12.77,35.68,25.68,71.65,45.52,104l.7,1.14c2.92,4.67,6.1,9.27,10.2,12.89.58.51,1.18,1,1.8,1.48,5.36,4.06,12.55,6.26,18.94,4.18" transform="translate(-448.65 -172)"/><path class="cls-9" d="M915.66,932.35c.17-.5.34-1,.52-1.5.36-1,.75-2,1.16-2.94,11-25.9,40-42.62,51.33-67.76a53,53,0,0,0,3.63-11c1.38-6.65,2.31-14.91,8.61-17.44.74,5.73,6,9.57,9.88,13.83a35.38,35.38,0,0,1,6.75,35.67c0,.15-.1.29-.16.44" transform="translate(-448.65 -172)"/><path class="cls-9" d="M979.54,928.45c-13.16,10.67-17.59,30.76-10.15,46a7,7,0,0,0,1.78,2.51c2,1.55,4.78.89,7.13.1a125.14,125.14,0,0,0,29.81-14.76c7.62-5.13,14.75-11.2,20-18.76,1.9-2.75,3.61-5.76,6.35-7.67,2.12-1.49,4.69-2.18,7.07-3.21,11.08-4.82,17.61-18.24,14.57-29.94-22.26,2.39-41.61,19.49-64,18.83" transform="translate(-448.65 -172)"/><path class="cls-9" d="M978.55,927.09a27.47,27.47,0,0,0,11.77-5.89" transform="translate(-448.65 -172)"/><path class="cls-9" d="M976.68,927.85c-2.21,1.6-5.48-.92-5.61-3.64s1.67-5.12,3.41-7.22c2.29-2.76,4.63-5.47,7-8.18l11.86-13.73a49.45,49.45,0,0,1,4.2-4.48,25.14,25.14,0,0,1,15.25-6.39,3.65,3.65,0,0,1,2.31.41,3.83,3.83,0,0,1,1.25,2,63.15,63.15,0,0,1,2.7,9.75,6.59,6.59,0,0,1,0,3.71,6.93,6.93,0,0,1-2.63,2.77q-12.95,9.27-26.41,17.79c-.52.34-1.05.67-1.58,1" transform="translate(-448.65 -172)"/><path class="cls-9" d="M991.46,891.59l7.21-7.38,16.65-17c2.48-2.54,5-5.09,7.65-7.43.37-.32.75-.65,1.13-1a48.87,48.87,0,0,1,3.9-3c8.88-6.06,19.54-8.52,30.25-10.25,2.29-.37,4.57-.7,6.84-1l35.65-5.16c4.59-.67,9.48-1.29,13.71.62,5.94,2.69,8.82,9.81,8.55,16.33s-3,12.64-5.61,18.64-5.06,12.29-4.73,18.81a20.35,20.35,0,0,0,.23,2.22c.68,4.63,2.65,9,4.82,13.24l1.1,2.08q8.13,15.21,17.5,29.71" transform="translate(-448.65 -172)"/><path class="cls-9" d="M1135.69,941.37a.81.81,0,0,0,.09.1c1.14,1.4,2.26,2.81,3.36,4.25a148.14,148.14,0,0,1,24.16,47.59c1.7,5.74,3.12,11.73,5.61,17.11a33.06,33.06,0,0,0,4.21,6.88c4.53,5.59,11.78,10.91,10.35,18" transform="translate(-448.65 -172)"/><path class="cls-9" d="M996.72,1033.94l.21-.68q6.47-21,14.66-41.39,7-17.54,15.27-34.55c2.53-5.21,5.18-10.43,9-14.83,9-10.43,22.87-14.83,36-18.76l43.36-12.93" transform="translate(-448.65 -172)"/><path class="cls-9" d="M997.62,1033.48c0,.94,0,1.88.08,2.82,7.8,1.59,15.6-3.39,20.07-10,.31-.46.6-.92.87-1.39,4.27-7.35,5.49-16,7.22-24.32.6-2.89,1.21-6.13-.41-8.58s-4.61-3.12-7.33-2.71a19.31,19.31,0,0,0-6.53,2.62l-1,.59" transform="translate(-448.65 -172)"/><path class="cls-9" d="M1016.85,1026.58l.92-.33a61.74,61.74,0,0,0,18.65-10.84,64.26,64.26,0,0,0,8.43-8.63,60.26,60.26,0,0,0,7.27-11.45c2.52-5.17,4.32-10.71,7.32-15.62,10.22-16.72,31.4-22.39,50.52-26.65l27-6" transform="translate(-448.65 -172)"/><path class="cls-9" d="M1037.9,1016.15c-3.85,5.64-7.44,11.44-11,17.24a11.56,11.56,0,0,0-2.16,5.29c-.11,1.92,1.08,4.06,3,4.3a5.52,5.52,0,0,0,2.09-.26,37,37,0,0,0,5.11-1.82,38.81,38.81,0,0,0,20-20.43c1.07-2.63,1.86-5.56,1.07-8.28s-3.66-5-6.39-4.23c-1,.29-2.51.7-2.75-.32" transform="translate(-448.65 -172)"/><path class="cls-9" d="M1037,1041.32c8.07-.85,15.52-4.59,22.12-9.41,1.36-1,2.68-2,4-3.09,2.52-2.08,4.92-4.3,7.28-6.55,4.71-4.51,9.26-9.19,14.2-13.45A111,111,0,0,1,1108,993.3c5.2-2.57,10.71-4.75,16.48-5.27,16.94-1.51,31.54,11.13,43.44,23.27" transform="translate(-448.65 -172)"/><path class="cls-9" d="M1071.18,1023.15a14.25,14.25,0,0,1,3,11.25,3.43,3.43,0,0,1-.32,1.09,4.37,4.37,0,0,1-2.17,1.71l-16,7.8-.48.23c-1.84.89-4.16,1.76-5.81.54-1.81-1.34-1.33-4.35.24-6s3.81-2.37,5.79-3.47c1.74-1,3.42-2.51,3.72-4.41a3.46,3.46,0,0,0,.05-.79" transform="translate(-448.65 -172)"/><path class="cls-9" d="M1056.1,1046c3,3.28,7.69,4.63,12.15,4.57s8.8-1.35,13.07-2.63c9.83-3,19.72-5.94,28.81-10.71,5.19-2.72,10.2-6.06,15.94-7.22,2.25-.45,5.56.47,5.11,2.72-.64,3.13-7.48,1.89-7.23,5.07" transform="translate(-448.65 -172)"/><path class="cls-9" d="M885.61,1036.28q10.8-34.42,21.61-68.87,6.1-19.42,12.2-38.85s0-.09,0-.14" transform="translate(-448.65 -172)"/><path class="cls-9" d="M1075.75,472.83c31.28-9.38,64.88-5.05,97,.67,17.14,3.05,34.75,6.7,49,16.63,6.47,4.49,12.18,10.21,19.36,13.45,7.51,3.38,16.15,3.81,23.48,7.53l.7.37" transform="translate(-448.65 -172)"/><path class="cls-9" d="M1266.38,510.88c23.74,11.25,47.79,22.6,73.58,27.57,10.53,2,21.37,3,31.33,7a9.14,9.14,0,0,1,4.38,3,5.31,5.31,0,0,1,.44.81,12.16,12.16,0,0,1,.73,4.43c1,29.47,1.84,59.7-4.18,88.32a157.41,157.41,0,0,1-7.82,26.21" transform="translate(-448.65 -172)"/><path class="cls-9" d="M1364.29,668.38c-11.47,26.85-35.36,46.56-49.22,72.22-.45.83-.88,1.66-1.31,2.5" transform="translate(-448.65 -172)"/><path class="cls-9" d="M1118.85,893.44q4.14-1.47,8.25-3A488.44,488.44,0,0,0,1214.52,847c14.37-9,28.63-19.18,38.54-32.79.25-.34.5-.68.74-1q1.64-2.33,3.09-4.78c2.39-4,4.42-8.41,7.77-11.71a15.63,15.63,0,0,1,2.86-2.24,12.76,12.76,0,0,1,5.91-2,8.94,8.94,0,0,1,4,.66" transform="translate(-448.65 -172)"/><path class="cls-9" d="M1278.08,792.78c2.27-2.3,4.56-4.62,6.82-7,4.33-4.48,8.59-9.06,12.58-13.82,2.93-3.51,5.71-7.11,8.26-10.84a91.12,91.12,0,0,0,10.49-19.89" transform="translate(-448.65 -172)"/><path class="cls-9" d="M1058,725.29a31.59,31.59,0,0,0,1.22,18.91" transform="translate(-448.65 -172)"/><path class="cls-9" d="M1059.8,744.87a6.05,6.05,0,0,1,2.13-5.46,7.49,7.49,0,0,1,2.74-1.62c3-1,6.24-.32,9.16.79a31,31,0,0,1,11.24,7.41c1.64,1.7,3.17,3.86,2.92,6.2s-3.27,4.28-5.08,2.76c-.56-.47-.88-1.17-1.4-1.69a6.17,6.17,0,0,0-2.06-1.24L1064,745.18c.25-1.58.5-3.17.74-4.76" transform="translate(-448.65 -172)"/><path class="cls-9" d="M1082.19,786.36c2-5.26,8.41-7.62,14-7.11s10.75,3.15,16,5.11,11.26,3.25,16.43,1c5.92-2.53,9.12-8.81,12.25-14.44,7.83-14.09,18-26.72,28.14-39.27l.29-.36.85-1.05,5.72-7.09,14.34-17.76.64-.8c2.19-2.71,4.45-5.49,7.48-7.22,7.58-4.33,17.31-.9,25.72-3.23" transform="translate(-448.65 -172)"/><path class="cls-9" d="M1224.9,694.8c.54-.2,1.07-.4,1.62-.58a43.86,43.86,0,0,1,8.55-2c1.07-.15,2.15-.25,3.23-.31" transform="translate(-448.65 -172)"/><path class="cls-9" d="M1189.14,705.36l1.12.07c8,.5,16.12.77,24-.88a39.15,39.15,0,0,0,14.44-6.09,27.43,27.43,0,0,0,6.41-6.22c.09-.11.16-.21.24-.32" transform="translate(-448.65 -172)"/><path class="cls-9" d="M1231.23,699.58q3.7,7,7.43,14,3.08,5.81,6.16,11.61c5.39,10.16,10.84,20.47,13.38,31.68s1.86,23.65-4.39,33.3c-.74,1.15-2.32,2.35-3.29,1.38" transform="translate(-448.65 -172)"/><path class="cls-9" d="M1245.8,737.5a208.55,208.55,0,0,1,2.63,54.08" transform="translate(-448.65 -172)"/><path class="cls-9" d="M1179.87,722.76c.38.25.76.49,1.13.76q2.43,1.62,4.74,3.43A81.48,81.48,0,0,1,1201.3,743a52.83,52.83,0,0,1,8.18,15.58c2,6.64,2.38,14.06,6.6,19.57,5.9,7.7,17.63,9.27,23.12,17.28,3.43,5,5,12.71,10.62,14a5.55,5.55,0,0,0,.73.14" transform="translate(-448.65 -172)"/><path class="cls-9" d="M1248.8,789.07a25.7,25.7,0,0,1,1.26,2.65,28.23,28.23,0,0,1,1.1,18.21c-.05.2-.11.39-.17.59" transform="translate(-448.65 -172)"/><path class="cls-9" d="M1239.94,696.08a302,302,0,0,1,42.59,28c3.78,3,7.48,6,11.46,8.7a147.84,147.84,0,0,0,17.59,9.66" transform="translate(-448.65 -172)"/><path class="cls-9" d="M1238.72,696.34c-.81,8.26,2.54,16.52,7.62,23.07s11.81,11.64,18.62,16.38q8.52,5.91,17.41,11.27c4.44,2.67,9.05,5.34,12.19,9.46s4.42,10.13,1.6,14.47" transform="translate(-448.65 -172)"/><path class="cls-9" d="M1177.35,724.34l.1.27q2,5.13,4,10.26a13.89,13.89,0,0,0-11.22-4.59,11.51,11.51,0,0,0-1.18.13,4.79,4.79,0,0,0,.33.92c2.38,5.21,12.56,6.34,11.51,12.12a13.29,13.29,0,0,1-6.65,1,9.53,9.53,0,0,0,2.33,6.39,9.44,9.44,0,0,0,5.64,3.29l-6.57.6a3.61,3.61,0,0,0,3.15,3.56,6.88,6.88,0,0,0-1.23,3.77l4.72.88a16.74,16.74,0,0,1,4.32,7,15.73,15.73,0,0,1,.61,2.7,9.61,9.61,0,0,0,1,4.06,7.5,7.5,0,0,0,3.06,2.33l14.31,7.4a23,23,0,0,0-4.6,18.61,7.57,7.57,0,0,0,1.85-7,137.66,137.66,0,0,1,16,19.28,7.72,7.72,0,0,0-.34-10.93,8.63,8.63,0,0,1,8.6,7l1.17-6.93a25.31,25.31,0,0,0,18,10h0" transform="translate(-448.65 -172)"/><path class="cls-9" d="M1157.45,775.09c3.09-5.41,9.34-8.15,13.5-12.79a20.61,20.61,0,0,0,4.32-7.65,20.33,20.33,0,0,0,.78-3.64" transform="translate(-448.65 -172)"/><path class="cls-9" d="M1157.34,774.35l-.06.73c-.24,2.8-.23,5.83,1.65,7.86,2.41,2.59,6.63,2.18,10,1a31.3,31.3,0,0,0,16.61-14" transform="translate(-448.65 -172)"/><path class="cls-9" d="M1186.63,718.41c1.64-1.77,4.31-2,6.73-2.13,9.41-.48,18.83-.87,28.25-1,1.44-2.14-.55-5.57-3.12-5.38,1-.8,2.58,0,3.33,1s1.1,2.39,2,3.34a6.47,6.47,0,0,0,4.55,1.63,19.88,19.88,0,0,0,9.09-1.73" transform="translate(-448.65 -172)"/><path class="cls-9" d="M1144.16,666a52.83,52.83,0,0,0,23-31.13" transform="translate(-448.65 -172)"/><path class="cls-9" d="M1144.31,667.37A57.07,57.07,0,0,0,1161.54,656c4-3.83,7.64-8.37,12.81-10.32" transform="translate(-448.65 -172)"/><path class="cls-9" d="M1104.81,523.66c.83.53,1.64,1.08,2.42,1.67,15.17,11.12,22.15,30.5,32.46,46.51,6.08,9.46,13.51,17.92,21,26.34,7.25,8.15,14.54,16.25,20.75,25.19" transform="translate(-448.65 -172)"/><path class="cls-9" d="M1062.28,501.21a37.94,37.94,0,0,1,8.22,4.92,239.38,239.38,0,0,1,24.85,20.9c2.75,2.66,5.53,5.45,9.05,7a2.24,2.24,0,0,0,1.35.26c.76-.18,1.15-1,1.37-1.75a13.91,13.91,0,0,0,.11-7.19,13.42,13.42,0,0,0-.52-1.63" transform="translate(-448.65 -172)"/><path class="cls-9" d="M1062.06,501.71,1059.6,507a4.67,4.67,0,0,0-.62,2.42,4.61,4.61,0,0,0,1.5,2.43q6.45,6.75,12.7,13.68,1.62,1.78,3.22,3.59c1.24,1.4,2.45,3.68,1,4.91s-3.39-.17-4.09-1.75-.75-3.44-1.78-4.83l-.22-.27c-2.32-2.69-7.6-2.2-9-5.54-2,1.17-1.16,4.27.23,6.11s3.24,4,2.48,6.15a12,12,0,0,1-5.15-8c-2.43-.18-3.46,3.38-2.3,5.53s3.42,3.46,4.88,5.42a38.6,38.6,0,0,1,2.36,4.22,25.62,25.62,0,0,0,6.4,7,69.51,69.51,0,0,0,23.56,12.55l.75.22.2.06" transform="translate(-448.65 -172)"/><path class="cls-9" d="M1058.88,544.88l.44.36a95.88,95.88,0,0,0,25,15c3.24,1.31,6.83,2.47,10.18,1.45l.33-1.11c.17-.56.34-1.12.5-1.68" transform="translate(-448.65 -172)"/><path class="cls-9" d="M1059.25,545.32a28.14,28.14,0,0,0,8,20.68l-3.79,1.41,4.58,7.07a9.25,9.25,0,0,1-6.42-2.56c-2.34,2-.61,5.89,1.53,8.13s4.84,4.93,3.93,7.9a5.6,5.6,0,0,1,5.51,3.22l-6.15.7A11.09,11.09,0,0,0,1077,598a4.19,4.19,0,0,1-4.89,2.93,4.11,4.11,0,0,0-.16,1.87,5.19,5.19,0,0,0,5,4.52,11,11,0,0,0-1.39,11c.58-2.23,1.28-4.63,3.12-6s5.15-.93,5.68,1.31c.75,3.18-4,7.29-1.2,8.91a7.36,7.36,0,0,1,3.63-5.92q1.79,9.66,3.56,19.34a7,7,0,0,0,1.83-7.06c4.32.93,7.15-4.45,7.78-8.83s1.42-9.83,5.62-11.19a5.17,5.17,0,0,1,1.24,1.43c2,3.43-.6,8.69-2.4,12.79a27.4,27.4,0,0,0,3.11,26.82" transform="translate(-448.65 -172)"/><path class="cls-9" d="M1108.15,649.78a7.16,7.16,0,0,1,8,5.65c1.43-.55,1.89-2.37,1.78-3.9s-.6-3.08-.24-4.57,2.14-2.78,3.42-1.92a3.44,3.44,0,0,1,1.14,2.36c.47,2.5,1,5.13,2.74,7s5,2.56,6.75.73c2-3.58.57-8.07-1.37-11.68s-4.45-7.14-4.66-11.22a2,2,0,0,1,.39-1.56,1.3,1.3,0,0,1,.51-.32,5.09,5.09,0,0,1,1-.21c7.15-1,10.6-9.12,16.06-13.84,2.4-2.08,5.28-3.53,7.69-5.6,3.22-2.77,5.43-6.49,7.47-10.23l.72-1.34" transform="translate(-448.65 -172)"/><path class="cls-9" d="M1091,542.3c1.36,3.58,6.65,4,8.58,7.32,1.64,2.79.16,6.41-1.9,8.91-.64.78-1.34,1.51-2,2.25a18.13,18.13,0,0,0-3.94,5.35c-1.88,4.53.1,9.65,2,14.15q4.68,10.74,9.34,21.49c1.22,2.81,2.47,5.65,3.91,8.35a36,36,0,0,0,6.35,8.85c3.2,3.15,7.55,6.16,7.59,10.65a5.12,5.12,0,0,1,5.09-.93" transform="translate(-448.65 -172)"/><path class="cls-9" d="M1091.49,542c3.32-1.15,7.68-2,9.77.81.75,1,1.1,2.4,2.2,3,2.21,1.2,4.62-1.9,7.11-1.57,1.89.24,2.91,2.26,3.74,4,2.48,5,6,9.46,9.63,13.79q16.55,19.92,34.74,38.39" transform="translate(-448.65 -172)"/><path class="cls-9" d="M1107.13,475c11.43,9.05,25,14.8,38,21.52s25.74,14.92,33.64,27.17c8.28,12.83,10.26,28.59,12,43.76q1.54,13.19,3.08,26.38" transform="translate(-448.65 -172)"/><path class="cls-9" d="M1193.72,593.9c-2.41,10.63,5.25,20.84,6.51,31.67a2.15,2.15,0,0,1-.11,1.26,1.93,1.93,0,0,1-1.51.82,7.07,7.07,0,0,1-6.48-2.58c-1.28-1.62-2-3.94-3.94-4.63a16.51,16.51,0,0,0-2.23-.4c-3.24-.69-4.77-4.33-5.69-7.51a163.44,163.44,0,0,1-5.53-28" transform="translate(-448.65 -172)"/><path class="cls-9" d="M1176.23,585.2l-.12-.84a521.32,521.32,0,0,0-11.44-57.54,33.9,33.9,0,0,0-3.29-9c-3.34-5.61-9.44-8.86-15.19-12a434.11,434.11,0,0,1-41.27-25.39c-.42-.27-.84-.57-1.26-.86" transform="translate(-448.65 -172)"/><path class="cls-9" d="M1105.73,474.84a3.3,3.3,0,0,0-.68,5.43" transform="translate(-448.65 -172)"/><path class="cls-9" d="M1074.67,471.87l-18.22,6.46c-6.62,2.35-13.5,4.86-18.29,10-6.53,7-7.78,17.25-9.08,26.74a358.71,358.71,0,0,1-17.47,71.48l-.17.47" transform="translate(-448.65 -172)"/><path class="cls-9" d="M1012.29,586.79c-6,23.86-9.2,48.39-16.15,72-6.84,23.21-17.81,46-36.11,61.78l-.93.8" transform="translate(-448.65 -172)"/><path class="cls-9" d="M960.77,721.41c-14,12.39-31.71,20.05-49.95,24.09s-36.82,4.62-55.37,4.17h-.39" transform="translate(-448.65 -172)"/><path class="cls-9" d="M831,786.45l13.47-16.07c5.09-6.07,10.41-12.7,11-20.59" transform="translate(-448.65 -172)"/><path class="cls-9" d="M881.67,705c.81-1.88,1.56-3.78,2.23-5.71" transform="translate(-448.65 -172)"/><path class="cls-9" d="M860.23,742.34c7.13-12.46,15.78-24.21,21.44-37.33" transform="translate(-448.65 -172)"/><path class="cls-9" d="M888.12,687.31A736.67,736.67,0,0,1,941.38,566" transform="translate(-448.65 -172)"/><path class="cls-9" d="M941.49,564.87a122.91,122.91,0,0,1,20.68-30.61c.56-.61,1.12-1.21,1.69-1.8" transform="translate(-448.65 -172)"/><path class="cls-9" d="M976.05,527.43q13.69-10.87,28.27-20.57c1.67,4.51-.9,9.35-3,13.71-4,8.4-6.19,17.49-8.4,26.51l-15.48,63.31c-.55,2.28-1.37,4.86-3.54,5.74a304.38,304.38,0,0,1,1.38-87.4" transform="translate(-448.65 -172)"/><path class="cls-9" d="M964.23,534.78a627.78,627.78,0,0,0,6.58,98.2c1.6,10.89,3.07,23.33-4.11,31.68" transform="translate(-448.65 -172)"/><path class="cls-9" d="M967.77,665.72a103.87,103.87,0,0,1-7.52,27.44c-2.11,4.92-4.73,9.83-8.9,13.18a33.57,33.57,0,0,1-7.33,4.22c-8.47,3.86-17.58,6.83-26.89,6.58s-18.86-4.14-24.24-11.73a24.26,24.26,0,0,1-4.35-15.7c.06-.68,0-1.55-.59-1.82l-.16,0c-.52,0-.76,1.16-.17,1" transform="translate(-448.65 -172)"/><path class="cls-9" d="M809,675c-4.87,13.93-6.19,30.7,2.93,42.31,4.52,5.76,11.05,9.52,17.42,13.14C839,736,849.11,741.6,859.87,744a47.77,47.77,0,0,0,8.7,1.15c9.44.36,18.71-2.3,27.73-5.12,15.06-4.71,30.87-10.6,40.28-23.25l-10.41,3.3c-9.06,2.88-18.61,5.79-27.92,3.88-9-1.85-17.4-9.92-16.58-18.92h0c0-.31.07-.63.12-.94" transform="translate(-448.65 -172)"/><path class="cls-9" d="M807.28,676.86l-4.41,22.95c-1.5,7.81-3,15.89-1.19,23.63,2.46,10.59,11,19.07,20.9,23.56s21.07,5.45,31.95,5.1" transform="translate(-448.65 -172)"/><path class="cls-9" d="M1023.36,503.22c-11.8,21.89-13.15,47.65-18.28,72-6.91,32.71-21,63.91-24.29,97.18" transform="translate(-448.65 -172)"/><path class="cls-9" d="M981.86,673.1l-3.38,8c-.85,2-1.71,4.1-1.52,6.26s1.85,4.37,4,4.37" transform="translate(-448.65 -172)"/><path class="cls-9" d="M570,989.89A126.89,126.89,0,0,1,581.93,914,62.54,62.54,0,0,1,591,900.09a64,64,0,0,1,13.34-10.78c54-34.57,126.23-28.35,181.23-61.29" transform="translate(-448.65 -172)"/><path class="cls-9" d="M786.12,828a105.62,105.62,0,0,0,30.57-25.28l14.55-16,.43-.47.74-.82" transform="translate(-448.65 -172)"/><path class="cls-9" d="M567.56,990c17.78,9.92,30.71,26.44,42.21,43.34q1.28,1.86,2.53,3.74" transform="translate(-448.65 -172)"/><path class="cls-9" d="M762.33,930.3l.33-.32c16.48-16.22,37.8-28.36,60.85-30.29,19-1.59,37.75,3.69,56,9l.63.18" transform="translate(-448.65 -172)"/><path class="cls-9" d="M639.83,1022.69l-1.16-1a58.87,58.87,0,0,1-18-51.35,10.94,10.94,0,0,1,2.22-5.81c1.39-1.54,3.47-2.24,5.47-2.81a87.87,87.87,0,0,1,33.49-2.87c1.69.18,3.37.41,5,.69,4.85.81,9.72,2.07,13.92,4.63,4,2.42,7.16,5.9,10.15,9.46a168.27,168.27,0,0,1,30.41,53.92q1.29,3.78,2.4,7.62" transform="translate(-448.65 -172)"/><path class="cls-9" d="M661.51,961.64a66.36,66.36,0,0,0,58,65.68" transform="translate(-448.65 -172)"/><path class="cls-9" d="M639,1023.71a16.19,16.19,0,0,1-2.69-.74c-6-2.27-10.43-8.05-14.12-13.54-3.31-4.91-6.56-10-8.28-15.62-3-9.91-1-20.81,3.33-30.22S628.15,946,634.66,938c6.15-7.61,12.51-15.39,21-20.26,11-6.3,24.31-7,37-6.16A205.59,205.59,0,0,1,752.38,925a47.29,47.29,0,0,1,10.28,5,21.83,21.83,0,0,1,3.51,3c4.81,5.15,6.37,12.42,9.12,18.91,3.35,7.91,8.59,14.84,12.68,22.39a82.46,82.46,0,0,1,7.62,19.93,85,85,0,0,1-1.36,45.34" transform="translate(-448.65 -172)"/><path class="cls-9" d="M797.64,993.11l2.83-2.56,15.2-13.74q15.47-14,30.94-28a137.31,137.31,0,0,1,13.51-11.19,68.54,68.54,0,0,1,33.11-11.88" transform="translate(-448.65 -172)"/><path class="cls-9" d="M816.14,977.33a54,54,0,0,0,31.75.28c5.93-1.78,11.5-4.57,17.38-6.5,13.41-4.4,27.83-4.16,42-3.7l1.27,0" transform="translate(-448.65 -172)"/><path class="cls-9" d="M449.31,798.12c.52-.46,1-.92,1.55-1.39,32.52-29.1,58.65-65.2,93.57-91.38,8-6,16.57-11.59,22.6-19.57a60.61,60.61,0,0,0,7.67-14.19,100.92,100.92,0,0,0,6.93-43.48" transform="translate(-448.65 -172)"/><path class="cls-9" d="M580.37,628.15l.06-.29c2.83-13.74-4.14-27.44-6.9-41.23-.84-4.21-1.29-8.48-1.74-12.75l-3-28.58" transform="translate(-448.65 -172)"/><path class="cls-9" d="M568,546.6c0-.46.11-.91.15-1.37,1.4-12.56,1.64-25.34-.88-37.71-2.37-11.63-7.33-22.91-15.22-31.71-.82-.9-1.67-1.79-2.55-2.64" transform="translate(-448.65 -172)"/><path class="cls-9" d="M449.22,416l.79.29q27.33,9.8,53.6,22.27c18.69,8.87,37.67,19.4,49.17,36.6" transform="translate(-448.65 -172)"/><path class="cls-9" d="M448.79,253.9c.39,0,.78,0,1.17,0a88.78,88.78,0,0,1,61.43,21.92c2.37,2.09,4.73,4.49,5.45,7.57.76,3.24-.44,6.63-.18,9.95.61,7.74,8.41,12.44,13.9,17.92,7.59,7.58,11.37,18,16.06,27.67s11.22,19.4,21.35,22.92" transform="translate(-448.65 -172)"/><path class="cls-9" d="M568.11,362a120,120,0,0,1,35.58,44.24c.34.73.68,1.46,1,2.19" transform="translate(-448.65 -172)"/><path class="cls-9" d="M602.74,407.3c.31-.37.63-.74,1-1.1,6.69-7.63,14.88-13.81,23-19.93C671,352.8,715.86,319.05,766.43,296" transform="translate(-448.65 -172)"/><path class="cls-9" d="M767.28,297.54C824,263,889.57,246.6,954,230.7l20.88-5.15" transform="translate(-448.65 -172)"/><path class="cls-9" d="M974.82,228.54l1.15-.48a516.38,516.38,0,0,1,63.16-22c9.43-2.62,18.95-5,28.58-6.69,9.94-1.79,20-2.91,29.8-5.43,11.69-3,22.82-8,34.55-10.81,10.31-2.5,21-3.34,31.52-4.17l69.21-5.42c13-1,27.75-1.45,37.43,7,.39.34.76.69,1.13,1.05" transform="translate(-448.65 -172)"/><path class="cls-9" d="M1270.28,180.5c29.44-1.63,57.72,10.36,84.75,22.11,11.93,5.19,23.9,10.4,35.09,17,4.75,2.82,9.35,5.9,13.93,9l2,1.33,25.33,17.21c5.13,3.48,10.28,7,14.74,11.28,8.26,8,13.76,18.34,19.11,28.51" transform="translate(-448.65 -172)"/><path class="cls-9" d="M1464.64,287.88c2.17,3,5.25,5.06,8.42,7,1.16.71,2.33,1.41,3.47,2.12,20.52,12.78,34.89,35.15,37.59,59.18,1.4,12.44-.18,25-.81,37.51a6.82,6.82,0,0,0,.48,3.59c.73,1.35,2.26,2.05,3.68,2.65l11.44,4.83" transform="translate(-448.65 -172)"/><path class="cls-9" d="M1373.51,544c8.65-.47,18.57-1.63,23.42-8.82,3.55-5.27,3.15-12.2,2.23-18.49a155.22,155.22,0,0,0-62.9-102.63" transform="translate(-448.65 -172)"/><path class="cls-9" d="M1403.24,230.37c.65,5.66,3.68,10.73,6.64,15.6,15.93,26.18,32.08,52.49,42.83,81.18.21.55.41,1.1.61,1.66a239.24,239.24,0,0,1,14.5,84.47c0,2.46-.08,4.93-.19,7.39-.07,1.85-.17,3.69-.29,5.53" transform="translate(-448.65 -172)"/><path class="cls-9" d="M1304.55,254.39c27.65,12.52,54.28,27.95,76.52,48.61s40,46.85,47.43,76.26c2.13,8.38,3.55,17.26,8.53,24.33" transform="translate(-448.65 -172)"/><path class="cls-9" d="M1303.37,293.58c31.86,17.05,52,49.42,70.68,80.36l30.87,51.14" transform="translate(-448.65 -172)"/><path class="cls-9" d="M1373.08,552.67a18.08,18.08,0,0,1,3-3.48c3.27-2.93,7.49-4.8,11.78-6.6a92.25,92.25,0,0,0,8.91-4c7.26-4,13-10.22,18.53-16.35,9.93-10.93,20.08-22.23,25.28-36,.1-.26.2-.51.29-.77,2.93-8.09,4-16.72,4.72-25.29a313.8,313.8,0,0,0,.2-49.34" transform="translate(-448.65 -172)"/><path class="cls-9" d="M1430.47,364.38c2.43,9.2,11.29,16.3,15.46,25.28,3.87,8.33,4.18,19.09,11.62,24.47a84.06,84.06,0,0,0,.75-12.58c-.38-23.05-10.2-45.09-11.19-68.12-.06-1.49,0-3.19,1.08-4.21a2.18,2.18,0,0,1,3.08.34,1.2,1.2,0,0,1,.14.8" transform="translate(-448.65 -172)"/><path class="cls-9" d="M1430.44,364.25c-.26-1.31-.46-2.63-.59-4A17.86,17.86,0,0,0,1430.44,364.25Z" transform="translate(-448.65 -172)"/><path class="cls-9" d="M1430.44,364.25a.35.35,0,0,0,0,.13" transform="translate(-448.65 -172)"/><path class="cls-9" d="M1445.36,410.25c.24-16.18-11.7-30.11-14.89-45.87" transform="translate(-448.65 -172)"/><path class="cls-9" d="M1426.76,248.13l25.14,46.1c4.41,8.09,9,16.36,16,22.37,1.91-10.74-1.84-21.58-5.54-31.84" transform="translate(-448.65 -172)"/><path class="cls-9" d="M1472.75,295.38A77.21,77.21,0,0,0,1490,336.63c4.11,5,9,9.65,10.87,15.82,2.42,8-.66,16.8,1.78,24.75.88,2.87,2.45,5.52,3.06,8.46s-.08,6.5-2.69,8c-1.42.81-3.22.89-4.52,1.88-2.91,2.21-1.48,6.7-.9,10.3a10.39,10.39,0,0,1,0,3.77,15,15,0,0,1-2.82,5.38c-4.33,6.08-11,12.94-18,10.34-4.78-1.77-6.93-7.19-8.54-12" transform="translate(-448.65 -172)"/><path class="cls-9" d="M1439.44,487.36q.58-.57,1.17-1.17a96,96,0,0,0,27.45-65.5" transform="translate(-448.65 -172)"/><path class="cls-9" d="M1440.63,491.44c22.42,15.83,44.46,34.79,53.77,60.6,3.07,8.53,4.63,17.51,6,26.46,2.54,16.66,4.48,33.58,2.65,50.33" transform="translate(-448.65 -172)"/><path class="cls-9" d="M1429.69,510.52c13.79,4,25.25,14.1,33.21,26.06s12.71,25.76,16.4,39.64c2,7.69,3.81,15.54,3.87,23.51.07,8.49-1.8,16.86-3.38,25.2a384.85,384.85,0,0,0-5.83,45.63c0,.7-.23,1.58-.92,1.71s-.67-1.38-.1-1" transform="translate(-448.65 -172)"/><path class="cls-9" d="M1387.77,542.43l.12.16,8.84,12.38c6,8.48,12.12,17,17.34,26a164.28,164.28,0,0,1,21.68,90.25" transform="translate(-448.65 -172)"/><path class="cls-9" d="M1371.28,637.51l1.38,4.43q3.1,10,6.23,20.07c1.39,4.48,2.79,9,2.78,13.73a46,46,0,0,1-1.9,11.31q-10.95,43.05-21.91,86.09" transform="translate(-448.65 -172)"/><path class="cls-9" d="M1460,463.06a112.09,112.09,0,0,1,37.62,5.76c5.84,1.95,11.74,4.55,15.74,9.24,2,2.31,3.48,5.13,6,6.8" transform="translate(-448.65 -172)"/><path class="cls-9" d="M1450,476.58c16,5.91,29.78,17,40.67,30.1s19.07,28.3,26,43.88" transform="translate(-448.65 -172)"/><path class="cls-9" d="M1468.62,429.13c9,1.28,18,2.57,26.66,5.33s17,7.07,23.22,13.64c.8.84,1.92,1.8,3,1.31" transform="translate(-448.65 -172)"/><path class="cls-9" d="M1495.59,418.91a37.74,37.74,0,0,1,28.68,10.55" transform="translate(-448.65 -172)"/><path class="cls-9" d="M1290.13,784.78c-3.23,26.63-14.1,51.87-17.44,78.48-2.77,22.07-.28,44.44,2.61,66.5" transform="translate(-448.65 -172)"/><path class="cls-9" d="M1275.39,929.07c0,.23,0,.45,0,.68,1,15.76,4.14,31.55,11.11,45.71,7.07,14.37,18.28,27,32.66,34a95.58,95.58,0,0,0,14.15,5.32,124.89,124.89,0,0,0,28.68,5.6c38.91,2.32,75.51-21,114.49-21" transform="translate(-448.65 -172)"/><path class="cls-9" d="M1477.34,997.82c1.89.51,3.78,1.06,5.65,1.66,1.7.54,3.4,1.12,5.08,1.74a133.5,133.5,0,0,1,32.88,17.44l0-.29c-.05-.49-.11-1-.16-1.47" transform="translate(-448.65 -172)"/><path class="cls-9" d="M1494.91,652l-.1.16c-8.44,13.87-20.39,25.34-28.82,39.23-5.65,9.3-9.6,19.51-13.53,29.65q-16.29,42.08-32.57,84.13" transform="translate(-448.65 -172)"/><path class="cls-9" d="M1420,806.06c-7.6,13.63-11.21,29.11-13.48,44.55-2.9,19.69-3.64,40.46,4,58.83,4.46,10.72,14.07,21.34,25.58,19.79a3.25,3.25,0,0,0,2.2-1,3.56,3.56,0,0,0,.41-2.6c-1.73-16.29-7.12-32-9.47-48.21a131.43,131.43,0,0,1,10.48-73" transform="translate(-448.65 -172)"/><path class="cls-9" d="M1438.84,804.54l.23-.43a1057.92,1057.92,0,0,0,56.69-120.6c4-10,7.39-22.67.12-30.67" transform="translate(-448.65 -172)"/><path class="cls-9" d="M1435.16,670,1432,695.14c-1.13,9.1-2.27,18.25-5,27-2.72,8.53-7,16.48-11.15,24.38l-28.41,53.33c-5.92,11.11-11.85,22.25-18.81,32.75-13.11,19.78-29.88,37.36-39.51,59" transform="translate(-448.65 -172)"/><path class="cls-9" d="M1329.76,891.46a58.33,58.33,0,0,0-6.29,50.23,33.79,33.79,0,0,0,6.91,12.25c4,4.24,9.34,6.89,14.76,9a103.28,103.28,0,0,0,58.9,4.52" transform="translate(-448.65 -172)"/><path class="cls-9" d="M1379,825.32c-.19,17.39,5.57,34.24,11.26,50.68l5.73,16.54c1.87,5.41,4,11.2,8.73,14.46" transform="translate(-448.65 -172)"/><path class="cls-9" d="M1360.93,862.9a338.07,338.07,0,0,0,5.08,33.8c1.31,6.48,2.9,13.1,6.66,18.53a50.66,50.66,0,0,0,8.93,9.17c12.48,10.75,25.82,21.25,41.6,26" transform="translate(-448.65 -172)"/><path class="cls-9" d="M1490.4,712.94c-1.73,32.65,8.25,64.65,18.11,95.82,3.55,11.22,7.15,22.54,13.06,32.71" transform="translate(-448.65 -172)"/><path class="cls-9" d="M1454.33,792.26q2.78,30.45,6.82,60.77c2,14.76,4.22,29.69,10.11,43.38s15.9,26.18,29.6,32" transform="translate(-448.65 -172)"/><path class="cls-9" d="M1464.84,826.61a127.32,127.32,0,0,0,36.79,79.25" transform="translate(-448.65 -172)"/><path class="cls-9" d="M1513.6,656.51a223.54,223.54,0,0,0,6.2,97.51" transform="translate(-448.65 -172)"/><path class="cls-9" d="M838.21,550.9c-.27-14.82,6-28.87,12.25-42.35,13-28.37,26.12-56.82,42.23-83.57a423.3,423.3,0,0,1,98.74-112.55" transform="translate(-448.65 -172)"/><path class="cls-9" d="M993.52,313.56c32.06-20.22,64.6-40.67,100.82-51.87,52.39-16.19,109-11.9,162.84-1.81,3.91.73,8.81,2.68,8.6,6.65" transform="translate(-448.65 -172)"/><path class="cls-9" d="M693.77,469.63c5.71-1.34,11-4,16.18-6.79,34.55-18.8,64.13-45.39,96.27-68.07,22.24-15.71,45.74-29.56,67.87-45.43a457.5,457.5,0,0,0,57.4-48.81" transform="translate(-448.65 -172)"/><path class="cls-9" d="M932.11,302.59A1342.78,1342.78,0,0,1,1120.61,228c10.43-3.24,20.91-6.36,31.46-9.2" transform="translate(-448.65 -172)"/><path class="cls-9" d="M1154.18,190.09c20.11-.24,40.08,3.06,59.92,6.36l34.74,5.76c26.61,4.42,53.57,8.93,78.19,20" transform="translate(-448.65 -172)"/><path class="cls-9" d="M813.15,660.71l65.36-91.45c23.17-32.41,46.35-64.85,71.59-95.67,11-13.47,22.49-26.67,35.54-38.21a198.23,198.23,0,0,1,21.85-16.75" transform="translate(-448.65 -172)"/><path class="cls-9" d="M884.91,622A569.45,569.45,0,0,1,1089.85,361" transform="translate(-448.65 -172)"/><path class="cls-9" d="M1005.85,381.62c37.7-33,82.07-60.11,131.32-69.13,6.31-1.16,12.85-2,19.07-.45,8.48,2.12,15.22,8.37,21.55,14.39" transform="translate(-448.65 -172)"/><path class="cls-9" d="M990.75,481.36c14.4-15.4,32.74-26.44,50.82-37.28,13.79-8.27,27.67-16.58,42.73-22.22,19.29-7.22,39.94-9.85,60.38-12.43s40.87-5.14,61.4-4.3,41.27,5.25,58.9,15.79" transform="translate(-448.65 -172)"/><path class="cls-9" d="M1141.91,422.57c28.58-2,57.21,2.17,85.4,7.25,10.08,1.82,20.19,3.78,29.81,7.33,19.17,7.07,35.47,20.11,51.39,32.93" transform="translate(-448.65 -172)"/><path class="cls-9" d="M1255.59,402.65c10.73-2.23,22,0,32,4.49s18.83,11.22,27.23,18.28a338.57,338.57,0,0,1,39.69,39.38" transform="translate(-448.65 -172)"/><path class="cls-9" d="M1236.36,457.2q27.06,11.15,53.21,24.37c24,12.16,48.45,26.56,62.47,49.57" transform="translate(-448.65 -172)"/><path class="cls-9" d="M452.41,318.41c14.29-.81,29.2-1.51,42.3,4.24,6.73,2.94,12.66,7.48,18,12.51,20.73,19.49,33,46.25,42.5,73.09s16.7,54.63,29.66,80,32.75,48.63,59.45,58.49" transform="translate(-448.65 -172)"/><path class="cls-9" d="M645.15,546.23a164.66,164.66,0,0,0,41.66,15.92c7.94,1.84,16.21,3.1,24.23,1.61a70.14,70.14,0,0,0,12.89-4.14c14.17-5.64,28.51-11.84,39.71-22.2,5.86-5.43,10.7-11.85,15.42-18.3q20.81-28.41,39.44-58.31c4.85-7.78,10.46-16.31,19.35-18.55" transform="translate(-448.65 -172)"/><path class="cls-9" d="M455.42,357.06a54.93,54.93,0,0,1,33.18,11.63c6.41,5,11.6,11.43,16.57,17.89a496.64,496.64,0,0,1,46.72,73.17c13.16,25.23,24.16,51.63,39,75.91" transform="translate(-448.65 -172)"/><path class="cls-9" d="M590.48,535.71a464.79,464.79,0,0,0,37.76,96.62c2.83,5.38,5.84,10.81,10.31,14.92,10.15,9.34,25.29,10,39.08,10.21,8.72.12,17.59.21,26-2.28,18-5.36,30.35-21.47,41.43-36.65q9.81-13.46,19.63-26.92c5.47-7.48,12.46-15.76,21.72-15.42" transform="translate(-448.65 -172)"/><path class="cls-9" d="M567.59,386.92c-.78,11.83,6,22.73,12.84,32.4a442.19,442.19,0,0,0,49.46,58.19c5.44,5.38,11.1,10.67,17.78,14.38,16.41,9.11,36.47,7.52,55.08,5.11,10.64-1.38,21.4-3,31.25-7.24,11.28-4.89,20.79-13,30.12-21,14.13-12.14,28.89-25.2,34.6-42.93" transform="translate(-448.65 -172)"/><path class="cls-9" d="M614.42,405.3l16.5,10.06c8.23,5,16.54,10.08,25.68,13.17,25,8.44,52.94.94,75.55-12.6s41.24-32.64,61.18-49.89c11.07-9.57,22.58-18.61,34.1-27.64,8.28-6.5,17.25-13.28,27.75-14" transform="translate(-448.65 -172)"/><path class="cls-9" d="M1034.14,679.53c-.4.35-.81.73-1.2,1.14-1.8,1.87-3.26,4.23-2.17,6.41.79,1.58,2.65,2.3,4.39,2.54,7.43,1,14.4-4.39,18.32-10.78s5.7-13.85,8.86-20.66,8.37-13.39,15.71-14.95a7.49,7.49,0,0,0,3-1c1.43-1.06,1.68-3.17,3-4.36s3.25-1.11,5-1.42a5.69,5.69,0,0,0,1.35-.42c1.24-.55,2.26-1.54,2.1-2.83" transform="translate(-448.65 -172)"/><path class="cls-9" d="M1032.61,681.12l.33-.45,18.42-25.11c3.06-4.18,6.2-8.5,7.47-13.53,1.38-5.46.48-11.46,2.76-16.61,1.13-2.55,3-4.76,3.84-7.42s.6-5.81,1.08-8.7,2.19-6,5.08-6.49" transform="translate(-448.65 -172)"/><path class="cls-9" d="M948.16,751.85h0c13.1,2.38,26.46,3.07,39.54,5.58s26.2,7.06,36.08,16c11.56,10.45,17.46,25.64,26.61,38.25,3.72,5.12,8,9.94,10.36,15.83s2.06,13.37-2.59,17.66" transform="translate(-448.65 -172)"/><path class="cls-9" d="M947.45,757.78a45.51,45.51,0,0,0,9.92,11.38c6.32,5.31,13.92,9.39,21.7,13.33,14.08,7.14,28.72,13.82,37.35,26.51,3.83,5.64,6.25,12.21,10.62,17.45,1.58,1.89,3.42,3.62,4.55,5.82a12.7,12.7,0,0,1,0,10.81,17.69,17.69,0,0,1-3.7,5.55c-1.48,1.5-3.22,2.84-4.21,4.71s-.94,4.18.47,5.46a2.88,2.88,0,0,0,.34.27" transform="translate(-448.65 -172)"/><path class="cls-9" d="M947,757c.15.26.3.52.46.78" transform="translate(-448.65 -172)"/><path class="cls-9" d="M936.45,766.87c.06.62.13,1.23.19,1.85q1.82,17.68,3.61,35.39a133.76,133.76,0,0,0,2.63,17.83,67.28,67.28,0,0,0,23,36.3" transform="translate(-448.65 -172)"/><path class="cls-9" d="M935.46,770a9.16,9.16,0,0,1,1.18-1.23c4.35-3.85,11.63-3.53,16.75-.44a23.21,23.21,0,0,1,2,1.38c4.49,3.46,7.65,8.51,10.64,13.4l10.11,16.54,2.88,4.71c4.4,7.19,8.8,14.39,13.3,21.51,3.92,6.2,8,12.4,13.13,17.6.9.9,1.83,1.77,2.78,2.63,4.57,4.09,9.56,7.74,13.46,12.47" transform="translate(-448.65 -172)"/><path class="cls-9" d="M975.42,787.69a5.26,5.26,0,0,0,0,2.7,14.42,14.42,0,0,0,3.28,5.42l5,5.82,8.53,10c8.28,9.69,16.56,19.39,25.15,28.81l.52.56a6.57,6.57,0,0,0,2.18,1.64,7.42,7.42,0,0,0,2.56.41,60.63,60.63,0,0,0,8.2-.26" transform="translate(-448.65 -172)"/><path class="cls-9" d="M975.52,790.38a17.17,17.17,0,0,1,3.55-7.89c.32-.4.65-.78,1-1.15" transform="translate(-448.65 -172)"/><path class="cls-9" d="M975.48,799.42l.68.18,7.51,2,.94.25" transform="translate(-448.65 -172)"/><path class="cls-9" d="M1007.92,846.16l.33-.11a33.05,33.05,0,0,0,9.49-4.95" transform="translate(-448.65 -172)"/><path class="cls-9" d="M548,1016.48c-23.88-63.65-6.73-140.81,42.25-188,24.35-23.42,54.9-39.21,81.84-59.59,57.23-43.31,96.34-105.75,134.15-166.75" transform="translate(-448.65 -172)"/><path class="cls-9" d="M491.39,1038c-6.42-68.51,8.14-137.36,28.5-203.09,11.28-36.43,25.06-73.45,51.38-101.05,27.08-28.41,64.62-43.94,101-58.69" transform="translate(-448.65 -172)"/><path class="cls-9" d="M610.51,1032.85a92.08,92.08,0,0,1,13.34,18.29.75.75,0,0,1,.07.12" transform="translate(-448.65 -172)"/><path class="cls-9" d="M1182.56,1035.9a29,29,0,0,1-7.4,15.13" transform="translate(-448.65 -172)"/><path class="cls-9" d="M1124.27,1037.69l-.29.15a11.21,11.21,0,0,0-5.21,13.34" transform="translate(-448.65 -172)"/><path class="cls-9" d="M1519.22,1017.3l1.7,1.07,10.21,6.46" transform="translate(-448.65 -172)"/><path class="cls-9" d="M1474.9,1000c.55-.09,1.11-.18,1.68-.25a27.12,27.12,0,0,1,6.41-.28,10.9,10.9,0,0,1,5.08,1.74,6.26,6.26,0,0,1,.66.49" transform="translate(-448.65 -172)"/><path class="cls-9" d="M1235.41,859.53c1.22,38.39,2.91,78.51,21.86,111.93a119.73,119.73,0,0,0,50.49,47.84c26,13,55.76,16,84.76,18.36,27,2.25,54.27,4.17,81.08.34" transform="translate(-448.65 -172)"/><path class="cls-9" d="M1195.78,894.05c-1.32,19-2.64,38.18-.08,57.06s9.34,37.7,22.31,51.65c15.81,17,39,25,61.57,30.23,15,3.43,31.26,6.52,41.53,17.9" transform="translate(-448.65 -172)"/><path class="cls-9" d="M1157.91,909.25A833.72,833.72,0,0,0,1185,997.46c3.33,9.14,7,18.59,14.21,25.17,11.87,10.89,32.4,13.38,37.67,28.61" transform="translate(-448.65 -172)"/><path class="cls-9" d="M1263.63,795.31c1.31-.22,2.61-.5,3.89-.83a46.92,46.92,0,0,0,17.38-8.66l0,0q1.26-1,2.46-2.1a86.88,86.88,0,0,0,6.73-7,106.35,106.35,0,0,0,11.6-15.55,58,58,0,0,0,7-16.92" transform="translate(-448.65 -172)"/><path class="cls-9" d="M1113.25,896a36.81,36.81,0,0,1,13.85-5.55" transform="translate(-448.65 -172)"/><path class="cls-9" d="M948.18,751.94a6,6,0,0,0-.74,5.82v0a5.58,5.58,0,0,0,.35.69" transform="translate(-448.65 -172)"/><path class="cls-9" d="M965.56,857.68l.41.45a9.89,9.89,0,0,0,2.7,2,1.29,1.29,0,0,0,.16.09" transform="translate(-448.65 -172)"/><path class="cls-9" d="M997.72,881.27a6.3,6.3,0,0,0-.15,2.12,2.09,2.09,0,0,1,1,.7" transform="translate(-448.65 -172)"/><path class="cls-9" d="M886.3,1035c-.15.46-.3.91-.44,1.37q-2.43,7.52-4.85,15c-.1.33-.2.65-.31,1" transform="translate(-448.65 -172)"/><path class="cls-9" d="M1246.18,816.48l.11,0a28.2,28.2,0,0,0,6.73-2.25" transform="translate(-448.65 -172)"/><path class="cls-9" d="M1249.85,809.4c.51-.24,1,.05,1.31.53a3.89,3.89,0,0,1,.58,1.36c.21,1,1,2.3,1.92,1.82" transform="translate(-448.65 -172)"/><path class="cls-9" d="M1186.51,718.09c0,.1,0,.21,0,.31q-.35,4.22-.66,8.43" transform="translate(-448.65 -172)"/><path class="cls-9" d="M1177.29,725a1.77,1.77,0,0,1,.16-.34c.63-1,2.24-1.14,3.52-1" transform="translate(-448.65 -172)"/><path class="cls-9" d="M723.73,1034.88l.06.25q1.83,7.53,3.65,15" transform="translate(-448.65 -172)"/><path class="cls-9" d="M794.28,1039.57a65.67,65.67,0,0,1-1.45,11.69l-.24,1.08" transform="translate(-448.65 -172)"/><path class="cls-9" d="M719.65,1027.35l1.25.32" transform="translate(-448.65 -172)"/><path class="cls-9" d="M795.26,994.44l.33-.23c1.68-1.15,3.3-2.37,4.88-3.66" transform="translate(-448.65 -172)"/><path class="cls-9" d="M879,908.16l.53.53a46.81,46.81,0,0,0,4,3.58c.37.31.74.6,1.12.88" transform="translate(-448.65 -172)"/><path class="cls-10" d="M450,254.48q0,80.9,0,161.79.15,190.31.85,380.46.47,127,1.18,253.88v.39" transform="translate(-448.65 -172)"/><path class="cls-10" d="M455.87,1051.13q84,0,168,0l103.59.06q32.7,0,65.39.06l88.18.11q93.65.14,187.24.35l50.52.12q28.2.06,56.39.14,178,.46,355.84,1.21" transform="translate(-448.65 -172)"/><path class="cls-10" d="M1529.91,405q-.17,310.11,1.86,619.83l.18,28.35c0,.78,0,1.57,0,2.35" transform="translate(-448.65 -172)"/><path class="cls-11" d="M450.65,1049a8.36,8.36,0,0,0,3.41,3,5.84,5.84,0,0,1,1.73-1,6.26,6.26,0,0,1,4-.22" transform="translate(-448.65 -172)"/></svg>